Bellota-Light Italic.ufo
<glyph name="exclam" format="1">
  <advance width="173"/>
  <unicode hex="0021"/>
  <outline>
    <contour>
      <point x="75" y="143" type="line"/>
      <point x="163" y="705" type="line"/>
      <point x="106" y="705" type="line"/>
      <point x="36" y="143" type="line"/>
    </contour>
    <component base="period" xOffset="-56" yOffset="-6"/>
  </outline>
</glyph>
<glyph name="quotedbl" format="2">
	<advance width="341"/>
	<unicode hex="0022"/>
	<outline>
		<contour>
			<point x="240" y="503" type="line"/>
			<point x="280" y="503" type="line"/>
			<point x="314" y="685" type="line"/>
			<point x="256" y="685" type="line"/>
		</contour>
		<contour>
			<point x="128" y="503" type="line"/>
			<point x="167" y="503" type="line"/>
			<point x="202" y="685" type="line"/>
			<point x="144" y="685" type="line"/>
		</contour>
	</outline>
</glyph>
<glyph name="numbersign" format="2">
	<advance width="599"/>
	<unicode hex="0023"/>
	<outline>
		<contour>
			<point x="135" y="32" type="line"/>
			<point x="176" y="32" type="line"/>
			<point x="198" y="189" type="line"/>
			<point x="385" y="189" type="line"/>
			<point x="363" y="32" type="line"/>
			<point x="403" y="32" type="line"/>
			<point x="425" y="189" type="line"/>
			<point x="542" y="189" type="line"/>
			<point x="548" y="228" type="line"/>
			<point x="431" y="228" type="line"/>
			<point x="461" y="442" type="line"/>
			<point x="578" y="442" type="line"/>
			<point x="583" y="481" type="line"/>
			<point x="466" y="481" type="line"/>
			<point x="488" y="637" type="line"/>
			<point x="445" y="637" type="line"/>
			<point x="423" y="481" type="line"/>
			<point x="239" y="481" type="line"/>
			<point x="261" y="637" type="line"/>
			<point x="218" y="637" type="line"/>
			<point x="196" y="481" type="line"/>
			<point x="80" y="481" type="line"/>
			<point x="75" y="442" type="line"/>
			<point x="191" y="442" type="line"/>
			<point x="161" y="228" type="line"/>
			<point x="45" y="228" type="line"/>
			<point x="39" y="189" type="line"/>
			<point x="157" y="189" type="line"/>
		</contour>
		<contour>
			<point x="204" y="228" type="line"/>
			<point x="234" y="442" type="line"/>
			<point x="418" y="442" type="line"/>
			<point x="388" y="228" type="line"/>
		</contour>
	</outline>
</glyph>
<glyph name="dollar" format="1">
  <advance width="561"/>
  <unicode hex="0024"/>
  <outline>
    <contour>
      <point x="255" y="-70" type="line"/>
      <point x="265" y="-8" type="line"/>
      <point x="318" y="-4"/>
      <point x="371" y="8"/>
      <point x="414" y="37" type="curve" smooth="yes"/>
      <point x="457" y="70"/>
      <point x="481" y="111"/>
      <point x="489" y="166" type="curve" smooth="yes"/>
      <point x="490" y="176"/>
      <point x="491" y="186"/>
      <point x="491" y="195" type="curve" smooth="yes"/>
      <point x="491" y="238"/>
      <point x="476" y="270"/>
      <point x="443" y="296" type="curve" smooth="yes"/>
      <point x="412" y="326"/>
      <point x="380" y="339"/>
      <point x="314" y="360" type="curve"/>
      <point x="353" y="620" type="line"/>
      <point x="400" y="614"/>
      <point x="419" y="607"/>
      <point x="452" y="592" type="curve" smooth="yes"/>
      <point x="476" y="581"/>
      <point x="496" y="570"/>
      <point x="514" y="557" type="curve"/>
      <point x="543" y="593" type="line"/>
      <point x="521" y="610"/>
      <point x="493" y="626"/>
      <point x="465" y="637" type="curve" smooth="yes"/>
      <point x="435" y="650"/>
      <point x="403" y="659"/>
      <point x="357" y="663" type="curve"/>
      <point x="371" y="752" type="line"/>
      <point x="326" y="752" type="line"/>
      <point x="312" y="663" type="line"/>
      <point x="264" y="658"/>
      <point x="218" y="645"/>
      <point x="177" y="614" type="curve" smooth="yes"/>
      <point x="145" y="586"/>
      <point x="127" y="554"/>
      <point x="120" y="509" type="curve" smooth="yes"/>
      <point x="119" y="501"/>
      <point x="118" y="493"/>
      <point x="118" y="485" type="curve" smooth="yes"/>
      <point x="118" y="449"/>
      <point x="130" y="417"/>
      <point x="156" y="391" type="curve" smooth="yes"/>
      <point x="183" y="359"/>
      <point x="219" y="343"/>
      <point x="267" y="328" type="curve"/>
      <point x="224" y="34" type="line"/>
      <point x="158" y="40"/>
      <point x="105" y="64"/>
      <point x="55" y="98" type="curve"/>
      <point x="26" y="62" type="line"/>
      <point x="77" y="20"/>
      <point x="144" y="-4"/>
      <point x="220" y="-9" type="curve"/>
      <point x="210" y="-70" type="line"/>
    </contour>
    <contour>
      <point x="310" y="313" type="line"/>
      <point x="340" y="303"/>
      <point x="387" y="284"/>
      <point x="412" y="264" type="curve" smooth="yes"/>
      <point x="432" y="245"/>
      <point x="442" y="220"/>
      <point x="442" y="190" type="curve" smooth="yes"/>
      <point x="442" y="157"/>
      <point x="430" y="102"/>
      <point x="381" y="69" type="curve" smooth="yes"/>
      <point x="350" y="46"/>
      <point x="309" y="34"/>
      <point x="269" y="33" type="curve"/>
    </contour>
    <contour>
      <point x="241" y="388"/>
      <point x="211" y="403"/>
      <point x="189" y="426" type="curve" smooth="yes"/>
      <point x="174" y="444"/>
      <point x="168" y="467"/>
      <point x="168" y="490" type="curve" smooth="yes"/>
      <point x="168" y="552"/>
      <point x="209" y="615"/>
      <point x="308" y="622" type="curve"/>
      <point x="272" y="375" type="line"/>
    </contour>
  </outline>
</glyph>
<glyph name="ampersand" format="2">
	<advance width="632"/>
	<unicode hex="0026"/>
	<outline>
		<contour>
			<point x="220" y="-9" type="curve" smooth="yes"/>
			<point x="302" y="-9"/>
			<point x="385" y="22"/>
			<point x="444" y="84" type="curve"/>
			<point x="522" y="1" type="line"/>
			<point x="554" y="32" type="line"/>
			<point x="475" y="117" type="line"/>
			<point x="521" y="176"/>
			<point x="548" y="244"/>
			<point x="558" y="314" type="curve" smooth="yes"/>
			<point x="563" y="351" type="line"/>
			<point x="523" y="351" type="line"/>
			<point x="519" y="318" type="line" smooth="yes"/>
			<point x="510" y="257"/>
			<point x="486" y="197"/>
			<point x="446" y="145" type="curve"/>
			<point x="420" y="174"/>
			<point x="317" y="285"/>
			<point x="267" y="335" type="curve" smooth="yes"/>
			<point x="237" y="367"/>
			<point x="200" y="407"/>
			<point x="200" y="466" type="curve" smooth="yes"/>
			<point x="200" y="536"/>
			<point x="244" y="592"/>
			<point x="327" y="592" type="curve" smooth="yes"/>
			<point x="367" y="592"/>
			<point x="405" y="580"/>
			<point x="425" y="531" type="curve"/>
			<point x="458" y="554" type="line"/>
			<point x="442" y="599"/>
			<point x="394" y="634"/>
			<point x="327" y="634" type="curve" smooth="yes"/>
			<point x="236" y="634"/>
			<point x="147" y="571"/>
			<point x="147" y="460" type="curve" smooth="yes"/>
			<point x="147" y="420"/>
			<point x="162" y="385"/>
			<point x="187" y="352" type="curve"/>
			<point x="72" y="300"/>
			<point x="41" y="200"/>
			<point x="41" y="135" type="curve" smooth="yes"/>
			<point x="41" y="34"/>
			<point x="125" y="-9"/>
		</contour>
		<contour>
			<point x="221" y="30" type="curve" smooth="yes"/>
			<point x="152" y="30"/>
			<point x="85" y="63"/>
			<point x="85" y="142" type="curve" smooth="yes"/>
			<point x="85" y="214"/>
			<point x="133" y="290"/>
			<point x="213" y="323" type="curve"/>
			<point x="281" y="256" type="line"/>
			<point x="417" y="112" type="line"/>
			<point x="363" y="58"/>
			<point x="285" y="30"/>
		</contour>
	</outline>
</glyph>
<glyph name="quotesingle" format="2">
	<advance width="229"/>
	<unicode hex="0027"/>
	<outline>
		<contour>
			<point x="128" y="503" type="line"/>
			<point x="167" y="503" type="line"/>
			<point x="202" y="685" type="line"/>
			<point x="143" y="685" type="line"/>
		</contour>
	</outline>
</glyph>
<glyph name="parenleft" format="1">
  <advance width="357"/>
  <unicode hex="0028"/>
  <outline>
    <contour>
      <point x="240" y="-130" type="line"/>
      <point x="178" y="-87"/>
      <point x="132" y="-21"/>
      <point x="104" y="45" type="curve" smooth="yes"/>
      <point x="85" y="96"/>
      <point x="72" y="159"/>
      <point x="72" y="225" type="curve" smooth="yes"/>
      <point x="72" y="247"/>
      <point x="74" y="270"/>
      <point x="77" y="292" type="curve" smooth="yes"/>
      <point x="89" y="377"/>
      <point x="128" y="468"/>
      <point x="178" y="540" type="curve" smooth="yes"/>
      <point x="224" y="610"/>
      <point x="290" y="677"/>
      <point x="361" y="717" type="curve"/>
      <point x="345" y="750" type="line"/>
      <point x="254" y="703"/>
      <point x="180" y="634"/>
      <point x="127" y="558" type="curve" smooth="yes"/>
      <point x="74" y="476"/>
      <point x="42" y="386"/>
      <point x="29" y="295" type="curve" smooth="yes"/>
      <point x="25" y="268"/>
      <point x="23" y="241"/>
      <point x="23" y="215" type="curve" smooth="yes"/>
      <point x="23" y="152"/>
      <point x="35" y="93"/>
      <point x="58" y="36" type="curve" smooth="yes"/>
      <point x="88" y="-44"/>
      <point x="139" y="-110"/>
      <point x="219" y="-160" type="curve"/>
    </contour>
  </outline>
</glyph>
<glyph name="asterisk" format="1">
  <advance width="366"/>
  <unicode hex="002A"/>
  <outline>
    <contour>
      <point x="207" y="529" type="line"/>
      <point x="258" y="430" type="line"/>
      <point x="299" y="456" type="line"/>
      <point x="241" y="542" type="line"/>
      <point x="355" y="572" type="line"/>
      <point x="347" y="616" type="line"/>
      <point x="229" y="572" type="line"/>
      <point x="255" y="695" type="line"/>
      <point x="208" y="695" type="line"/>
      <point x="197" y="573" type="line"/>
      <point x="92" y="616" type="line"/>
      <point x="72" y="572" type="line"/>
      <point x="179" y="543" type="line"/>
      <point x="96" y="456" type="line"/>
      <point x="128" y="429" type="line"/>
    </contour>
  </outline>
</glyph>
<glyph name="plus" format="1">
  <advance width="421"/>
  <unicode hex="002B"/>
  <outline>
    <contour>
      <point x="196" y="110" type="line"/>
      <point x="219" y="274" type="line"/>
      <point x="381" y="274" type="line"/>
      <point x="387" y="312" type="line"/>
      <point x="225" y="312" type="line"/>
      <point x="248" y="475" type="line"/>
      <point x="206" y="475" type="line"/>
      <point x="183" y="312" type="line"/>
      <point x="21" y="312" type="line"/>
      <point x="15" y="274" type="line"/>
      <point x="177" y="274" type="line"/>
      <point x="154" y="110" type="line"/>
    </contour>
  </outline>
</glyph>
<glyph name="comma" format="1">
  <advance width="176"/>
  <unicode hex="002C"/>
  <outline>
    <contour>
      <point x="26" y="-83"/>
      <point x="42" y="-66"/>
      <point x="51" y="-48" type="curve" smooth="yes"/>
      <point x="62" y="-27"/>
      <point x="70" y="-2"/>
      <point x="74" y="26" type="curve" smooth="yes"/>
      <point x="76" y="46" type="line" smooth="yes"/>
      <point x="78" y="60"/>
      <point x="72" y="74"/>
      <point x="53" y="74" type="curve" smooth="yes"/>
      <point x="37" y="74"/>
      <point x="27" y="65"/>
      <point x="25" y="49" type="curve"/>
      <point x="24" y="34"/>
      <point x="22" y="23"/>
      <point x="21" y="14" type="curve" smooth="yes"/>
      <point x="18" y="-9"/>
      <point x="14" y="-22"/>
      <point x="8" y="-34" type="curve" smooth="yes"/>
      <point x="2" y="-47"/>
      <point x="-9" y="-61"/>
      <point x="-21" y="-73" type="curve"/>
      <point x="2" y="-100" type="line"/>
    </contour>
  </outline>
</glyph>
<glyph name="hyphen" format="1">
  <advance width="392"/>
  <unicode hex="002D"/>
  <outline>
    <contour>
      <point x="345" y="284" type="line"/>
      <point x="351" y="328" type="line"/>
      <point x="62" y="328" type="line"/>
      <point x="56" y="284" type="line"/>
    </contour>
  </outline>
</glyph>
<glyph name="period" format="1">
  <advance width="210"/>
  <unicode hex="002E"/>
  <outline>
    <contour>
      <point x="94" y="-3"/>
      <point x="112" y="14"/>
      <point x="112" y="37" type="curve" smooth="yes"/>
      <point x="112" y="56"/>
      <point x="99" y="69"/>
      <point x="79" y="69" type="curve" smooth="yes"/>
      <point x="57" y="69"/>
      <point x="40" y="52"/>
      <point x="40" y="29" type="curve" smooth="yes"/>
      <point x="40" y="10"/>
      <point x="52" y="-3"/>
      <point x="72" y="-3" type="curve" smooth="yes"/>
    </contour>
  </outline>
</glyph>
<glyph name="zero" format="1">
  <advance width="647"/>
  <unicode hex="0030"/>
  <outline>
    <contour>
      <point x="445" y="-9"/>
      <point x="563" y="142"/>
      <point x="588" y="322" type="curve" smooth="yes"/>
      <point x="591" y="345"/>
      <point x="593" y="369"/>
      <point x="593" y="391" type="curve" smooth="yes"/>
      <point x="593" y="542"/>
      <point x="517" y="663"/>
      <point x="364" y="663" type="curve" smooth="yes"/>
      <point x="192" y="663"/>
      <point x="75" y="508"/>
      <point x="50" y="330" type="curve" smooth="yes"/>
      <point x="47" y="307"/>
      <point x="45" y="285"/>
      <point x="45" y="263" type="curve" smooth="yes"/>
      <point x="45" y="113"/>
      <point x="120" y="-9"/>
      <point x="274" y="-9" type="curve" smooth="yes"/>
    </contour>
    <contour>
      <point x="153" y="33"/>
      <point x="96" y="139"/>
      <point x="96" y="265" type="curve" smooth="yes"/>
      <point x="96" y="285"/>
      <point x="97" y="305"/>
      <point x="100" y="326" type="curve" smooth="yes"/>
      <point x="121" y="476"/>
      <point x="216" y="621"/>
      <point x="363" y="621" type="curve" smooth="yes"/>
      <point x="486" y="621"/>
      <point x="545" y="518"/>
      <point x="545" y="393" type="curve" smooth="yes"/>
      <point x="545" y="373"/>
      <point x="543" y="352"/>
      <point x="540" y="331" type="curve" smooth="yes"/>
      <point x="520" y="184"/>
      <point x="430" y="33"/>
      <point x="278" y="33" type="curve" smooth="yes"/>
    </contour>
  </outline>
</glyph>
<glyph name="one" format="1">
  <advance width="350"/>
  <unicode hex="0031"/>
  <outline>
    <contour>
      <point x="231" y="1" type="line"/>
      <point x="325" y="669" type="line"/>
      <point x="326" y="670" type="line"/>
      <point x="225" y="609"/>
      <point x="157" y="563"/>
      <point x="93" y="559" type="curve"/>
      <point x="100" y="520" type="line"/>
      <point x="161" y="522"/>
      <point x="211" y="548"/>
      <point x="267" y="593" type="curve"/>
      <point x="183" y="1" type="line"/>
    </contour>
  </outline>
</glyph>
<glyph name="two" format="1">
  <advance width="529"/>
  <unicode hex="0032"/>
  <outline>
    <contour>
      <point x="437" y="1" type="line"/>
      <point x="443" y="45" type="line"/>
      <point x="62" y="44" type="line"/>
      <point x="83" y="106"/>
      <point x="131" y="152"/>
      <point x="199" y="199" type="curve" smooth="yes"/>
      <point x="329" y="297"/>
      <point x="453" y="351"/>
      <point x="473" y="492" type="curve" smooth="yes"/>
      <point x="475" y="503"/>
      <point x="475" y="514"/>
      <point x="475" y="524" type="curve" smooth="yes"/>
      <point x="475" y="613"/>
      <point x="418" y="665"/>
      <point x="306" y="665" type="curve" smooth="yes"/>
      <point x="202" y="665"/>
      <point x="132" y="620"/>
      <point x="84" y="526" type="curve"/>
      <point x="116" y="506" type="line"/>
      <point x="152" y="583"/>
      <point x="222" y="628"/>
      <point x="304" y="628" type="curve" smooth="yes"/>
      <point x="384" y="628"/>
      <point x="433" y="583"/>
      <point x="433" y="518" type="curve" smooth="yes"/>
      <point x="433" y="511"/>
      <point x="432" y="504"/>
      <point x="431" y="497" type="curve" smooth="yes"/>
      <point x="416" y="389"/>
      <point x="302" y="326"/>
      <point x="217" y="269" type="curve" smooth="yes"/>
      <point x="105" y="192"/>
      <point x="23" y="117"/>
      <point x="8" y="8" type="curve" smooth="yes"/>
      <point x="7" y="1" type="line"/>
    </contour>
  </outline>
</glyph>
<glyph name="three" format="2">
	<advance width="505"/>
	<unicode hex="0033"/>
	<outline>
		<contour>
			<point x="206" y="-11" type="curve" smooth="yes"/>
			<point x="327" y="-11"/>
			<point x="440" y="53"/>
			<point x="457" y="175" type="curve" smooth="yes"/>
			<point x="458" y="185"/>
			<point x="459" y="195"/>
			<point x="459" y="205" type="curve" smooth="yes"/>
			<point x="459" y="263"/>
			<point x="434" y="310"/>
			<point x="393" y="342" type="curve" smooth="yes"/>
			<point x="370" y="360"/>
			<point x="328" y="373"/>
			<point x="321" y="374" type="curve"/>
			<point x="405" y="383"/>
			<point x="470" y="464"/>
			<point x="470" y="541" type="curve" smooth="yes"/>
			<point x="470" y="621"/>
			<point x="396" y="672"/>
			<point x="294" y="672" type="curve" smooth="yes"/>
			<point x="232" y="672"/>
			<point x="188" y="653"/>
			<point x="131" y="619" type="curve"/>
			<point x="127" y="616" type="line"/>
			<point x="144" y="578" type="line"/>
			<point x="197" y="610"/>
			<point x="245" y="627"/>
			<point x="293" y="627" type="curve" smooth="yes"/>
			<point x="357" y="627"/>
			<point x="418" y="595"/>
			<point x="418" y="533" type="curve" smooth="yes"/>
			<point x="418" y="457"/>
			<point x="332" y="387"/>
			<point x="260" y="387" type="curve" smooth="yes"/>
			<point x="157" y="387" type="line"/>
			<point x="151" y="344" type="line"/>
			<point x="257" y="344" type="line"/>
			<point x="334" y="340"/>
			<point x="410" y="298"/>
			<point x="410" y="212" type="curve" smooth="yes"/>
			<point x="410" y="95"/>
			<point x="308" y="35"/>
			<point x="196" y="35" type="curve" smooth="yes"/>
			<point x="115" y="35"/>
			<point x="67" y="66"/>
			<point x="22" y="113" type="curve"/>
			<point x="-7" y="81" type="line"/>
			<point x="35" y="38"/>
			<point x="102" y="-11"/>
		</contour>
	</outline>
</glyph>
<glyph name="four" format="2">
	<advance width="502"/>
	<unicode hex="0034"/>
	<outline>
		<contour>
			<point x="314" y="-2" type="line"/>
			<point x="363" y="-2" type="line"/>
			<point x="381" y="130" type="line"/>
			<point x="467" y="130" type="line"/>
			<point x="473" y="174" type="line"/>
			<point x="387" y="174" type="line"/>
			<point x="419" y="400" type="line"/>
			<point x="370" y="400" type="line"/>
			<point x="338" y="174" type="line"/>
			<point x="68" y="174" type="line"/>
			<point x="341" y="660" type="line"/>
			<point x="288" y="660" type="line"/>
			<point x="14" y="172" type="line"/>
			<point x="8" y="130" type="line"/>
			<point x="332" y="130" type="line"/>
		</contour>
	</outline>
</glyph>
<glyph name="five" format="2">
	<advance width="485"/>
	<unicode hex="0035"/>
	<outline>
		<contour>
			<point x="195" y="-5" type="curve" smooth="yes"/>
			<point x="319" y="-5"/>
			<point x="428" y="85"/>
			<point x="447" y="219" type="curve" smooth="yes"/>
			<point x="449" y="232"/>
			<point x="450" y="244"/>
			<point x="450" y="255" type="curve" smooth="yes"/>
			<point x="450" y="369"/>
			<point x="366" y="436"/>
			<point x="230" y="436" type="curve" smooth="yes"/>
			<point x="207" y="436"/>
			<point x="184" y="433"/>
			<point x="133" y="426" type="curve"/>
			<point x="159" y="605" type="line"/>
			<point x="438" y="609" type="line"/>
			<point x="445" y="653" type="line"/>
			<point x="117" y="646" type="line"/>
			<point x="79" y="373" type="line"/>
			<point x="119" y="388"/>
			<point x="165" y="393"/>
			<point x="212" y="393" type="curve" smooth="yes"/>
			<point x="324" y="393"/>
			<point x="404" y="363"/>
			<point x="404" y="263" type="curve" smooth="yes"/>
			<point x="404" y="253"/>
			<point x="404" y="242"/>
			<point x="402" y="231" type="curve" smooth="yes"/>
			<point x="387" y="124"/>
			<point x="310" y="38"/>
			<point x="188" y="38" type="curve" smooth="yes"/>
			<point x="125" y="38"/>
			<point x="82" y="60"/>
			<point x="29" y="102" type="curve"/>
			<point x="17" y="65" type="line"/>
			<point x="42" y="38"/>
			<point x="108" y="-5"/>
		</contour>
	</outline>
</glyph>
<glyph name="six" format="2">
	<advance width="538"/>
	<unicode hex="0036"/>
	<outline>
		<contour>
			<point x="239" y="-37" type="curve" smooth="yes"/>
			<point x="368" y="-37"/>
			<point x="480" y="62"/>
			<point x="497" y="186" type="curve" smooth="yes"/>
			<point x="499" y="197"/>
			<point x="499" y="208"/>
			<point x="499" y="219" type="curve" smooth="yes"/>
			<point x="499" y="329"/>
			<point x="417" y="414"/>
			<point x="302" y="414" type="curve" smooth="yes"/>
			<point x="223" y="414"/>
			<point x="139" y="376"/>
			<point x="74" y="277" type="curve"/>
			<point x="127" y="401"/>
			<point x="193" y="489"/>
			<point x="272" y="541" type="curve" smooth="yes"/>
			<point x="340" y="589"/>
			<point x="411" y="608"/>
			<point x="478" y="609" type="curve"/>
			<point x="482" y="649" type="line"/>
			<point x="373" y="647"/>
			<point x="270" y="602"/>
			<point x="188" y="526" type="curve" smooth="yes"/>
			<point x="107" y="446"/>
			<point x="52" y="342"/>
			<point x="38" y="242" type="curve" smooth="yes"/>
			<point x="36" y="224"/>
			<point x="34" y="207"/>
			<point x="34" y="191" type="curve" smooth="yes"/>
			<point x="34" y="58"/>
			<point x="112" y="-37"/>
		</contour>
		<contour>
			<point x="241" y="3" type="curve" smooth="yes"/>
			<point x="143" y="3"/>
			<point x="79" y="77"/>
			<point x="79" y="161" type="curve" smooth="yes"/>
			<point x="79" y="265"/>
			<point x="181" y="374"/>
			<point x="299" y="374" type="curve" smooth="yes"/>
			<point x="391" y="374"/>
			<point x="460" y="305"/>
			<point x="460" y="216" type="curve" smooth="yes"/>
			<point x="460" y="101"/>
			<point x="352" y="3"/>
		</contour>
	</outline>
</glyph>
<glyph name="seven" format="2">
	<advance width="452"/>
	<unicode hex="0037"/>
	<outline>
		<contour>
			<point x="85" y="1" type="line"/>
			<point x="135" y="1" type="line"/>
			<point x="484" y="653" type="line"/>
			<point x="72" y="648" type="line"/>
			<point x="66" y="605" type="line"/>
			<point x="414" y="609" type="line"/>
		</contour>
	</outline>
</glyph>
<glyph name="eight" format="2">
	<advance width="517"/>
	<unicode hex="0038"/>
	<outline>
		<contour>
			<point x="224" y="-15" type="curve" smooth="yes"/>
			<point x="352" y="-15"/>
			<point x="452" y="53"/>
			<point x="469" y="173" type="curve" smooth="yes"/>
			<point x="471" y="184"/>
			<point x="471" y="194"/>
			<point x="471" y="204" type="curve" smooth="yes"/>
			<point x="471" y="284"/>
			<point x="422" y="334"/>
			<point x="354" y="360" type="curve"/>
			<point x="406" y="385"/>
			<point x="480" y="440"/>
			<point x="480" y="529" type="curve" smooth="yes"/>
			<point x="480" y="609"/>
			<point x="411" y="666"/>
			<point x="312" y="666" type="curve" smooth="yes"/>
			<point x="209" y="666"/>
			<point x="125" y="603"/>
			<point x="111" y="508" type="curve" smooth="yes"/>
			<point x="110" y="500"/>
			<point x="109" y="493"/>
			<point x="109" y="486" type="curve" smooth="yes"/>
			<point x="109" y="438"/>
			<point x="133" y="400"/>
			<point x="182" y="375" type="curve"/>
			<point x="105" y="327"/>
			<point x="41" y="272"/>
			<point x="28" y="179" type="curve" smooth="yes"/>
			<point x="26" y="168"/>
			<point x="26" y="158"/>
			<point x="26" y="148" type="curve" smooth="yes"/>
			<point x="26" y="46"/>
			<point x="103" y="-15"/>
		</contour>
		<contour>
			<point x="226" y="26" type="curve" smooth="yes"/>
			<point x="132" y="26"/>
			<point x="75" y="75"/>
			<point x="75" y="153" type="curve" smooth="yes"/>
			<point x="75" y="161"/>
			<point x="76" y="169"/>
			<point x="77" y="178" type="curve" smooth="yes"/>
			<point x="86" y="243"/>
			<point x="122" y="282"/>
			<point x="212" y="348" type="curve"/>
			<point x="221" y="357" type="line"/>
			<point x="247" y="350" type="line" smooth="yes"/>
			<point x="339" y="323"/>
			<point x="423" y="296"/>
			<point x="423" y="205" type="curve" smooth="yes"/>
			<point x="423" y="198"/>
			<point x="422" y="190"/>
			<point x="421" y="181" type="curve" smooth="yes"/>
			<point x="408" y="89"/>
			<point x="334" y="26"/>
		</contour>
		<contour>
			<point x="317" y="377" type="curve"/>
			<point x="302" y="380" type="line"/>
			<point x="236" y="402" type="line" smooth="yes"/>
			<point x="193" y="415"/>
			<point x="159" y="439"/>
			<point x="159" y="487" type="curve" smooth="yes"/>
			<point x="159" y="563"/>
			<point x="227" y="624"/>
			<point x="313" y="624" type="curve" smooth="yes"/>
			<point x="383" y="624"/>
			<point x="430" y="582"/>
			<point x="430" y="525" type="curve" smooth="yes"/>
			<point x="430" y="452"/>
			<point x="376" y="414"/>
		</contour>
	</outline>
</glyph>
<glyph name="nine" format="1">
  <advance width="561"/>
  <unicode hex="0039"/>
  <outline>
    <contour>
      <point x="185" y="-35"/>
      <point x="286" y="11"/>
      <point x="368" y="88" type="curve" smooth="yes"/>
      <point x="442" y="161"/>
      <point x="500" y="261"/>
      <point x="515" y="368" type="curve" smooth="yes"/>
      <point x="518" y="386"/>
      <point x="519" y="404"/>
      <point x="519" y="421" type="curve" smooth="yes"/>
      <point x="519" y="554"/>
      <point x="444" y="649"/>
      <point x="316" y="649" type="curve" smooth="yes"/>
      <point x="186" y="649"/>
      <point x="74" y="549"/>
      <point x="57" y="427" type="curve" smooth="yes"/>
      <point x="55" y="416"/>
      <point x="55" y="406"/>
      <point x="55" y="395" type="curve" smooth="yes"/>
      <point x="55" y="286"/>
      <point x="138" y="198"/>
      <point x="247" y="198" type="curve" smooth="yes"/>
      <point x="300" y="198"/>
      <point x="353" y="218"/>
      <point x="405" y="255" type="curve" smooth="yes"/>
      <point x="421" y="268"/>
      <point x="442" y="285"/>
      <point x="469" y="314" type="curve"/>
      <point x="433" y="228"/>
      <point x="374" y="138"/>
      <point x="288" y="78" type="curve" smooth="yes"/>
      <point x="220" y="29"/>
      <point x="146" y="5"/>
      <point x="75" y="3" type="curve"/>
      <point x="71" y="-37" type="line"/>
    </contour>
    <contour>
      <point x="159" y="238"/>
      <point x="94" y="310"/>
      <point x="94" y="398" type="curve" smooth="yes"/>
      <point x="94" y="407"/>
      <point x="95" y="415"/>
      <point x="96" y="424" type="curve" smooth="yes"/>
      <point x="112" y="532"/>
      <point x="213" y="609"/>
      <point x="311" y="609" type="curve" smooth="yes"/>
      <point x="404" y="609"/>
      <point x="475" y="541"/>
      <point x="475" y="453" type="curve" smooth="yes"/>
      <point x="475" y="347"/>
      <point x="373" y="238"/>
      <point x="254" y="238" type="curve" smooth="yes"/>
    </contour>
  </outline>
</glyph>
<glyph name="less" format="1">
  <advance width="377"/>
  <unicode hex="003C"/>
  <outline>
    <contour>
      <point x="280" y="124" type="line"/>
      <point x="96" y="266" type="line"/>
      <point x="318" y="407" type="line"/>
      <point x="299" y="443" type="line"/>
      <point x="17" y="264" type="line"/>
      <point x="249" y="86" type="line"/>
    </contour>
  </outline>
</glyph>
<glyph name="equal" format="1">
  <advance width="540"/>
  <unicode hex="003D"/>
  <outline>
    <contour>
      <point x="457" y="355" type="line"/>
      <point x="462" y="394" type="line"/>
      <point x="117" y="394" type="line"/>
      <point x="112" y="355" type="line"/>
    </contour>
    <contour>
      <point x="434" y="192" type="line"/>
      <point x="439" y="231" type="line"/>
      <point x="94" y="231" type="line"/>
      <point x="89" y="192" type="line"/>
    </contour>
  </outline>
</glyph>
<glyph name="greater" format="1">
  <advance width="382"/>
  <unicode hex="003E"/>
  <outline>
    <contour>
      <point x="341" y="264" type="line"/>
      <point x="109" y="443" type="line"/>
      <point x="78" y="405" type="line"/>
      <point x="262" y="262" type="line"/>
      <point x="40" y="122" type="line"/>
      <point x="59" y="86" type="line"/>
    </contour>
  </outline>
</glyph>
<glyph name="question" format="1">
  <advance width="452"/>
  <unicode hex="003F"/>
  <outline>
    <contour>
      <point x="149" y="152" type="line"/>
      <point x="149" y="164"/>
      <point x="149" y="176"/>
      <point x="150" y="187" type="curve" smooth="yes"/>
      <point x="153" y="207"/>
      <point x="162" y="227"/>
      <point x="180" y="245" type="curve" smooth="yes"/>
      <point x="208" y="276"/>
      <point x="239" y="290"/>
      <point x="297" y="321" type="curve" smooth="yes"/>
      <point x="337" y="346"/>
      <point x="381" y="372"/>
      <point x="410" y="421" type="curve" smooth="yes"/>
      <point x="426" y="447"/>
      <point x="435" y="476"/>
      <point x="439" y="504" type="curve" smooth="yes"/>
      <point x="440" y="515"/>
      <point x="441" y="526"/>
      <point x="441" y="537" type="curve" smooth="yes"/>
      <point x="441" y="554"/>
      <point x="439" y="571"/>
      <point x="434" y="586" type="curve" smooth="yes"/>
      <point x="414" y="660"/>
      <point x="343" y="704"/>
      <point x="266" y="704" type="curve" smooth="yes"/>
      <point x="247" y="704"/>
      <point x="223" y="701"/>
      <point x="203" y="696" type="curve" smooth="yes"/>
      <point x="138" y="680"/>
      <point x="72" y="636"/>
      <point x="72" y="566" type="curve" smooth="yes"/>
      <point x="72" y="531"/>
      <point x="95" y="506"/>
      <point x="146" y="506" type="curve" smooth="yes"/>
      <point x="150" y="506" type="line"/>
      <point x="145" y="546" type="line"/>
      <point x="133" y="547"/>
      <point x="111" y="550"/>
      <point x="111" y="574" type="curve" smooth="yes"/>
      <point x="111" y="627"/>
      <point x="203" y="664"/>
      <point x="263" y="664" type="curve" smooth="yes"/>
      <point x="327" y="664"/>
      <point x="379" y="626"/>
      <point x="396" y="574" type="curve" smooth="yes"/>
      <point x="401" y="560"/>
      <point x="402" y="546"/>
      <point x="402" y="533" type="curve" smooth="yes"/>
      <point x="402" y="498"/>
      <point x="389" y="461"/>
      <point x="368" y="434" type="curve" smooth="yes"/>
      <point x="344" y="397"/>
      <point x="308" y="371"/>
      <point x="249" y="343" type="curve" smooth="yes"/>
      <point x="211" y="322"/>
      <point x="166" y="299"/>
      <point x="137" y="261" type="curve" smooth="yes"/>
      <point x="119" y="235"/>
      <point x="115" y="212"/>
      <point x="112" y="191" type="curve" smooth="yes"/>
      <point x="109" y="174"/>
      <point x="108" y="160"/>
      <point x="109" y="145" type="curve"/>
    </contour>
    <contour>
      <point x="155" y="6"/>
      <point x="174" y="27"/>
      <point x="174" y="53" type="curve" smooth="yes"/>
      <point x="174" y="74"/>
      <point x="158" y="89"/>
      <point x="136" y="89" type="curve" smooth="yes"/>
      <point x="112" y="89"/>
      <point x="91" y="67"/>
      <point x="91" y="42" type="curve" smooth="yes"/>
      <point x="91" y="21"/>
      <point x="107" y="6"/>
      <point x="129" y="6" type="curve" smooth="yes"/>
    </contour>
  </outline>
</glyph>
<glyph name="at" format="1">
  <advance width="697"/>
  <unicode hex="0040"/>
  <outline>
    <contour>
      <point x="346" y="-60"/>
      <point x="424" y="-52"/>
      <point x="503" y="-17" type="curve"/>
      <point x="496" y="16" type="line"/>
      <point x="446" y="-9"/>
      <point x="372" y="-25"/>
      <point x="306" y="-25" type="curve" smooth="yes"/>
      <point x="157" y="-25"/>
      <point x="74" y="54"/>
      <point x="74" y="184" type="curve" smooth="yes"/>
      <point x="74" y="200"/>
      <point x="75" y="217"/>
      <point x="78" y="234" type="curve" smooth="yes"/>
      <point x="100" y="395"/>
      <point x="217" y="512"/>
      <point x="376" y="512" type="curve" smooth="yes"/>
      <point x="510" y="512"/>
      <point x="596" y="427"/>
      <point x="596" y="306" type="curve" smooth="yes"/>
      <point x="596" y="293"/>
      <point x="595" y="280"/>
      <point x="593" y="267" type="curve" smooth="yes"/>
      <point x="582" y="183"/>
      <point x="537" y="121"/>
      <point x="477" y="121" type="curve" smooth="yes"/>
      <point x="440" y="121"/>
      <point x="417" y="146"/>
      <point x="417" y="190" type="curve"/>
      <point x="446" y="396" type="line"/>
      <point x="408" y="396" type="line"/>
      <point x="373" y="398" type="line"/>
      <point x="365" y="399"/>
      <point x="353" y="401"/>
      <point x="340" y="401" type="curve" smooth="yes"/>
      <point x="273" y="401"/>
      <point x="185" y="344"/>
      <point x="185" y="227" type="curve" smooth="yes"/>
      <point x="185" y="156"/>
      <point x="226" y="104"/>
      <point x="289" y="104" type="curve" smooth="yes"/>
      <point x="327" y="104"/>
      <point x="363" y="123"/>
      <point x="391" y="160" type="curve"/>
      <point x="394" y="112"/>
      <point x="426" y="90"/>
      <point x="476" y="90" type="curve" smooth="yes"/>
      <point x="564" y="90"/>
      <point x="618" y="159"/>
      <point x="632" y="260" type="curve" smooth="yes"/>
      <point x="634" y="276"/>
      <point x="635" y="291"/>
      <point x="635" y="305" type="curve" smooth="yes"/>
      <point x="635" y="445"/>
      <point x="538" y="546"/>
      <point x="377" y="546" type="curve" smooth="yes"/>
      <point x="196" y="546"/>
      <point x="63" y="418"/>
      <point x="37" y="236" type="curve" smooth="yes"/>
      <point x="34" y="217"/>
      <point x="33" y="199"/>
      <point x="33" y="181" type="curve" smooth="yes"/>
      <point x="33" y="24"/>
      <point x="140" y="-60"/>
      <point x="298" y="-60" type="curve" smooth="yes"/>
    </contour>
    <contour>
      <point x="236" y="141"/>
      <point x="222" y="191"/>
      <point x="222" y="232" type="curve" smooth="yes"/>
      <point x="222" y="305"/>
      <point x="272" y="364"/>
      <point x="340" y="364" type="curve" smooth="yes"/>
      <point x="404" y="364" type="line"/>
      <point x="382" y="210" type="line"/>
      <point x="373" y="196" type="line" smooth="yes"/>
      <point x="360" y="175"/>
      <point x="333" y="141"/>
      <point x="288" y="141" type="curve" smooth="yes"/>
    </contour>
  </outline>
</glyph>
<glyph name="A" format="2">
	<advance width="737"/>
	<unicode hex="0041"/>
	<anchor x="689" y="-6" name="ogonek"/>
	<anchor x="378" y="-6" name="bottom"/>
	<anchor x="476" y="694" name="top"/>
	<outline>
		<contour>
			<point x="71" y="-3" type="curve" smooth="yes"/>
			<point x="103" y="-3"/>
			<point x="136" y="13"/>
			<point x="153" y="47" type="curve" smooth="yes"/>
			<point x="256" y="233" type="line"/>
			<point x="567" y="233" type="line"/>
			<point x="631" y="1" type="line"/>
			<point x="680" y="1" type="line"/>
			<point x="480" y="687" type="line"/>
			<point x="470" y="687" type="line"/>
			<point x="116" y="69" type="line"/>
			<point x="109" y="55"/>
			<point x="93" y="43"/>
			<point x="74" y="43" type="curve" smooth="yes"/>
			<point x="56" y="43"/>
			<point x="44" y="54"/>
			<point x="40" y="68" type="curve"/>
			<point x="-5" y="62" type="line"/>
			<point x="-1" y="23"/>
			<point x="31" y="-3"/>
		</contour>
		<contour>
			<point x="281" y="277" type="line"/>
			<point x="440" y="560" type="line"/>
			<point x="439" y="559" type="line"/>
			<point x="464" y="614" type="line"/>
			<point x="474" y="559" type="line"/>
			<point x="475" y="560" type="line"/>
			<point x="554" y="277" type="line"/>
		</contour>
	</outline>
</glyph>
<glyph name="B" format="1">
  <advance width="638"/>
  <unicode hex="0042"/>
  <outline>
    <contour>
      <point x="427" y="-9"/>
      <point x="538" y="45"/>
      <point x="557" y="178" type="curve" smooth="yes"/>
      <point x="559" y="189"/>
      <point x="559" y="200"/>
      <point x="559" y="210" type="curve" smooth="yes"/>
      <point x="559" y="274"/>
      <point x="530" y="321"/>
      <point x="478" y="352" type="curve"/>
      <point x="428" y="370" type="line"/>
      <point x="472" y="381"/>
      <point x="479" y="384"/>
      <point x="483" y="385" type="curve"/>
      <point x="537" y="412"/>
      <point x="576" y="470"/>
      <point x="576" y="544" type="curve" smooth="yes"/>
      <point x="576" y="636"/>
      <point x="504" y="696"/>
      <point x="399" y="696" type="curve" smooth="yes"/>
      <point x="172" y="696" type="line" smooth="yes"/>
      <point x="144" y="696"/>
      <point x="121" y="686"/>
      <point x="98" y="667" type="curve" smooth="yes"/>
      <point x="79" y="649"/>
      <point x="67" y="629"/>
      <point x="63" y="604" type="curve"/>
      <point x="105" y="602" type="line"/>
      <point x="109" y="613"/>
      <point x="117" y="627"/>
      <point x="129" y="636" type="curve" smooth="yes"/>
      <point x="141" y="648"/>
      <point x="159" y="654"/>
      <point x="197" y="653" type="curve"/>
      <point x="104" y="1" type="line"/>
      <point x="152" y="-4" type="line" smooth="yes"/>
      <point x="193" y="-8"/>
      <point x="250" y="-9"/>
      <point x="271" y="-9" type="curve" smooth="yes"/>
    </contour>
    <contour>
      <point x="256" y="33"/>
      <point x="253" y="34"/>
      <point x="156" y="38" type="curve"/>
      <point x="244" y="653" type="line"/>
      <point x="409" y="653" type="line"/>
      <point x="479" y="649"/>
      <point x="529" y="613"/>
      <point x="529" y="544" type="curve" smooth="yes"/>
      <point x="529" y="491"/>
      <point x="506" y="449"/>
      <point x="468" y="422" type="curve" smooth="yes"/>
      <point x="440" y="399"/>
      <point x="398" y="385"/>
      <point x="354" y="385" type="curve" smooth="yes"/>
      <point x="272" y="385" type="line"/>
      <point x="266" y="343" type="line"/>
      <point x="357" y="343" type="line" smooth="yes"/>
      <point x="445" y="343"/>
      <point x="514" y="294"/>
      <point x="514" y="207" type="curve" smooth="yes"/>
      <point x="514" y="200"/>
      <point x="513" y="191"/>
      <point x="512" y="183" type="curve" smooth="yes"/>
      <point x="496" y="73"/>
      <point x="402" y="33"/>
      <point x="277" y="33" type="curve" smooth="yes"/>
    </contour>
  </outline>
</glyph>
<glyph name="C" format="1">
  <advance width="688"/>
  <unicode hex="0043"/>
  <outline>
    <contour>
      <point x="454" y="-21"/>
      <point x="565" y="23"/>
      <point x="645" y="118" type="curve"/>
      <point x="613" y="143" type="line"/>
      <point x="549" y="68"/>
      <point x="451" y="20"/>
      <point x="353" y="20" type="curve" smooth="yes"/>
      <point x="195" y="20"/>
      <point x="88" y="140"/>
      <point x="88" y="290" type="curve" smooth="yes"/>
      <point x="88" y="304"/>
      <point x="89" y="320"/>
      <point x="91" y="335" type="curve" smooth="yes"/>
      <point x="116" y="512"/>
      <point x="280" y="669"/>
      <point x="454" y="669" type="curve" smooth="yes"/>
      <point x="506" y="669"/>
      <point x="578" y="655"/>
      <point x="612" y="615" type="curve" smooth="yes"/>
      <point x="621" y="602"/>
      <point x="625" y="589"/>
      <point x="625" y="575" type="curve" smooth="yes"/>
      <point x="625" y="546"/>
      <point x="602" y="518"/>
      <point x="576" y="518" type="curve" smooth="yes"/>
      <point x="569" y="518"/>
      <point x="562" y="521"/>
      <point x="556" y="524" type="curve"/>
      <point x="527" y="492" type="line"/>
      <point x="540" y="483"/>
      <point x="555" y="477"/>
      <point x="573" y="477" type="curve" smooth="yes"/>
      <point x="623" y="477"/>
      <point x="665" y="522"/>
      <point x="665" y="578" type="curve" smooth="yes"/>
      <point x="665" y="595"/>
      <point x="661" y="611"/>
      <point x="652" y="626" type="curve" smooth="yes"/>
      <point x="622" y="688"/>
      <point x="525" y="711"/>
      <point x="455" y="711" type="curve" smooth="yes"/>
      <point x="262" y="711"/>
      <point x="79" y="541"/>
      <point x="51" y="339" type="curve" smooth="yes"/>
      <point x="48" y="321"/>
      <point x="47" y="303"/>
      <point x="47" y="285" type="curve" smooth="yes"/>
      <point x="47" y="113"/>
      <point x="169" y="-21"/>
      <point x="350" y="-21" type="curve" smooth="yes"/>
    </contour>
    <contour>
      <point x="434" y="721" type="move" name="top"/>
    </contour>
    <contour>
      <point x="329" y="-27" type="move" name="bottom"/>
    </contour>
  </outline>
</glyph>
<glyph name="D" format="2">
	<advance width="777"/>
	<unicode hex="0044"/>
	<anchor x="196" y="341" name="center"/>
	<anchor x="366" y="0" name="bottom"/>
	<anchor x="463" y="692" name="top"/>
	<outline>
		<contour>
			<point x="262" y="-8" type="curve" smooth="yes"/>
			<point x="548" y="-8"/>
			<point x="710" y="92"/>
			<point x="743" y="328" type="curve" smooth="yes"/>
			<point x="746" y="353"/>
			<point x="748" y="376"/>
			<point x="748" y="399" type="curve" smooth="yes"/>
			<point x="748" y="569"/>
			<point x="649" y="675"/>
			<point x="476" y="690" type="curve"/>
			<point x="171" y="691" type="line" smooth="yes"/>
			<point x="143" y="691"/>
			<point x="118" y="680"/>
			<point x="97" y="663" type="curve" smooth="yes"/>
			<point x="75" y="643"/>
			<point x="65" y="622"/>
			<point x="61" y="599" type="curve"/>
			<point x="104" y="597" type="line"/>
			<point x="106" y="605"/>
			<point x="112" y="618"/>
			<point x="125" y="627" type="curve"/>
			<point x="141" y="644"/>
			<point x="170" y="649"/>
			<point x="196" y="648" type="curve"/>
			<point x="104" y="0" type="line"/>
			<point x="118" y="-2" type="line"/>
			<point x="117" y="-2" type="line"/>
			<point x="145" y="-4" type="line" smooth="yes"/>
			<point x="156" y="-5"/>
			<point x="211" y="-8"/>
		</contour>
		<contour>
			<point x="336" y="33" type="curve" smooth="yes"/>
			<point x="302" y="33"/>
			<point x="188" y="37"/>
			<point x="163" y="38" type="curve"/>
			<point x="158" y="45" type="line"/>
			<point x="243" y="648" type="line"/>
			<point x="462" y="648" type="line"/>
			<point x="613" y="640"/>
			<point x="702" y="545"/>
			<point x="702" y="397" type="curve" smooth="yes"/>
			<point x="702" y="379"/>
			<point x="701" y="360"/>
			<point x="698" y="341" type="curve" smooth="yes"/>
			<point x="670" y="144"/>
			<point x="525" y="33"/>
		</contour>
	</outline>
</glyph>
<glyph name="E" format="1">
  <advance width="608"/>
  <unicode hex="0045"/>
  <outline>
    <contour>
      <point x="537" y="1" type="line"/>
      <point x="543" y="45" type="line"/>
      <point x="149" y="45" type="line"/>
      <point x="191" y="341" type="line"/>
      <point x="463" y="341" type="line"/>
      <point x="469" y="385" type="line"/>
      <point x="197" y="385" type="line"/>
      <point x="233" y="642" type="line"/>
      <point x="627" y="642" type="line"/>
      <point x="633" y="685" type="line"/>
      <point x="169" y="685" type="line" smooth="yes"/>
      <point x="141" y="685"/>
      <point x="118" y="674"/>
      <point x="95" y="656" type="curve" smooth="yes"/>
      <point x="77" y="638"/>
      <point x="65" y="618"/>
      <point x="60" y="593" type="curve"/>
      <point x="103" y="591" type="line"/>
      <point x="107" y="603"/>
      <point x="116" y="617"/>
      <point x="125" y="623" type="curve"/>
      <point x="138" y="636"/>
      <point x="153" y="642"/>
      <point x="186" y="642" type="curve"/>
      <point x="95" y="1" type="line"/>
    </contour>
    <contour>
      <point x="537" y="1" type="move" name="ogonek"/>
    </contour>
    <contour>
      <point x="408" y="692" type="move" name="top"/>
    </contour>
    <contour>
      <point x="81" y="684" type="move" name="topleft"/>
    </contour>
    <contour>
      <point x="321" y="-6" type="move" name="bottom"/>
    </contour>
  </outline>
</glyph>
<glyph name="F" format="1">
  <advance width="597"/>
  <unicode hex="0046"/>
  <outline>
    <contour>
      <point x="143" y="0" type="line"/>
      <point x="191" y="340" type="line"/>
      <point x="463" y="340" type="line"/>
      <point x="469" y="384" type="line"/>
      <point x="197" y="384" type="line"/>
      <point x="233" y="641" type="line"/>
      <point x="627" y="641" type="line"/>
      <point x="633" y="684" type="line"/>
      <point x="169" y="684" type="line" smooth="yes"/>
      <point x="141" y="684"/>
      <point x="119" y="674"/>
      <point x="95" y="655" type="curve" smooth="yes"/>
      <point x="76" y="637"/>
      <point x="65" y="617"/>
      <point x="60" y="592" type="curve"/>
      <point x="103" y="590" type="line"/>
      <point x="106" y="602"/>
      <point x="115" y="616"/>
      <point x="125" y="622" type="curve"/>
      <point x="138" y="635"/>
      <point x="153" y="641"/>
      <point x="186" y="641" type="curve"/>
      <point x="95" y="0" type="line"/>
    </contour>
    <contour>
      <point x="361" y="684" type="move" name="top"/>
    </contour>
    <contour>
      <point x="265" y="0" type="move" name="bottom"/>
    </contour>
  </outline>
</glyph>
<glyph name="G" format="1">
  <advance width="746"/>
  <unicode hex="0047"/>
  <outline>
    <contour>
      <point x="545" y="-275"/>
      <point x="595" y="-248"/>
      <point x="603" y="-189" type="curve" smooth="yes"/>
      <point x="671" y="296" type="line"/>
      <point x="627" y="296" type="line"/>
      <point x="617" y="222" type="line"/>
      <point x="585" y="105"/>
      <point x="475" y="10"/>
      <point x="343" y="10" type="curve" smooth="yes"/>
      <point x="194" y="10"/>
      <point x="87" y="131"/>
      <point x="87" y="281" type="curve" smooth="yes"/>
      <point x="87" y="296"/>
      <point x="88" y="312"/>
      <point x="90" y="327" type="curve" smooth="yes"/>
      <point x="115" y="503"/>
      <point x="278" y="661"/>
      <point x="449" y="661" type="curve" smooth="yes"/>
      <point x="509" y="661"/>
      <point x="619" y="640"/>
      <point x="619" y="574" type="curve" smooth="yes"/>
      <point x="619" y="544"/>
      <point x="596" y="514"/>
      <point x="569" y="514" type="curve" smooth="yes"/>
      <point x="564" y="514"/>
      <point x="557" y="516"/>
      <point x="551" y="519" type="curve"/>
      <point x="522" y="487" type="line"/>
      <point x="535" y="478"/>
      <point x="549" y="473"/>
      <point x="566" y="473" type="curve" smooth="yes"/>
      <point x="618" y="473"/>
      <point x="660" y="515"/>
      <point x="660" y="577" type="curve" smooth="yes"/>
      <point x="660" y="671"/>
      <point x="532" y="703"/>
      <point x="450" y="703" type="curve" smooth="yes"/>
      <point x="263" y="703"/>
      <point x="78" y="532"/>
      <point x="50" y="332" type="curve" smooth="yes"/>
      <point x="47" y="314"/>
      <point x="46" y="296"/>
      <point x="46" y="278" type="curve" smooth="yes"/>
      <point x="46" y="109"/>
      <point x="165" y="-31"/>
      <point x="342" y="-31" type="curve" smooth="yes"/>
      <point x="438" y="-31"/>
      <point x="531" y="11"/>
      <point x="601" y="99" type="curve"/>
      <point x="560" y="-187" type="line"/>
      <point x="555" y="-206"/>
      <point x="537" y="-229"/>
      <point x="509" y="-229" type="curve" smooth="yes"/>
      <point x="497" y="-229"/>
      <point x="487" y="-225"/>
      <point x="481" y="-218" type="curve"/>
      <point x="442" y="-241" type="line"/>
      <point x="455" y="-262"/>
      <point x="476" y="-275"/>
      <point x="505" y="-275" type="curve" smooth="yes"/>
    </contour>
    <contour>
      <point x="447" y="707" type="move" name="top"/>
    </contour>
    <contour>
      <point x="339" y="-35" type="move" name="bottom"/>
    </contour>
  </outline>
</glyph>
<glyph name="H" format="1">
  <advance width="694"/>
  <unicode hex="0048"/>
  <outline>
    <contour>
      <point x="137" y="1" type="line"/>
      <point x="184" y="335" type="line"/>
      <point x="574" y="335" type="line"/>
      <point x="527" y="1" type="line"/>
      <point x="575" y="1" type="line"/>
      <point x="671" y="685" type="line"/>
      <point x="623" y="685" type="line"/>
      <point x="580" y="379" type="line"/>
      <point x="190" y="379" type="line"/>
      <point x="221" y="601" type="line" smooth="yes"/>
      <point x="222" y="606"/>
      <point x="222" y="610"/>
      <point x="222" y="615" type="curve" smooth="yes"/>
      <point x="222" y="661"/>
      <point x="186" y="690"/>
      <point x="143" y="690" type="curve" smooth="yes"/>
      <point x="115" y="690"/>
      <point x="91" y="679"/>
      <point x="70" y="658" type="curve"/>
      <point x="110" y="628" type="line"/>
      <point x="119" y="637"/>
      <point x="131" y="641"/>
      <point x="141" y="641" type="curve" smooth="yes"/>
      <point x="161" y="641"/>
      <point x="176" y="624"/>
      <point x="173" y="603" type="curve" smooth="yes"/>
      <point x="88" y="1" type="line"/>
    </contour>
    <contour>
      <point x="393" y="356" type="move" name="center"/>
    </contour>
    <contour>
      <point x="438" y="692" type="move" name="top"/>
    </contour>
  </outline>
</glyph>
<glyph name="I" format="1">
  <advance width="188"/>
  <unicode hex="0049"/>
  <outline>
    <contour>
      <point x="65" y="1" type="line"/>
      <point x="161" y="685" type="line"/>
      <point x="113" y="685" type="line"/>
      <point x="17" y="1" type="line"/>
    </contour>
    <contour>
      <point x="76" y="-6" type="move" name="ogonek"/>
    </contour>
    <contour>
      <point x="41" y="-7" type="move" name="bottom"/>
    </contour>
    <contour>
      <point x="136" y="692" type="move" name="top"/>
    </contour>
  </outline>
</glyph>
<glyph name="J" format="1">
  <advance width="457"/>
  <unicode hex="004A"/>
  <outline>
    <contour>
      <point x="292" y="-3"/>
      <point x="356" y="89"/>
      <point x="370" y="188" type="curve" smooth="yes"/>
      <point x="441" y="688" type="line"/>
      <point x="393" y="689" type="line"/>
      <point x="388" y="684"/>
      <point x="380" y="679"/>
      <point x="372" y="675" type="curve"/>
      <point x="356" y="666"/>
      <point x="344" y="660"/>
      <point x="330" y="660" type="curve" smooth="yes"/>
      <point x="315" y="660"/>
      <point x="298" y="665"/>
      <point x="275" y="674" type="curve"/>
      <point x="213" y="695"/>
      <point x="205" y="697"/>
      <point x="189" y="697" type="curve" smooth="yes"/>
      <point x="165" y="697"/>
      <point x="147" y="692"/>
      <point x="89" y="671" type="curve"/>
      <point x="106" y="631" type="line"/>
      <point x="130" y="640"/>
      <point x="159" y="654"/>
      <point x="187" y="654" type="curve" smooth="yes"/>
      <point x="221" y="654"/>
      <point x="245" y="632"/>
      <point x="280" y="623" type="curve" smooth="yes"/>
      <point x="290" y="620"/>
      <point x="307" y="617"/>
      <point x="326" y="617" type="curve" smooth="yes"/>
      <point x="348" y="617"/>
      <point x="371" y="621"/>
      <point x="390" y="637" type="curve"/>
      <point x="327" y="193" type="line" smooth="yes"/>
      <point x="318" y="126"/>
      <point x="276" y="41"/>
      <point x="171" y="41" type="curve" smooth="yes"/>
      <point x="99" y="41"/>
      <point x="58" y="83"/>
      <point x="58" y="147" type="curve" smooth="yes"/>
      <point x="58" y="152"/>
      <point x="58" y="158"/>
      <point x="59" y="164" type="curve"/>
      <point x="16" y="170" type="line"/>
      <point x="15" y="162"/>
      <point x="15" y="154"/>
      <point x="15" y="146" type="curve" smooth="yes"/>
      <point x="15" y="68"/>
      <point x="53" y="-3"/>
      <point x="165" y="-3" type="curve" smooth="yes"/>
    </contour>
    <contour>
      <point x="282" y="690" type="move" name="top"/>
    </contour>
  </outline>
</glyph>
<glyph name="K" format="1">
  <advance width="636"/>
  <unicode hex="004B"/>
  <outline>
    <contour>
      <point x="509" y="-7"/>
      <point x="557" y="16"/>
      <point x="569" y="71" type="curve"/>
      <point x="524" y="73" type="line"/>
      <point x="518" y="53"/>
      <point x="498" y="37"/>
      <point x="476" y="37" type="curve" smooth="yes"/>
      <point x="462" y="37"/>
      <point x="451" y="44"/>
      <point x="445" y="54" type="curve" smooth="yes"/>
      <point x="281" y="348" type="line"/>
      <point x="304" y="365"/>
      <point x="320" y="379"/>
      <point x="350" y="412" type="curve" smooth="yes"/>
      <point x="369" y="436"/>
      <point x="395" y="474"/>
      <point x="414" y="498" type="curve" smooth="yes"/>
      <point x="440" y="538"/>
      <point x="453" y="555"/>
      <point x="539" y="684" type="curve"/>
      <point x="478" y="686" type="line"/>
      <point x="430" y="609"/>
      <point x="404" y="567"/>
      <point x="379" y="532" type="curve" smooth="yes"/>
      <point x="356" y="496"/>
      <point x="322" y="453"/>
      <point x="292" y="424" type="curve" smooth="yes"/>
      <point x="278" y="407"/>
      <point x="265" y="393"/>
      <point x="236" y="381" type="curve" smooth="yes"/>
      <point x="221" y="374"/>
      <point x="199" y="367"/>
      <point x="166" y="366" type="curve" smooth="yes"/>
      <point x="116" y="365" type="line"/>
      <point x="161" y="685" type="line"/>
      <point x="113" y="685" type="line"/>
      <point x="17" y="2" type="line"/>
      <point x="67" y="2" type="line"/>
      <point x="113" y="321" type="line"/>
      <point x="128" y="321"/>
      <point x="140" y="320"/>
      <point x="152" y="320" type="curve" smooth="yes"/>
      <point x="189" y="320"/>
      <point x="204" y="324"/>
      <point x="236" y="333" type="curve"/>
      <point x="407" y="31" type="line" smooth="yes"/>
      <point x="421" y="7"/>
      <point x="444" y="-7"/>
      <point x="472" y="-7" type="curve" smooth="yes"/>
    </contour>
    <contour>
      <point x="380" y="692" type="move" name="top"/>
    </contour>
    <contour>
      <point x="282" y="-6" type="move" name="bottom"/>
    </contour>
  </outline>
</glyph>
<glyph name="L" format="1">
  <advance width="502"/>
  <unicode hex="004C"/>
  <outline>
    <contour>
      <point x="399" y="1" type="line"/>
      <point x="405" y="45" type="line"/>
      <point x="71" y="45" type="line"/>
      <point x="161" y="685" type="line"/>
      <point x="113" y="685" type="line"/>
      <point x="17" y="1" type="line"/>
    </contour>
    <contour>
      <point x="313" y="692" type="move" name="top"/>
    </contour>
    <contour>
      <point x="215" y="-6" type="move" name="bottom"/>
    </contour>
  </outline>
</glyph>
<glyph name="M" format="2">
	<advance width="979"/>
	<unicode hex="004D"/>
	<anchor x="593" y="684" name="top"/>
	<anchor x="497" y="0" name="bottom"/>
	<outline>
		<contour>
			<point x="62" y="-6" type="curve" smooth="yes"/>
			<point x="102" y="-6"/>
			<point x="136" y="22"/>
			<point x="149" y="60" type="curve" smooth="yes"/>
			<point x="323" y="568" type="line"/>
			<point x="344" y="641" type="line"/>
			<point x="354" y="568" type="line"/>
			<point x="354" y="569" type="line"/>
			<point x="478" y="1" type="line"/>
			<point x="528" y="1" type="line"/>
			<point x="814" y="570" type="line"/>
			<point x="813" y="569" type="line"/>
			<point x="843" y="640" type="line"/>
			<point x="845" y="569" type="line"/>
			<point x="879" y="1" type="line"/>
			<point x="922" y="1" type="line"/>
			<point x="878" y="685" type="line"/>
			<point x="831" y="685" type="line"/>
			<point x="537" y="107" type="line"/>
			<point x="510" y="43" type="line"/>
			<point x="501" y="107" type="line"/>
			<point x="370" y="685" type="line"/>
			<point x="321" y="685" type="line"/>
			<point x="107" y="65" type="line"/>
			<point x="106" y="65" type="line"/>
			<point x="98" y="48"/>
			<point x="81" y="37"/>
			<point x="64" y="37" type="curve" smooth="yes"/>
			<point x="48" y="37"/>
			<point x="39" y="44"/>
			<point x="34" y="55" type="curve"/>
			<point x="-8" y="40" type="line"/>
			<point x="3" y="14"/>
			<point x="27" y="-6"/>
		</contour>
	</outline>
</glyph>
<glyph name="N" format="1">
  <advance width="776"/>
  <unicode hex="004E"/>
  <outline>
    <contour>
      <point x="98" y="-3"/>
      <point x="154" y="23"/>
      <point x="162" y="80" type="curve" smooth="yes"/>
      <point x="233" y="614" type="line"/>
      <point x="254" y="572" type="line"/>
      <point x="254" y="573" type="line"/>
      <point x="652" y="1" type="line"/>
      <point x="660" y="1" type="line"/>
      <point x="756" y="684" type="line"/>
      <point x="710" y="684" type="line"/>
      <point x="631" y="101" type="line"/>
      <point x="610" y="144" type="line"/>
      <point x="610" y="143" type="line"/>
      <point x="322" y="560" type="line"/>
      <point x="228" y="685" type="line"/>
      <point x="200" y="685" type="line"/>
      <point x="115" y="82" type="line" smooth="yes"/>
      <point x="112" y="63"/>
      <point x="91" y="40"/>
      <point x="65" y="40" type="curve" smooth="yes"/>
      <point x="48" y="40"/>
      <point x="31" y="52"/>
      <point x="30" y="74" type="curve"/>
      <point x="-12" y="76" type="line"/>
      <point x="-16" y="31"/>
      <point x="17" y="-3"/>
      <point x="60" y="-3" type="curve" smooth="yes"/>
    </contour>
    <contour>
      <point x="480" y="692" type="move" name="top"/>
    </contour>
    <contour>
      <point x="383" y="-6" type="move" name="bottom"/>
    </contour>
  </outline>
</glyph>
<glyph name="O" format="2">
	<advance width="781"/>
	<unicode hex="004F"/>
	<anchor x="350" y="-34" name="bottom"/>
	<anchor x="609" y="78" name="ogonek"/>
	<anchor x="416" y="342" name="center"/>
	<anchor x="734" y="534" name="horn"/>
	<anchor x="449" y="707" name="top"/>
	<anchor x="705" y="527" name="topright"/>
	<anchor x="81" y="684" name="topleft"/>
	<outline>
		<contour>
			<point x="354" y="-26" type="curve" smooth="yes"/>
			<point x="550" y="-26"/>
			<point x="720" y="127"/>
			<point x="751" y="349" type="curve" smooth="yes"/>
			<point x="753" y="366"/>
			<point x="754" y="383"/>
			<point x="754" y="399" type="curve" smooth="yes"/>
			<point x="754" y="570"/>
			<point x="629" y="707"/>
			<point x="449" y="707" type="curve" smooth="yes"/>
			<point x="252" y="707"/>
			<point x="79" y="543"/>
			<point x="52" y="351" type="curve" smooth="yes"/>
			<point x="50" y="332" type="line" smooth="yes"/>
			<point x="26" y="130"/>
			<point x="157" y="-26"/>
		</contour>
		<contour>
			<point x="353" y="13" type="curve" smooth="yes"/>
			<point x="187" y="13"/>
			<point x="69" y="157"/>
			<point x="92" y="330" type="curve" smooth="yes"/>
			<point x="95" y="349" type="line" smooth="yes"/>
			<point x="118" y="515"/>
			<point x="273" y="667"/>
			<point x="446" y="667" type="curve" smooth="yes"/>
			<point x="595" y="667"/>
			<point x="711" y="550"/>
			<point x="711" y="396" type="curve" smooth="yes"/>
			<point x="711" y="381"/>
			<point x="710" y="366"/>
			<point x="708" y="351" type="curve" smooth="yes"/>
			<point x="680" y="156"/>
			<point x="527" y="13"/>
		</contour>
	</outline>
</glyph>
<glyph name="P" format="1">
  <advance width="578"/>
  <unicode hex="0050"/>
  <outline>
    <contour>
      <point x="161" y="0" type="line"/>
      <point x="251" y="642" type="line"/>
      <point x="394" y="642" type="line" smooth="yes"/>
      <point x="475" y="639"/>
      <point x="530" y="600"/>
      <point x="530" y="511" type="curve" smooth="yes"/>
      <point x="530" y="500"/>
      <point x="529" y="489"/>
      <point x="527" y="476" type="curve" smooth="yes"/>
      <point x="509" y="353"/>
      <point x="427" y="307"/>
      <point x="323" y="307" type="curve" smooth="yes"/>
      <point x="310" y="307"/>
      <point x="287" y="308"/>
      <point x="259" y="310" type="curve"/>
      <point x="256" y="268" type="line"/>
      <point x="282" y="265"/>
      <point x="307" y="263"/>
      <point x="326" y="263" type="curve" smooth="yes"/>
      <point x="443" y="263"/>
      <point x="552" y="326"/>
      <point x="572" y="473" type="curve" smooth="yes"/>
      <point x="574" y="488"/>
      <point x="575" y="502"/>
      <point x="575" y="515" type="curve" smooth="yes"/>
      <point x="575" y="615"/>
      <point x="520" y="685"/>
      <point x="412" y="685" type="curve" smooth="yes"/>
      <point x="177" y="685" type="line" smooth="yes"/>
      <point x="149" y="685"/>
      <point x="126" y="674"/>
      <point x="103" y="656" type="curve" smooth="yes"/>
      <point x="85" y="638"/>
      <point x="73" y="618"/>
      <point x="68" y="593" type="curve"/>
      <point x="111" y="591" type="line"/>
      <point x="114" y="605"/>
      <point x="123" y="616"/>
      <point x="134" y="623" type="curve"/>
      <point x="147" y="637"/>
      <point x="157" y="642"/>
      <point x="204" y="642" type="curve"/>
      <point x="113" y="0" type="line"/>
    </contour>
    <contour>
      <point x="370" y="684" type="move" name="top"/>
    </contour>
    <contour>
      <point x="274" y="0" type="move" name="bottom"/>
    </contour>
  </outline>
</glyph>
<glyph name="Q" format="1">
  <advance width="777"/>
  <unicode hex="0051"/>
  <outline>
    <contour>
      <point x="197" y="-138" type="line"/>
      <point x="299" y="-174" type="line" smooth="yes"/>
      <point x="344" y="-189"/>
      <point x="379" y="-196"/>
      <point x="428" y="-196" type="curve" smooth="yes"/>
      <point x="462" y="-196"/>
      <point x="486" y="-193"/>
      <point x="541" y="-158" type="curve"/>
      <point x="525" y="-123" type="line"/>
      <point x="481" y="-150"/>
      <point x="455" y="-157"/>
      <point x="423" y="-157" type="curve" smooth="yes"/>
      <point x="389" y="-157"/>
      <point x="348" y="-150"/>
      <point x="311" y="-136" type="curve" smooth="yes"/>
      <point x="226" y="-106" type="line"/>
      <point x="307" y="-8" type="line"/>
      <point x="341" y="-9" type="line" smooth="yes"/>
      <point x="540" y="-9"/>
      <point x="696" y="137"/>
      <point x="725" y="340" type="curve" smooth="yes"/>
      <point x="728" y="361"/>
      <point x="729" y="381"/>
      <point x="729" y="400" type="curve" smooth="yes"/>
      <point x="729" y="572"/>
      <point x="619" y="695"/>
      <point x="436" y="695" type="curve" smooth="yes"/>
      <point x="236" y="695"/>
      <point x="80" y="548"/>
      <point x="51" y="345" type="curve" smooth="yes"/>
      <point x="48" y="325"/>
      <point x="47" y="304"/>
      <point x="47" y="285" type="curve" smooth="yes"/>
      <point x="47" y="143"/>
      <point x="120" y="30"/>
      <point x="267" y="-1" type="curve"/>
      <point x="118" y="-174" type="line"/>
      <point x="148" y="-199" type="line"/>
    </contour>
    <contour>
      <point x="184" y="33"/>
      <point x="95" y="140"/>
      <point x="95" y="286" type="curve" smooth="yes"/>
      <point x="95" y="304"/>
      <point x="96" y="323"/>
      <point x="99" y="342" type="curve" smooth="yes"/>
      <point x="124" y="520"/>
      <point x="257" y="653"/>
      <point x="435" y="653" type="curve" smooth="yes"/>
      <point x="591" y="653"/>
      <point x="682" y="548"/>
      <point x="682" y="401" type="curve" smooth="yes"/>
      <point x="682" y="383"/>
      <point x="681" y="365"/>
      <point x="678" y="346" type="curve" smooth="yes"/>
      <point x="654" y="169"/>
      <point x="522" y="33"/>
      <point x="343" y="33" type="curve" smooth="yes"/>
    </contour>
  </outline>
</glyph>
<glyph name="R" format="2">
	<advance width="700"/>
	<unicode hex="0052"/>
	<anchor x="385" y="692" name="top"/>
	<anchor x="290" y="-6" name="bottom"/>
	<outline>
		<contour>
			<point x="561" y="-9" type="curve" smooth="yes"/>
			<point x="605" y="-9"/>
			<point x="645" y="20"/>
			<point x="654" y="67" type="curve"/>
			<point x="611" y="70" type="line"/>
			<point x="604" y="51"/>
			<point x="582" y="33"/>
			<point x="562" y="33" type="curve" smooth="yes"/>
			<point x="550" y="33"/>
			<point x="539" y="39"/>
			<point x="532" y="51" type="curve" smooth="yes"/>
			<point x="406" y="250" type="line" smooth="yes"/>
			<point x="400" y="261"/>
			<point x="383" y="274"/>
			<point x="375" y="277" type="curve" smooth="yes"/>
			<point x="329" y="294" type="line"/>
			<point x="394" y="297" type="line" smooth="yes"/>
			<point x="481" y="303"/>
			<point x="560" y="371"/>
			<point x="575" y="479" type="curve" smooth="yes"/>
			<point x="577" y="491"/>
			<point x="577" y="502"/>
			<point x="577" y="513" type="curve" smooth="yes"/>
			<point x="577" y="583"/>
			<point x="546" y="640"/>
			<point x="494" y="668" type="curve" smooth="yes"/>
			<point x="475" y="678"/>
			<point x="452" y="685"/>
			<point x="418" y="685" type="curve" smooth="yes"/>
			<point x="177" y="685" type="line" smooth="yes"/>
			<point x="150" y="685"/>
			<point x="127" y="676"/>
			<point x="103" y="656" type="curve" smooth="yes"/>
			<point x="83" y="636"/>
			<point x="73" y="617"/>
			<point x="68" y="593" type="curve"/>
			<point x="111" y="591" type="line"/>
			<point x="118" y="619"/>
			<point x="147" y="642"/>
			<point x="175" y="642" type="curve" smooth="yes"/>
			<point x="201" y="642" type="line"/>
			<point x="111" y="1" type="line"/>
			<point x="159" y="1" type="line"/>
			<point x="249" y="642" type="line"/>
			<point x="410" y="642" type="line" smooth="yes"/>
			<point x="485" y="642"/>
			<point x="531" y="587"/>
			<point x="531" y="510" type="curve" smooth="yes"/>
			<point x="531" y="501"/>
			<point x="530" y="492"/>
			<point x="529" y="483" type="curve" smooth="yes"/>
			<point x="516" y="391"/>
			<point x="449" y="325"/>
			<point x="353" y="325" type="curve" smooth="yes"/>
			<point x="272" y="325" type="line"/>
			<point x="266" y="282" type="line"/>
			<point x="333" y="274"/>
			<point x="361" y="244"/>
			<point x="389" y="196" type="curve" smooth="yes"/>
			<point x="495" y="29" type="line" smooth="yes"/>
			<point x="510" y="4"/>
			<point x="532" y="-9"/>
		</contour>
	</outline>
</glyph>
<glyph name="S" format="1">
  <advance width="550"/>
  <unicode hex="0053"/>
  <outline>
    <contour>
      <point x="361" y="-24"/>
      <point x="474" y="89"/>
      <point x="474" y="213" type="curve" smooth="yes"/>
      <point x="474" y="273"/>
      <point x="443" y="322"/>
      <point x="370" y="362" type="curve" smooth="yes"/>
      <point x="303" y="403"/>
      <point x="173" y="444"/>
      <point x="173" y="533" type="curve" smooth="yes"/>
      <point x="173" y="603"/>
      <point x="248" y="665"/>
      <point x="328" y="665" type="curve" smooth="yes"/>
      <point x="373" y="665"/>
      <point x="427" y="646"/>
      <point x="427" y="604" type="curve" smooth="yes"/>
      <point x="427" y="576"/>
      <point x="406" y="548"/>
      <point x="381" y="550" type="curve"/>
      <point x="375" y="512" type="line"/>
      <point x="428" y="509"/>
      <point x="469" y="550"/>
      <point x="469" y="607" type="curve" smooth="yes"/>
      <point x="469" y="647"/>
      <point x="444" y="681"/>
      <point x="391" y="698" type="curve" smooth="yes"/>
      <point x="374" y="704"/>
      <point x="352" y="707"/>
      <point x="330" y="707" type="curve" smooth="yes"/>
      <point x="226" y="707"/>
      <point x="130" y="633"/>
      <point x="130" y="527" type="curve" smooth="yes"/>
      <point x="130" y="417"/>
      <point x="260" y="374"/>
      <point x="346" y="328" type="curve" smooth="yes"/>
      <point x="393" y="300"/>
      <point x="432" y="270"/>
      <point x="432" y="210" type="curve" smooth="yes"/>
      <point x="432" y="204"/>
      <point x="432" y="197"/>
      <point x="431" y="190" type="curve" smooth="yes"/>
      <point x="418" y="98"/>
      <point x="332" y="17"/>
      <point x="227" y="17" type="curve" smooth="yes"/>
      <point x="147" y="17"/>
      <point x="75" y="66"/>
      <point x="48" y="151" type="curve"/>
      <point x="7" y="138" type="line"/>
      <point x="34" y="42"/>
      <point x="124" y="-24"/>
      <point x="226" y="-24" type="curve" smooth="yes"/>
    </contour>
    <contour>
      <point x="333" y="714" type="move" name="top"/>
    </contour>
    <contour>
      <point x="240" y="-6" type="move" name="bottom"/>
    </contour>
  </outline>
</glyph>
<glyph name="T" format="1">
  <advance width="593"/>
  <unicode hex="0054"/>
  <outline>
    <contour>
      <point x="289" y="1" type="line"/>
      <point x="379" y="641" type="line"/>
      <point x="622" y="641" type="line"/>
      <point x="628" y="685" type="line"/>
      <point x="161" y="685" type="line" smooth="yes"/>
      <point x="138" y="685"/>
      <point x="119" y="677"/>
      <point x="99" y="661" type="curve" smooth="yes"/>
      <point x="83" y="645"/>
      <point x="73" y="628"/>
      <point x="69" y="608" type="curve"/>
      <point x="113" y="606" type="line"/>
      <point x="119" y="623"/>
      <point x="137" y="641"/>
      <point x="160" y="641" type="curve" smooth="yes"/>
      <point x="331" y="641" type="line"/>
      <point x="241" y="1" type="line"/>
    </contour>
    <contour>
      <point x="314" y="360" type="move" name="center"/>
    </contour>
    <contour>
      <point x="264" y="-1" type="move" name="bottom"/>
    </contour>
    <contour>
      <point x="367" y="692" type="move" name="top"/>
    </contour>
  </outline>
</glyph>
<glyph name="U" format="1">
  <advance width="732"/>
  <unicode hex="0055"/>
  <outline>
    <contour>
      <point x="548" y="-8"/>
      <point x="644" y="131"/>
      <point x="663" y="266" type="curve" smooth="yes"/>
      <point x="722" y="686" type="line"/>
      <point x="674" y="686" type="line"/>
      <point x="616" y="268" type="line" smooth="yes"/>
      <point x="600" y="159"/>
      <point x="521" y="34"/>
      <point x="364" y="34" type="curve" smooth="yes"/>
      <point x="236" y="34"/>
      <point x="177" y="117"/>
      <point x="177" y="224" type="curve" smooth="yes"/>
      <point x="177" y="238"/>
      <point x="178" y="252"/>
      <point x="180" y="266" type="curve" smooth="yes"/>
      <point x="227" y="600" type="line" smooth="yes"/>
      <point x="228" y="607"/>
      <point x="229" y="614"/>
      <point x="229" y="620" type="curve" smooth="yes"/>
      <point x="229" y="669"/>
      <point x="198" y="694"/>
      <point x="146" y="694" type="curve" smooth="yes"/>
      <point x="119" y="694"/>
      <point x="90" y="681"/>
      <point x="69" y="660" type="curve"/>
      <point x="107" y="631" type="line"/>
      <point x="117" y="640"/>
      <point x="132" y="647"/>
      <point x="146" y="647" type="curve" smooth="yes"/>
      <point x="159" y="647"/>
      <point x="180" y="641"/>
      <point x="180" y="612" type="curve" smooth="yes"/>
      <point x="179" y="602" type="line"/>
      <point x="133" y="268" type="line" smooth="yes"/>
      <point x="131" y="252"/>
      <point x="130" y="235"/>
      <point x="130" y="220" type="curve" smooth="yes"/>
      <point x="130" y="93"/>
      <point x="205" y="-8"/>
      <point x="363" y="-8" type="curve" smooth="yes"/>
    </contour>
    <contour>
      <point x="539" y="38" type="move" name="ogonek"/>
    </contour>
    <contour>
      <point x="457" y="692" type="move" name="top"/>
    </contour>
    <contour>
      <point x="781" y="684" type="move" name="topright"/>
    </contour>
    <contour>
      <point x="708" y="540" type="move" name="horn"/>
    </contour>
    <contour>
      <point x="360" y="-16" type="move" name="bottom"/>
    </contour>
  </outline>
</glyph>
<glyph name="V" format="1">
  <advance width="646"/>
  <unicode hex="0056"/>
  <outline>
    <contour>
      <point x="358" y="1" type="line"/>
      <point x="677" y="686" type="line"/>
      <point x="630" y="686" type="line"/>
      <point x="342" y="59" type="line"/>
      <point x="226" y="643" type="line" smooth="yes"/>
      <point x="220" y="671"/>
      <point x="197" y="691"/>
      <point x="160" y="691" type="curve" smooth="yes"/>
      <point x="124" y="691"/>
      <point x="90" y="671"/>
      <point x="71" y="635" type="curve"/>
      <point x="114" y="621" type="line"/>
      <point x="124" y="635"/>
      <point x="141" y="644"/>
      <point x="155" y="644" type="curve" smooth="yes"/>
      <point x="169" y="644"/>
      <point x="183" y="635"/>
      <point x="187" y="620" type="curve"/>
      <point x="309" y="1" type="line"/>
    </contour>
    <contour>
      <point x="371" y="684" type="move" name="top"/>
    </contour>
    <contour>
      <point x="275" y="0" type="move" name="bottom"/>
    </contour>
  </outline>
</glyph>
<glyph name="W" format="1">
  <advance width="1062"/>
  <unicode hex="0057"/>
  <outline>
    <contour>
      <point x="781" y="94" type="line"/>
      <point x="674" y="686" type="line"/>
      <point x="624" y="686" type="line"/>
      <point x="351" y="94" type="line"/>
      <point x="332" y="41" type="line"/>
      <point x="329" y="83" type="line"/>
      <point x="328" y="95" type="line"/>
      <point x="328" y="94" type="line"/>
      <point x="230" y="634" type="line" smooth="yes"/>
      <point x="224" y="670"/>
      <point x="195" y="695"/>
      <point x="156" y="695" type="curve" smooth="yes"/>
      <point x="123" y="695"/>
      <point x="88" y="677"/>
      <point x="69" y="640" type="curve"/>
      <point x="110" y="626" type="line"/>
      <point x="120" y="642"/>
      <point x="137" y="651"/>
      <point x="152" y="651" type="curve" smooth="yes"/>
      <point x="166" y="651"/>
      <point x="181" y="641"/>
      <point x="185" y="623" type="curve" smooth="yes"/>
      <point x="302" y="1" type="line"/>
      <point x="352" y="1" type="line"/>
      <point x="640" y="620" type="line"/>
      <point x="755" y="1" type="line"/>
      <point x="805" y="1" type="line"/>
      <point x="1123" y="686" type="line"/>
      <point x="1077" y="686" type="line"/>
      <point x="804" y="94" type="line"/>
      <point x="800" y="81" type="line"/>
      <point x="800" y="79"/>
      <point x="799" y="76"/>
      <point x="798" y="72" type="curve" smooth="yes"/>
      <point x="788" y="0" type="line"/>
    </contour>
    <contour>
      <point x="651" y="692" type="move" name="top"/>
    </contour>
  </outline>
</glyph>
<glyph name="X" format="1">
  <advance width="661"/>
  <unicode hex="0058"/>
  <outline>
    <contour>
      <point x="538" y="-6"/>
      <point x="581" y="19"/>
      <point x="593" y="68" type="curve"/>
      <point x="548" y="72" type="line"/>
      <point x="541" y="55"/>
      <point x="522" y="39"/>
      <point x="501" y="39" type="curve" smooth="yes"/>
      <point x="487" y="39"/>
      <point x="476" y="46"/>
      <point x="472" y="55" type="curve" smooth="yes"/>
      <point x="338" y="352" type="line"/>
      <point x="595" y="685" type="line"/>
      <point x="539" y="685" type="line"/>
      <point x="309" y="383" type="line"/>
      <point x="161" y="685" type="line"/>
      <point x="108" y="685" type="line"/>
      <point x="271" y="352" type="line"/>
      <point x="13" y="1" type="line"/>
      <point x="69" y="1" type="line"/>
      <point x="303" y="320" type="line"/>
      <point x="417" y="65" type="line" smooth="yes"/>
      <point x="436" y="19"/>
      <point x="452" y="-6"/>
      <point x="495" y="-6" type="curve" smooth="yes"/>
    </contour>
  </outline>
</glyph>
<glyph name="Y" format="1">
  <advance width="625"/>
  <unicode hex="0059"/>
  <outline>
    <contour>
      <point x="329" y="1" type="line"/>
      <point x="369" y="301" type="line"/>
      <point x="639" y="686" type="line"/>
      <point x="584" y="686" type="line"/>
      <point x="352" y="353" type="line"/>
      <point x="229" y="648" type="line" smooth="yes"/>
      <point x="214" y="682"/>
      <point x="189" y="695"/>
      <point x="161" y="695" type="curve" smooth="yes"/>
      <point x="122" y="695"/>
      <point x="79" y="672"/>
      <point x="65" y="625" type="curve"/>
      <point x="110" y="618" type="line"/>
      <point x="117" y="636"/>
      <point x="138" y="649"/>
      <point x="155" y="649" type="curve" smooth="yes"/>
      <point x="167" y="649"/>
      <point x="180" y="643"/>
      <point x="188" y="629" type="curve"/>
      <point x="321" y="299" type="line"/>
      <point x="276" y="1" type="line"/>
    </contour>
    <contour>
      <point x="396" y="692" type="move" name="top"/>
    </contour>
    <contour>
      <point x="299" y="-5" type="move" name="bottom"/>
    </contour>
  </outline>
</glyph>
<glyph name="Z" format="1">
  <advance width="581"/>
  <unicode hex="005A"/>
  <outline>
    <contour>
      <point x="381" y="-13"/>
      <point x="427" y="2"/>
      <point x="485" y="48" type="curve"/>
      <point x="459" y="78" type="line"/>
      <point x="419" y="47"/>
      <point x="378" y="27"/>
      <point x="329" y="27" type="curve" smooth="yes"/>
      <point x="269" y="27"/>
      <point x="197" y="60"/>
      <point x="135" y="73" type="curve" smooth="yes"/>
      <point x="92" y="81" type="line"/>
      <point x="536" y="681" type="line"/>
      <point x="142" y="681" type="line"/>
      <point x="136" y="642" type="line"/>
      <point x="460" y="642" type="line"/>
      <point x="-7" y="9" type="line"/>
      <point x="24" y="-11" type="line"/>
      <point x="70" y="49" type="line"/>
      <point x="170" y="31"/>
      <point x="237" y="-13"/>
      <point x="327" y="-13" type="curve" smooth="yes"/>
    </contour>
    <contour>
      <point x="353" y="691" type="move" name="top"/>
    </contour>
  </outline>
</glyph>
<glyph name="bracketleft" format="1">
  <advance width="322"/>
  <unicode hex="005B"/>
  <outline>
    <contour>
      <point x="221" y="-176" type="line"/>
      <point x="227" y="-133" type="line"/>
      <point x="46" y="-133" type="line"/>
      <point x="164" y="708" type="line"/>
      <point x="345" y="708" type="line"/>
      <point x="352" y="752" type="line"/>
      <point x="123" y="752" type="line"/>
      <point x="-8" y="-176" type="line"/>
    </contour>
  </outline>
</glyph>
<glyph name="backslash" format="1">
  <advance width="329"/>
  <unicode hex="005C"/>
  <outline>
    <contour>
      <point x="239" y="-70" type="line"/>
      <point x="135" y="752" type="line"/>
      <point x="86" y="752" type="line"/>
      <point x="188" y="-70" type="line"/>
    </contour>
  </outline>
</glyph>
<glyph name="bracketright" format="2">
	<advance width="340"/>
	<unicode hex="005D"/>
	<outline>
		<contour>
			<point x="-33" y="-176" type="line"/>
			<point x="196" y="-176" type="line"/>
			<point x="327" y="752" type="line"/>
			<point x="98" y="752" type="line"/>
			<point x="91" y="708" type="line"/>
			<point x="272" y="708" type="line"/>
			<point x="154" y="-133" type="line"/>
			<point x="-27" y="-133" type="line"/>
		</contour>
	</outline>
</glyph>
<glyph name="asciicircum" format="1">
  <advance width="443"/>
  <unicode hex="005E"/>
  <outline>
    <contour>
      <point x="401" y="366" type="line"/>
      <point x="264" y="614" type="line"/>
      <point x="251" y="614" type="line"/>
      <point x="43" y="366" type="line"/>
      <point x="78" y="340" type="line"/>
      <point x="245" y="541" type="line"/>
      <point x="358" y="338" type="line"/>
    </contour>
  </outline>
</glyph>
<glyph name="underscore" format="1">
  <advance width="571"/>
  <unicode hex="005F"/>
  <outline>
    <contour>
      <point x="433" y="-135" type="line"/>
      <point x="439" y="-93" type="line"/>
      <point x="4" y="-93" type="line"/>
      <point x="-2" y="-135" type="line"/>
    </contour>
  </outline>
</glyph>
<glyph name="grave" format="1">
  <advance width="245"/>
  <unicode hex="0060"/>
  <outline>
    <contour>
      <point x="246" y="605" type="line"/>
      <point x="112" y="724" type="line"/>
      <point x="79" y="686" type="line"/>
      <point x="228" y="582" type="line"/>
    </contour>
    <contour>
      <point x="208" y="504" type="move" name="_top"/>
    </contour>
  </outline>
</glyph>
<glyph name="a" format="1">
  <advance width="605"/>
  <unicode hex="0061"/>
  <outline>
    <contour>
      <point x="290" y="-9"/>
      <point x="352" y="21"/>
      <point x="390" y="96" type="curve"/>
      <point x="386" y="79" type="line" smooth="yes"/>
      <point x="385" y="75"/>
      <point x="385" y="70"/>
      <point x="385" y="66" type="curve" smooth="yes"/>
      <point x="385" y="23"/>
      <point x="416" y="-9"/>
      <point x="462" y="-9" type="curve" smooth="yes"/>
      <point x="484" y="-9"/>
      <point x="509" y="-2"/>
      <point x="530" y="22" type="curve"/>
      <point x="496" y="47" type="line"/>
      <point x="487" y="38"/>
      <point x="475" y="33"/>
      <point x="463" y="33" type="curve" smooth="yes"/>
      <point x="444" y="33"/>
      <point x="424" y="48"/>
      <point x="427" y="75" type="curve" smooth="yes"/>
      <point x="487" y="496" type="line"/>
      <point x="436" y="496" type="line"/>
      <point x="400" y="501"/>
      <point x="346" y="505"/>
      <point x="315" y="505" type="curve" smooth="yes"/>
      <point x="163" y="505"/>
      <point x="60" y="400"/>
      <point x="39" y="247" type="curve" smooth="yes"/>
      <point x="36" y="229"/>
      <point x="35" y="211"/>
      <point x="35" y="193" type="curve" smooth="yes"/>
      <point x="35" y="80"/>
      <point x="92" y="-9"/>
      <point x="216" y="-9" type="curve" smooth="yes"/>
    </contour>
    <contour>
      <point x="121" y="30"/>
      <point x="79" y="110"/>
      <point x="79" y="201" type="curve" smooth="yes"/>
      <point x="79" y="216"/>
      <point x="80" y="230"/>
      <point x="82" y="245" type="curve" smooth="yes"/>
      <point x="99" y="366"/>
      <point x="180" y="466"/>
      <point x="307" y="466" type="curve" smooth="yes"/>
      <point x="345" y="466"/>
      <point x="412" y="457"/>
      <point x="440" y="458" type="curve"/>
      <point x="401" y="187" type="line" smooth="yes"/>
      <point x="397" y="160"/>
      <point x="388" y="137"/>
      <point x="376" y="119" type="curve" smooth="yes"/>
      <point x="346" y="69"/>
      <point x="286" y="30"/>
      <point x="218" y="30" type="curve" smooth="yes"/>
    </contour>
    <contour>
      <point x="517" y="4" type="move" name="ogonek"/>
    </contour>
    <contour>
      <point x="213" y="-14" type="move" name="bottom"/>
    </contour>
    <contour>
      <point x="306" y="512" type="move" name="top"/>
    </contour>
  </outline>
</glyph>
<glyph name="b" format="1">
  <advance width="508"/>
  <unicode hex="0062"/>
  <outline>
    <contour>
      <point x="375" y="-9"/>
      <point x="458" y="107"/>
      <point x="477" y="246" type="curve" smooth="yes"/>
      <point x="480" y="265"/>
      <point x="481" y="284"/>
      <point x="481" y="302" type="curve" smooth="yes"/>
      <point x="481" y="425"/>
      <point x="416" y="505"/>
      <point x="304" y="505" type="curve" smooth="yes"/>
      <point x="239" y="505"/>
      <point x="172" y="478"/>
      <point x="130" y="409" type="curve"/>
      <point x="175" y="727" type="line"/>
      <point x="133" y="727" type="line"/>
      <point x="33" y="10" type="line"/>
      <point x="52" y="4"/>
      <point x="82" y="-1"/>
      <point x="96" y="-3" type="curve" smooth="yes"/>
      <point x="127" y="-7"/>
      <point x="169" y="-9"/>
      <point x="194" y="-9" type="curve" smooth="yes"/>
    </contour>
    <contour>
      <point x="180" y="30"/>
      <point x="156" y="31"/>
      <point x="137" y="33" type="curve" smooth="yes"/>
      <point x="78" y="40" type="line"/>
      <point x="119" y="328" type="line"/>
      <point x="128" y="368"/>
      <point x="152" y="404"/>
      <point x="193" y="430" type="curve" smooth="yes"/>
      <point x="223" y="452"/>
      <point x="262" y="466"/>
      <point x="299" y="466" type="curve" smooth="yes"/>
      <point x="379" y="466"/>
      <point x="438" y="408"/>
      <point x="438" y="299" type="curve" smooth="yes"/>
      <point x="438" y="283"/>
      <point x="437" y="267"/>
      <point x="434" y="249" type="curve" smooth="yes"/>
      <point x="418" y="136"/>
      <point x="353" y="30"/>
      <point x="194" y="30" type="curve" smooth="yes"/>
    </contour>
    <contour>
      <point x="316" y="500" type="move" name="top"/>
    </contour>
    <contour>
      <point x="246" y="0" type="move" name="bottom"/>
    </contour>
  </outline>
</glyph>
<glyph name="c" format="1">
  <advance width="450"/>
  <unicode hex="0063"/>
  <outline>
    <contour>
      <point x="283" y="-5"/>
      <point x="343" y="11"/>
      <point x="406" y="48" type="curve"/>
      <point x="389" y="81" type="line"/>
      <point x="337" y="56"/>
      <point x="284" y="34"/>
      <point x="223" y="34" type="curve" smooth="yes"/>
      <point x="126" y="34"/>
      <point x="70" y="93"/>
      <point x="70" y="191" type="curve" smooth="yes"/>
      <point x="70" y="204"/>
      <point x="71" y="219"/>
      <point x="73" y="234" type="curve" smooth="yes"/>
      <point x="88" y="343"/>
      <point x="158" y="473"/>
      <point x="284" y="473" type="curve" smooth="yes"/>
      <point x="346" y="473"/>
      <point x="403" y="439"/>
      <point x="397" y="369" type="curve"/>
      <point x="439" y="367" type="line"/>
      <point x="439" y="372"/>
      <point x="440" y="377"/>
      <point x="440" y="381" type="curve" smooth="yes"/>
      <point x="440" y="461"/>
      <point x="368" y="509"/>
      <point x="281" y="509" type="curve" smooth="yes"/>
      <point x="147" y="509"/>
      <point x="52" y="392"/>
      <point x="30" y="239" type="curve" smooth="yes"/>
      <point x="28" y="221"/>
      <point x="26" y="203"/>
      <point x="26" y="186" type="curve" smooth="yes"/>
      <point x="26" y="69"/>
      <point x="89" y="-5"/>
      <point x="221" y="-5" type="curve" smooth="yes"/>
    </contour>
    <contour>
      <point x="282" y="504" type="move" name="top"/>
    </contour>
    <contour>
      <point x="212" y="-6" type="move" name="bottom"/>
    </contour>
  </outline>
</glyph>
<glyph name="d" format="1">
  <advance width="605"/>
  <unicode hex="0064"/>
  <outline>
    <contour>
      <point x="289" y="-9"/>
      <point x="352" y="21"/>
      <point x="390" y="96" type="curve"/>
      <point x="386" y="79" type="line" smooth="yes"/>
      <point x="385" y="75"/>
      <point x="385" y="70"/>
      <point x="385" y="66" type="curve" smooth="yes"/>
      <point x="385" y="23"/>
      <point x="416" y="-9"/>
      <point x="462" y="-9" type="curve" smooth="yes"/>
      <point x="484" y="-9"/>
      <point x="509" y="-2"/>
      <point x="530" y="22" type="curve"/>
      <point x="496" y="47" type="line"/>
      <point x="487" y="38"/>
      <point x="476" y="33"/>
      <point x="464" y="33" type="curve" smooth="yes"/>
      <point x="441" y="33"/>
      <point x="424" y="53"/>
      <point x="427" y="75" type="curve" smooth="yes"/>
      <point x="519" y="728" type="line"/>
      <point x="477" y="728" type="line"/>
      <point x="443" y="495" type="line"/>
      <point x="408" y="500"/>
      <point x="348" y="505"/>
      <point x="315" y="505" type="curve" smooth="yes"/>
      <point x="163" y="505"/>
      <point x="60" y="399"/>
      <point x="39" y="247" type="curve" smooth="yes"/>
      <point x="36" y="229"/>
      <point x="35" y="211"/>
      <point x="35" y="194" type="curve" smooth="yes"/>
      <point x="35" y="79"/>
      <point x="94" y="-9"/>
      <point x="217" y="-9" type="curve" smooth="yes"/>
    </contour>
    <contour>
      <point x="123" y="30"/>
      <point x="80" y="106"/>
      <point x="80" y="202" type="curve" smooth="yes"/>
      <point x="80" y="217"/>
      <point x="81" y="234"/>
      <point x="83" y="250" type="curve" smooth="yes"/>
      <point x="100" y="371"/>
      <point x="171" y="466"/>
      <point x="334" y="466" type="curve" smooth="yes"/>
      <point x="387" y="466"/>
      <point x="420" y="456"/>
      <point x="440" y="456" type="curve"/>
      <point x="401" y="187" type="line" smooth="yes"/>
      <point x="397" y="160"/>
      <point x="388" y="137"/>
      <point x="376" y="119" type="curve"/>
      <point x="343" y="64"/>
      <point x="282" y="30"/>
      <point x="218" y="30" type="curve" smooth="yes"/>
    </contour>
    <contour>
      <point x="267" y="-6" type="move" name="center"/>
    </contour>
  </outline>
</glyph>
<glyph name="e" format="1">
  <advance width="512"/>
  <unicode hex="0065"/>
  <outline>
    <contour>
      <point x="295" y="-9"/>
      <point x="356" y="11"/>
      <point x="412" y="44" type="curve"/>
      <point x="396" y="77" type="line"/>
      <point x="343" y="52"/>
      <point x="291" y="30"/>
      <point x="227" y="30" type="curve" smooth="yes"/>
      <point x="119" y="30"/>
      <point x="74" y="94"/>
      <point x="79" y="204" type="curve"/>
      <point x="208" y="205" type="line" smooth="yes"/>
      <point x="352" y="205"/>
      <point x="447" y="264"/>
      <point x="447" y="376" type="curve" smooth="yes"/>
      <point x="447" y="457"/>
      <point x="381" y="505"/>
      <point x="290" y="505" type="curve" smooth="yes"/>
      <point x="136" y="505"/>
      <point x="54" y="360"/>
      <point x="36" y="231" type="curve" smooth="yes"/>
      <point x="34" y="214"/>
      <point x="32" y="197"/>
      <point x="32" y="181" type="curve" smooth="yes"/>
      <point x="32" y="69"/>
      <point x="91" y="-9"/>
      <point x="226" y="-9" type="curve" smooth="yes"/>
    </contour>
    <contour>
      <point x="91" y="326"/>
      <point x="160" y="469"/>
      <point x="292" y="469" type="curve" smooth="yes"/>
      <point x="350" y="469"/>
      <point x="404" y="439"/>
      <point x="404" y="376" type="curve" smooth="yes"/>
      <point x="404" y="370"/>
      <point x="404" y="364"/>
      <point x="403" y="358" type="curve" smooth="yes"/>
      <point x="391" y="274"/>
      <point x="309" y="244"/>
      <point x="211" y="244" type="curve" smooth="yes"/>
      <point x="82" y="243" type="line"/>
    </contour>
    <contour>
      <point x="421" y="36" type="move" name="ogonek"/>
    </contour>
    <contour>
      <point x="220" y="-6" type="move" name="bottom"/>
    </contour>
    <contour>
      <point x="290" y="512" type="move" name="top"/>
    </contour>
  </outline>
</glyph>
<glyph name="f" format="1">
  <advance width="367"/>
  <unicode hex="0066"/>
  <outline>
    <contour>
      <point x="41" y="-264" type="line"/>
      <point x="107" y="205" type="line"/>
      <point x="258" y="205" type="line"/>
      <point x="263" y="244" type="line"/>
      <point x="112" y="244" type="line"/>
      <point x="137" y="424" type="line"/>
      <point x="194" y="424" type="line" smooth="yes"/>
      <point x="314" y="424"/>
      <point x="399" y="482"/>
      <point x="415" y="596" type="curve" smooth="yes"/>
      <point x="416" y="607"/>
      <point x="417" y="617"/>
      <point x="417" y="627" type="curve" smooth="yes"/>
      <point x="417" y="703"/>
      <point x="373" y="744"/>
      <point x="294" y="744" type="curve" smooth="yes"/>
      <point x="170" y="744"/>
      <point x="126" y="638"/>
      <point x="107" y="507" type="curve" smooth="yes"/>
      <point x="-1" y="-264" type="line"/>
    </contour>
    <contour>
      <point x="149" y="508" type="line" smooth="yes"/>
      <point x="162" y="602"/>
      <point x="193" y="705"/>
      <point x="291" y="705" type="curve" smooth="yes"/>
      <point x="342" y="705"/>
      <point x="373" y="674"/>
      <point x="373" y="622" type="curve" smooth="yes"/>
      <point x="373" y="616"/>
      <point x="372" y="608"/>
      <point x="371" y="601" type="curve" smooth="yes"/>
      <point x="360" y="518"/>
      <point x="295" y="463"/>
      <point x="198" y="463" type="curve" smooth="yes"/>
      <point x="143" y="463" type="line"/>
    </contour>
    <contour>
      <point x="250" y="500" type="move" name="top"/>
    </contour>
    <contour>
      <point x="180" y="0" type="move" name="bottom"/>
    </contour>
  </outline>
</glyph>
<glyph name="g" format="1">
  <advance width="534"/>
  <unicode hex="0067"/>
  <outline>
    <contour>
      <point x="319" y="-286"/>
      <point x="386" y="-223"/>
      <point x="400" y="-121" type="curve" smooth="yes"/>
      <point x="487" y="496" type="line"/>
      <point x="439" y="496" type="line"/>
      <point x="377" y="503" type="line" smooth="yes"/>
      <point x="353" y="505"/>
      <point x="329" y="506"/>
      <point x="314" y="506" type="curve" smooth="yes"/>
      <point x="165" y="506"/>
      <point x="58" y="387"/>
      <point x="40" y="259" type="curve" smooth="yes"/>
      <point x="38" y="246"/>
      <point x="37" y="231"/>
      <point x="37" y="215" type="curve" smooth="yes"/>
      <point x="37" y="152"/>
      <point x="54" y="74"/>
      <point x="108" y="29" type="curve" smooth="yes"/>
      <point x="129" y="9"/>
      <point x="153" y="-3"/>
      <point x="182" y="-7" type="curve"/>
      <point x="134" y="-42"/>
      <point x="108" y="-98"/>
      <point x="108" y="-156" type="curve" smooth="yes"/>
      <point x="108" y="-223"/>
      <point x="145" y="-286"/>
      <point x="232" y="-286" type="curve" smooth="yes"/>
    </contour>
    <contour>
      <point x="174" y="-246"/>
      <point x="147" y="-198"/>
      <point x="147" y="-148" type="curve" smooth="yes"/>
      <point x="147" y="-143"/>
      <point x="147" y="-137"/>
      <point x="148" y="-131" type="curve" smooth="yes"/>
      <point x="156" y="-80"/>
      <point x="189" y="-52"/>
      <point x="225" y="-31" type="curve" smooth="yes"/>
      <point x="239" y="-20"/>
      <point x="300" y="8"/>
      <point x="322" y="25" type="curve"/>
      <point x="323" y="26"/>
      <point x="362" y="59"/>
      <point x="389" y="79" type="curve"/>
      <point x="360" y="-123" type="line"/>
      <point x="346" y="-188"/>
      <point x="309" y="-246"/>
      <point x="238" y="-246" type="curve" smooth="yes"/>
    </contour>
    <contour>
      <point x="123" y="30"/>
      <point x="76" y="116"/>
      <point x="76" y="209" type="curve" smooth="yes"/>
      <point x="76" y="221"/>
      <point x="76" y="233"/>
      <point x="78" y="245" type="curve" smooth="yes"/>
      <point x="94" y="354"/>
      <point x="179" y="466"/>
      <point x="306" y="466" type="curve" smooth="yes"/>
      <point x="338" y="466" type="line"/>
      <point x="442" y="460" type="line"/>
      <point x="402" y="178" type="line" smooth="yes"/>
      <point x="400" y="166"/>
      <point x="392" y="148"/>
      <point x="382" y="135" type="curve"/>
      <point x="353" y="88"/>
      <point x="303" y="56"/>
      <point x="272" y="43" type="curve" smooth="yes"/>
      <point x="253" y="34"/>
      <point x="233" y="30"/>
      <point x="213" y="30" type="curve" smooth="yes"/>
    </contour>
    <contour>
      <point x="312" y="513" type="move" name="top"/>
    </contour>
  </outline>
</glyph>
<glyph name="h" format="1">
  <advance width="558"/>
  <unicode hex="0068"/>
  <outline>
    <contour>
      <point x="482" y="-6"/>
      <point x="505" y="3"/>
      <point x="525" y="24" type="curve"/>
      <point x="492" y="50" type="line"/>
      <point x="483" y="41"/>
      <point x="471" y="36"/>
      <point x="459" y="36" type="curve" smooth="yes"/>
      <point x="439" y="36"/>
      <point x="420" y="50"/>
      <point x="424" y="77" type="curve" smooth="yes"/>
      <point x="462" y="350" type="line" smooth="yes"/>
      <point x="464" y="363"/>
      <point x="465" y="375"/>
      <point x="465" y="387" type="curve" smooth="yes"/>
      <point x="465" y="467"/>
      <point x="419" y="508"/>
      <point x="323" y="508" type="curve" smooth="yes"/>
      <point x="245" y="508"/>
      <point x="185" y="476"/>
      <point x="130" y="402" type="curve"/>
      <point x="177" y="730" type="line"/>
      <point x="135" y="730" type="line"/>
      <point x="33" y="4" type="line"/>
      <point x="75" y="4" type="line"/>
      <point x="126" y="360" type="line"/>
      <point x="184" y="425"/>
      <point x="236" y="469"/>
      <point x="314" y="469" type="curve" smooth="yes"/>
      <point x="382" y="469"/>
      <point x="422" y="440"/>
      <point x="422" y="376" type="curve" smooth="yes"/>
      <point x="422" y="368"/>
      <point x="421" y="359"/>
      <point x="420" y="349" type="curve" smooth="yes"/>
      <point x="382" y="79" type="line" smooth="yes"/>
      <point x="381" y="74"/>
      <point x="381" y="70"/>
      <point x="381" y="66" type="curve" smooth="yes"/>
      <point x="381" y="24"/>
      <point x="411" y="-6"/>
      <point x="457" y="-6" type="curve" smooth="yes"/>
    </contour>
    <contour>
      <point x="137" y="600" type="move" name="center"/>
    </contour>
    <contour>
      <point x="274" y="0" type="move" name="bottom"/>
    </contour>
    <contour>
      <point x="345" y="504" type="move" name="top"/>
    </contour>
  </outline>
</glyph>
<glyph name="k" format="1">
  <advance width="576"/>
  <unicode hex="006B"/>
  <outline>
    <contour>
      <point x="59" y="2" type="line"/>
      <point x="88" y="206" type="line"/>
      <point x="273" y="206" type="line"/>
      <point x="351" y="43" type="line"/>
      <point x="361" y="17"/>
      <point x="388" y="2"/>
      <point x="417" y="2" type="curve" smooth="yes"/>
      <point x="459" y="2"/>
      <point x="497" y="34"/>
      <point x="508" y="75" type="curve"/>
      <point x="466" y="79" type="line"/>
      <point x="460" y="60"/>
      <point x="442" y="46"/>
      <point x="420" y="46" type="curve" smooth="yes"/>
      <point x="410" y="46"/>
      <point x="396" y="49"/>
      <point x="390" y="59" type="curve"/>
      <point x="390" y="61" type="line"/>
      <point x="316" y="216" type="line"/>
      <point x="371" y="244"/>
      <point x="420" y="279"/>
      <point x="431" y="357" type="curve" smooth="yes"/>
      <point x="432" y="366"/>
      <point x="433" y="375"/>
      <point x="433" y="384" type="curve" smooth="yes"/>
      <point x="433" y="460"/>
      <point x="383" y="508"/>
      <point x="300" y="508" type="curve" smooth="yes"/>
      <point x="223" y="508"/>
      <point x="155" y="463"/>
      <point x="112" y="379" type="curve"/>
      <point x="161" y="728" type="line"/>
      <point x="119" y="728" type="line"/>
      <point x="17" y="2" type="line"/>
    </contour>
    <contour>
      <point x="98" y="273"/>
      <point x="107" y="302"/>
      <point x="119" y="329" type="curve" smooth="yes"/>
      <point x="156" y="417"/>
      <point x="222" y="470"/>
      <point x="297" y="470" type="curve" smooth="yes"/>
      <point x="360" y="470"/>
      <point x="395" y="432"/>
      <point x="395" y="381" type="curve" smooth="yes"/>
      <point x="395" y="324"/>
      <point x="358" y="280"/>
      <point x="304" y="259" type="curve" smooth="yes"/>
      <point x="282" y="249"/>
      <point x="256" y="245"/>
      <point x="220" y="245" type="curve" smooth="yes"/>
      <point x="95" y="244" type="line"/>
    </contour>
    <contour>
      <point x="297" y="512" type="move" name="top"/>
    </contour>
    <contour>
      <point x="252" y="-6" type="move" name="bottom"/>
    </contour>
  </outline>
</glyph>
<glyph name="l" format="1">
  <advance width="214"/>
  <unicode hex="006C"/>
  <outline>
    <contour>
      <point x="135" y="-8"/>
      <point x="162" y="2"/>
      <point x="181" y="23" type="curve"/>
      <point x="148" y="48" type="line"/>
      <point x="137" y="39"/>
      <point x="126" y="34"/>
      <point x="115" y="34" type="curve" smooth="yes"/>
      <point x="96" y="34"/>
      <point x="76" y="50"/>
      <point x="80" y="76" type="curve" smooth="yes"/>
      <point x="171" y="727" type="line"/>
      <point x="129" y="727" type="line"/>
      <point x="38" y="78" type="line" smooth="yes"/>
      <point x="37" y="74"/>
      <point x="37" y="70"/>
      <point x="37" y="66" type="curve" smooth="yes"/>
      <point x="37" y="24"/>
      <point x="68" y="-8"/>
      <point x="111" y="-8" type="curve" smooth="yes"/>
    </contour>
    <contour>
      <point x="99" y="-6" type="move" name="bottom"/>
    </contour>
    <contour>
      <point x="153" y="735" type="move" name="top"/>
    </contour>
    <contour>
      <point x="189" y="618" type="move" name="topright"/>
    </contour>
    <contour>
      <point x="96" y="427" type="move" name="center"/>
    </contour>
  </outline>
</glyph>
<glyph name="m" format="1">
  <advance width="837"/>
  <unicode hex="006D"/>
  <outline>
    <contour>
      <point x="761" y="-10"/>
      <point x="783" y="-1"/>
      <point x="803" y="21" type="curve"/>
      <point x="769" y="46" type="line"/>
      <point x="760" y="37"/>
      <point x="748" y="32"/>
      <point x="737" y="32" type="curve" smooth="yes"/>
      <point x="718" y="32"/>
      <point x="697" y="47"/>
      <point x="701" y="74" type="curve" smooth="yes"/>
      <point x="740" y="351" type="line" smooth="yes"/>
      <point x="741" y="361"/>
      <point x="742" y="371"/>
      <point x="742" y="380" type="curve" smooth="yes"/>
      <point x="742" y="457"/>
      <point x="694" y="505"/>
      <point x="610" y="505" type="curve" smooth="yes"/>
      <point x="539" y="505"/>
      <point x="480" y="469"/>
      <point x="433" y="400" type="curve"/>
      <point x="423" y="470"/>
      <point x="380" y="505"/>
      <point x="308" y="505" type="curve" smooth="yes"/>
      <point x="234" y="505"/>
      <point x="173" y="468"/>
      <point x="130" y="398" type="curve"/>
      <point x="129" y="442"/>
      <point x="120" y="473"/>
      <point x="92" y="499" type="curve"/>
      <point x="66" y="476" type="line"/>
      <point x="81" y="455"/>
      <point x="89" y="428"/>
      <point x="89" y="394" type="curve" smooth="yes"/>
      <point x="89" y="382"/>
      <point x="88" y="369"/>
      <point x="86" y="355" type="curve" smooth="yes"/>
      <point x="36" y="1" type="line"/>
      <point x="78" y="1" type="line"/>
      <point x="128" y="360" type="line"/>
      <point x="158" y="417"/>
      <point x="230" y="466"/>
      <point x="301" y="466" type="curve" smooth="yes"/>
      <point x="362" y="466"/>
      <point x="391" y="429"/>
      <point x="391" y="369" type="curve" smooth="yes"/>
      <point x="391" y="359"/>
      <point x="391" y="349"/>
      <point x="389" y="338" type="curve" smooth="yes"/>
      <point x="342" y="1" type="line"/>
      <point x="384" y="1" type="line"/>
      <point x="435" y="359" type="line"/>
      <point x="484" y="433"/>
      <point x="542" y="466"/>
      <point x="607" y="466" type="curve" smooth="yes"/>
      <point x="667" y="466"/>
      <point x="699" y="437"/>
      <point x="699" y="372" type="curve" smooth="yes"/>
      <point x="699" y="366"/>
      <point x="699" y="359"/>
      <point x="698" y="352" type="curve" smooth="yes"/>
      <point x="660" y="76" type="line" smooth="yes"/>
      <point x="659" y="71"/>
      <point x="659" y="67"/>
      <point x="659" y="62" type="curve" smooth="yes"/>
      <point x="659" y="21"/>
      <point x="686" y="-10"/>
      <point x="734" y="-10" type="curve" smooth="yes"/>
    </contour>
    <contour>
      <point x="467" y="500" type="move" name="top"/>
    </contour>
    <contour>
      <point x="397" y="0" type="move" name="bottom"/>
    </contour>
  </outline>
</glyph>
<glyph name="n" format="1">
  <advance width="601"/>
  <unicode hex="006E"/>
  <outline>
    <contour>
      <point x="483" y="-12"/>
      <point x="504" y="-3"/>
      <point x="525" y="19" type="curve"/>
      <point x="492" y="44" type="line"/>
      <point x="482" y="35"/>
      <point x="470" y="30"/>
      <point x="459" y="30" type="curve" smooth="yes"/>
      <point x="440" y="30"/>
      <point x="419" y="45"/>
      <point x="423" y="72" type="curve" smooth="yes"/>
      <point x="464" y="362" type="line" smooth="yes"/>
      <point x="465" y="369"/>
      <point x="465" y="376"/>
      <point x="465" y="382" type="curve" smooth="yes"/>
      <point x="465" y="467"/>
      <point x="416" y="505"/>
      <point x="325" y="505" type="curve" smooth="yes"/>
      <point x="251" y="505"/>
      <point x="188" y="477"/>
      <point x="127" y="396" type="curve"/>
      <point x="128" y="437"/>
      <point x="119" y="474"/>
      <point x="90" y="499" type="curve"/>
      <point x="64" y="476" type="line"/>
      <point x="79" y="455"/>
      <point x="87" y="428"/>
      <point x="87" y="394" type="curve" smooth="yes"/>
      <point x="87" y="382"/>
      <point x="86" y="369"/>
      <point x="84" y="355" type="curve" smooth="yes"/>
      <point x="34" y="1" type="line"/>
      <point x="75" y="1" type="line"/>
      <point x="126" y="357" type="line"/>
      <point x="182" y="420"/>
      <point x="237" y="466"/>
      <point x="318" y="466" type="curve" smooth="yes"/>
      <point x="386" y="466"/>
      <point x="420" y="434"/>
      <point x="420" y="370" type="curve" smooth="yes"/>
      <point x="420" y="360"/>
      <point x="420" y="349"/>
      <point x="418" y="338" type="curve" smooth="yes"/>
      <point x="381" y="74" type="line" smooth="yes"/>
      <point x="380" y="70"/>
      <point x="380" y="66"/>
      <point x="380" y="62" type="curve" smooth="yes"/>
      <point x="380" y="20"/>
      <point x="408" y="-12"/>
      <point x="456" y="-12" type="curve" smooth="yes"/>
    </contour>
    <contour>
      <point x="321" y="512" type="move" name="top"/>
    </contour>
    <contour>
      <point x="231" y="-6" type="move" name="bottom"/>
    </contour>
  </outline>
</glyph>
<glyph name="o" format="2">
	<advance width="552"/>
	<unicode hex="006F"/>
	<anchor x="293" y="250" name="center"/>
	<anchor x="401" y="39" name="ogonek"/>
	<anchor x="314" y="505" name="top"/>
	<anchor x="509" y="329" name="topright"/>
	<anchor x="511" y="328" name="horn"/>
	<anchor x="241" y="-4" name="bottom"/>
	<outline>
		<contour>
			<point x="243" y="-9" type="curve" smooth="yes"/>
			<point x="388" y="-9"/>
			<point x="502" y="93"/>
			<point x="523" y="245" type="curve" smooth="yes"/>
			<point x="525" y="261"/>
			<point x="526" y="276"/>
			<point x="526" y="291" type="curve" smooth="yes"/>
			<point x="526" y="419"/>
			<point x="444" y="505"/>
			<point x="312" y="505" type="curve" smooth="yes"/>
			<point x="163" y="505"/>
			<point x="51" y="395"/>
			<point x="31" y="248" type="curve" smooth="yes"/>
			<point x="29" y="233"/>
			<point x="28" y="218"/>
			<point x="28" y="203" type="curve" smooth="yes"/>
			<point x="28" y="78"/>
			<point x="108" y="-9"/>
		</contour>
		<contour>
			<point x="245" y="30" type="curve" smooth="yes"/>
			<point x="135" y="30"/>
			<point x="71" y="101"/>
			<point x="71" y="206" type="curve" smooth="yes"/>
			<point x="71" y="219"/>
			<point x="72" y="232"/>
			<point x="74" y="245" type="curve" smooth="yes"/>
			<point x="91" y="367"/>
			<point x="178" y="466"/>
			<point x="310" y="466" type="curve" smooth="yes"/>
			<point x="417" y="466"/>
			<point x="483" y="398"/>
			<point x="483" y="293" type="curve" smooth="yes"/>
			<point x="483" y="280"/>
			<point x="482" y="267"/>
			<point x="480" y="253" type="curve" smooth="yes"/>
			<point x="463" y="128"/>
			<point x="374" y="30"/>
		</contour>
	</outline>
</glyph>
<glyph name="p" format="1">
  <advance width="549"/>
  <unicode hex="0070"/>
  <outline>
    <contour>
      <point x="38" y="-265" type="line"/>
      <point x="76" y="1" type="line"/>
      <point x="112" y="-4"/>
      <point x="171" y="-9"/>
      <point x="205" y="-9" type="curve" smooth="yes"/>
      <point x="359" y="-9"/>
      <point x="459" y="97"/>
      <point x="481" y="249" type="curve" smooth="yes"/>
      <point x="484" y="267"/>
      <point x="485" y="285"/>
      <point x="485" y="302" type="curve" smooth="yes"/>
      <point x="485" y="417"/>
      <point x="426" y="505"/>
      <point x="302" y="505" type="curve" smooth="yes"/>
      <point x="232" y="505"/>
      <point x="166" y="478"/>
      <point x="128" y="400" type="curve"/>
      <point x="126" y="439"/>
      <point x="120" y="471"/>
      <point x="90" y="499" type="curve"/>
      <point x="64" y="476" type="line"/>
      <point x="79" y="455"/>
      <point x="87" y="428"/>
      <point x="87" y="394" type="curve" smooth="yes"/>
      <point x="87" y="382"/>
      <point x="86" y="369"/>
      <point x="84" y="355" type="curve" smooth="yes"/>
      <point x="-3" y="-265" type="line"/>
    </contour>
    <contour>
      <point x="186" y="30"/>
      <point x="168" y="31"/>
      <point x="79" y="40" type="curve"/>
      <point x="121" y="328" type="line"/>
      <point x="139" y="410"/>
      <point x="225" y="466"/>
      <point x="303" y="466" type="curve" smooth="yes"/>
      <point x="394" y="466"/>
      <point x="440" y="389"/>
      <point x="440" y="292" type="curve" smooth="yes"/>
      <point x="440" y="277"/>
      <point x="439" y="262"/>
      <point x="437" y="247" type="curve" smooth="yes"/>
      <point x="419" y="121"/>
      <point x="338" y="30"/>
      <point x="201" y="30" type="curve" smooth="yes"/>
    </contour>
  </outline>
</glyph>
<glyph name="q" format="1">
  <advance width="534"/>
  <unicode hex="0071"/>
  <outline>
    <contour>
      <point x="378" y="-265" type="line"/>
      <point x="482" y="486" type="line"/>
      <point x="434" y="499"/>
      <point x="370" y="505"/>
      <point x="329" y="505" type="curve" smooth="yes"/>
      <point x="156" y="505"/>
      <point x="59" y="401"/>
      <point x="38" y="249" type="curve" smooth="yes"/>
      <point x="35" y="230"/>
      <point x="34" y="212"/>
      <point x="34" y="195" type="curve" smooth="yes"/>
      <point x="34" y="77"/>
      <point x="93" y="-9"/>
      <point x="214" y="-9" type="curve" smooth="yes"/>
      <point x="284" y="-9"/>
      <point x="349" y="20"/>
      <point x="385" y="88" type="curve"/>
      <point x="336" y="-265" type="line"/>
    </contour>
    <contour>
      <point x="123" y="30"/>
      <point x="78" y="102"/>
      <point x="78" y="200" type="curve" smooth="yes"/>
      <point x="78" y="217"/>
      <point x="80" y="233"/>
      <point x="82" y="251" type="curve" smooth="yes"/>
      <point x="99" y="373"/>
      <point x="168" y="465"/>
      <point x="331" y="465" type="curve" smooth="yes"/>
      <point x="367" y="465"/>
      <point x="407" y="461"/>
      <point x="438" y="455" type="curve"/>
      <point x="396" y="168" type="line"/>
      <point x="377" y="86"/>
      <point x="294" y="30"/>
      <point x="214" y="30" type="curve" smooth="yes"/>
    </contour>
  </outline>
</glyph>
<glyph name="r" format="2">
	<advance width="325"/>
	<unicode hex="0072"/>
	<anchor x="234" y="505" name="top"/>
	<anchor x="54" y="-6" name="bottom"/>
	<outline>
		<contour>
			<point x="35" y="1" type="line"/>
			<point x="77" y="1" type="line"/>
			<point x="128" y="359" type="line"/>
			<point x="150" y="392"/>
			<point x="180" y="421"/>
			<point x="201" y="435" type="curve" smooth="yes"/>
			<point x="227" y="455"/>
			<point x="256" y="465"/>
			<point x="297" y="465" type="curve" smooth="yes"/>
			<point x="308" y="465"/>
			<point x="323" y="464"/>
			<point x="346" y="460" type="curve"/>
			<point x="349" y="498" type="line"/>
			<point x="317" y="504"/>
			<point x="310" y="505"/>
			<point x="297" y="505" type="curve" smooth="yes"/>
			<point x="267" y="505"/>
			<point x="237" y="500"/>
			<point x="210" y="486" type="curve" smooth="yes"/>
			<point x="183" y="468"/>
			<point x="153" y="437"/>
			<point x="130" y="397" type="curve"/>
			<point x="130" y="442"/>
			<point x="119" y="473"/>
			<point x="91" y="499" type="curve"/>
			<point x="65" y="476" type="line"/>
			<point x="80" y="455"/>
			<point x="88" y="428"/>
			<point x="88" y="394" type="curve" smooth="yes"/>
			<point x="88" y="382"/>
			<point x="87" y="369"/>
			<point x="85" y="355" type="curve" smooth="yes"/>
		</contour>
	</outline>
</glyph>
<glyph name="s" format="1">
  <advance width="433"/>
  <unicode hex="0073"/>
  <outline>
    <contour>
      <point x="253" y="-9"/>
      <point x="343" y="29"/>
      <point x="357" y="129" type="curve" smooth="yes"/>
      <point x="358" y="137"/>
      <point x="359" y="144"/>
      <point x="359" y="151" type="curve" smooth="yes"/>
      <point x="359" y="192"/>
      <point x="339" y="220"/>
      <point x="304" y="242" type="curve" smooth="yes"/>
      <point x="237" y="287"/>
      <point x="120" y="300"/>
      <point x="120" y="377" type="curve" smooth="yes"/>
      <point x="120" y="380"/>
      <point x="120" y="384"/>
      <point x="121" y="388" type="curve" smooth="yes"/>
      <point x="128" y="435"/>
      <point x="167" y="466"/>
      <point x="231" y="466" type="curve" smooth="yes"/>
      <point x="260" y="466"/>
      <point x="303" y="459"/>
      <point x="342" y="439" type="curve"/>
      <point x="354" y="476" type="line"/>
      <point x="324" y="494"/>
      <point x="274" y="505"/>
      <point x="234" y="505" type="curve" smooth="yes"/>
      <point x="155" y="505"/>
      <point x="87" y="464"/>
      <point x="76" y="386" type="curve" smooth="yes"/>
      <point x="75" y="380"/>
      <point x="75" y="374"/>
      <point x="75" y="368" type="curve" smooth="yes"/>
      <point x="75" y="281"/>
      <point x="174" y="266"/>
      <point x="253" y="227" type="curve" smooth="yes"/>
      <point x="292" y="207"/>
      <point x="313" y="184"/>
      <point x="313" y="148" type="curve" smooth="yes"/>
      <point x="313" y="143"/>
      <point x="313" y="138"/>
      <point x="312" y="132" type="curve" smooth="yes"/>
      <point x="302" y="58"/>
      <point x="233" y="30"/>
      <point x="168" y="30" type="curve" smooth="yes"/>
      <point x="116" y="30"/>
      <point x="67" y="46"/>
      <point x="26" y="75" type="curve"/>
      <point x="3" y="46" type="line"/>
      <point x="44" y="12"/>
      <point x="97" y="-9"/>
      <point x="162" y="-9" type="curve" smooth="yes"/>
    </contour>
    <contour>
      <point x="236" y="512" type="move" name="top"/>
    </contour>
    <contour>
      <point x="180" y="-6" type="move" name="bottom"/>
    </contour>
  </outline>
</glyph>
<glyph name="t" format="1">
  <advance width="352"/>
  <unicode hex="0074"/>
  <outline>
    <contour>
      <point x="195" y="-9"/>
      <point x="238" y="15"/>
      <point x="275" y="63" type="curve"/>
      <point x="246" y="87" type="line"/>
      <point x="218" y="50"/>
      <point x="178" y="30"/>
      <point x="138" y="30" type="curve" smooth="yes"/>
      <point x="88" y="30"/>
      <point x="73" y="57"/>
      <point x="73" y="100" type="curve" smooth="yes"/>
      <point x="73" y="112"/>
      <point x="74" y="125"/>
      <point x="76" y="139" type="curve" smooth="yes"/>
      <point x="121" y="453" type="line"/>
      <point x="282" y="453" type="line"/>
      <point x="287" y="495" type="line"/>
      <point x="126" y="495" type="line"/>
      <point x="144" y="623" type="line"/>
      <point x="102" y="623" type="line"/>
      <point x="35" y="141" type="line" smooth="yes"/>
      <point x="33" y="126"/>
      <point x="32" y="112"/>
      <point x="32" y="98" type="curve" smooth="yes"/>
      <point x="32" y="31"/>
      <point x="61" y="-9"/>
      <point x="137" y="-9" type="curve" smooth="yes"/>
    </contour>
    <contour>
      <point x="187" y="322" type="move" name="center"/>
    </contour>
    <contour>
      <point x="141" y="-6" type="move" name="bottom"/>
    </contour>
  </outline>
</glyph>
<glyph name="u" format="1">
  <advance width="616"/>
  <unicode hex="0075"/>
  <outline>
    <contour>
      <point x="498" y="-10"/>
      <point x="520" y="-1"/>
      <point x="540" y="20" type="curve"/>
      <point x="506" y="46" type="line"/>
      <point x="497" y="37"/>
      <point x="484" y="32"/>
      <point x="473" y="32" type="curve" smooth="yes"/>
      <point x="455" y="32"/>
      <point x="433" y="47"/>
      <point x="437" y="74" type="curve" smooth="yes"/>
      <point x="498" y="497" type="line"/>
      <point x="456" y="497" type="line"/>
      <point x="404" y="140" type="line"/>
      <point x="344" y="71"/>
      <point x="293" y="32"/>
      <point x="214" y="32" type="curve" smooth="yes"/>
      <point x="145" y="32"/>
      <point x="111" y="64"/>
      <point x="111" y="128" type="curve" smooth="yes"/>
      <point x="111" y="138"/>
      <point x="111" y="149"/>
      <point x="113" y="160" type="curve" smooth="yes"/>
      <point x="146" y="390" type="line" smooth="yes"/>
      <point x="147" y="395"/>
      <point x="147" y="399"/>
      <point x="147" y="404" type="curve" smooth="yes"/>
      <point x="147" y="447"/>
      <point x="117" y="476"/>
      <point x="87" y="501" type="curve"/>
      <point x="62" y="468" type="line"/>
      <point x="80" y="453"/>
      <point x="109" y="427"/>
      <point x="104" y="392" type="curve" smooth="yes"/>
      <point x="68" y="136" type="line" smooth="yes"/>
      <point x="67" y="129"/>
      <point x="67" y="122"/>
      <point x="67" y="116" type="curve" smooth="yes"/>
      <point x="67" y="31"/>
      <point x="115" y="-7"/>
      <point x="207" y="-7" type="curve" smooth="yes"/>
      <point x="284" y="-7"/>
      <point x="338" y="20"/>
      <point x="402" y="98" type="curve"/>
      <point x="399" y="92"/>
      <point x="397" y="86"/>
      <point x="396" y="81" type="curve" smooth="yes"/>
      <point x="395" y="76"/>
      <point x="395" y="71"/>
      <point x="395" y="66" type="curve" smooth="yes"/>
      <point x="395" y="22"/>
      <point x="424" y="-10"/>
      <point x="472" y="-10" type="curve" smooth="yes"/>
    </contour>
    <contour>
      <point x="528" y="4" type="move" name="ogonek"/>
    </contour>
    <contour>
      <point x="296" y="504" type="move" name="top"/>
    </contour>
    <contour>
      <point x="483" y="349" type="move" name="horn"/>
    </contour>
    <contour>
      <point x="213" y="-15" type="move" name="bottom"/>
    </contour>
  </outline>
</glyph>
<glyph name="v" format="1">
  <advance width="483"/>
  <unicode hex="0076"/>
  <outline>
    <contour>
      <point x="227" y="1" type="line"/>
      <point x="459" y="496" type="line"/>
      <point x="418" y="496" type="line"/>
      <point x="212" y="57" type="line"/>
      <point x="146" y="407" type="line" smooth="yes"/>
      <point x="139" y="448"/>
      <point x="120" y="484"/>
      <point x="87" y="509" type="curve"/>
      <point x="64" y="478" type="line"/>
      <point x="81" y="465"/>
      <point x="96" y="442"/>
      <point x="101" y="421" type="curve"/>
      <point x="180" y="1" type="line"/>
    </contour>
  </outline>
</glyph>
<glyph name="w" format="1">
  <advance width="825"/>
  <unicode hex="0077"/>
  <outline>
    <contour>
      <point x="226" y="2" type="line"/>
      <point x="431" y="439" type="line"/>
      <point x="512" y="2" type="line"/>
      <point x="559" y="2" type="line"/>
      <point x="790" y="497" type="line"/>
      <point x="748" y="497" type="line"/>
      <point x="543" y="60" type="line"/>
      <point x="463" y="497" type="line"/>
      <point x="416" y="497" type="line"/>
      <point x="211" y="60" type="line"/>
      <point x="145" y="407" type="line" smooth="yes"/>
      <point x="136" y="451"/>
      <point x="117" y="486"/>
      <point x="88" y="510" type="curve"/>
      <point x="64" y="479" type="line"/>
      <point x="81" y="466"/>
      <point x="95" y="443"/>
      <point x="101" y="422" type="curve"/>
      <point x="178" y="2" type="line"/>
    </contour>
    <contour>
      <point x="440" y="504" type="move" name="top"/>
    </contour>
  </outline>
</glyph>
<glyph name="x" format="2">
	<advance width="486"/>
	<unicode hex="0078"/>
	<anchor x="285" y="500" name="top"/>
	<anchor x="215" y="0" name="bottom"/>
	<outline>
		<contour>
			<point x="361" y="-18" type="curve" smooth="yes"/>
			<point x="404" y="-18"/>
			<point x="442" y="10"/>
			<point x="454" y="56" type="curve"/>
			<point x="411" y="60" type="line"/>
			<point x="405" y="43"/>
			<point x="388" y="26"/>
			<point x="364" y="26" type="curve" smooth="yes"/>
			<point x="348" y="26"/>
			<point x="337" y="34"/>
			<point x="333" y="45" type="curve"/>
			<point x="235" y="251" type="line"/>
			<point x="422" y="497" type="line"/>
			<point x="371" y="497" type="line"/>
			<point x="209" y="280" type="line"/>
			<point x="104" y="497" type="line"/>
			<point x="53" y="497" type="line"/>
			<point x="176" y="249" type="line"/>
			<point x="-15" y="1" type="line"/>
			<point x="34" y="1" type="line"/>
			<point x="201" y="218" type="line"/>
			<point x="294" y="23" type="line" smooth="yes"/>
			<point x="309" y="-6"/>
			<point x="332" y="-18"/>
		</contour>
	</outline>
</glyph>
<glyph name="y" format="1">
  <advance width="545"/>
  <unicode hex="0079"/>
  <outline>
    <contour>
      <point x="327" y="-290"/>
      <point x="394" y="-234"/>
      <point x="409" y="-126" type="curve" smooth="yes"/>
      <point x="446" y="134" type="line"/>
      <point x="498" y="497" type="line"/>
      <point x="456" y="497" type="line"/>
      <point x="409" y="169" type="line" smooth="yes"/>
      <point x="407" y="154"/>
      <point x="404" y="141"/>
      <point x="385" y="120" type="curve" smooth="yes"/>
      <point x="335" y="67"/>
      <point x="285" y="32"/>
      <point x="212" y="32" type="curve" smooth="yes"/>
      <point x="143" y="32"/>
      <point x="111" y="65"/>
      <point x="111" y="129" type="curve" smooth="yes"/>
      <point x="111" y="139"/>
      <point x="112" y="149"/>
      <point x="113" y="160" type="curve" smooth="yes"/>
      <point x="146" y="390" type="line" smooth="yes"/>
      <point x="147" y="394"/>
      <point x="147" y="399"/>
      <point x="147" y="403" type="curve" smooth="yes"/>
      <point x="147" y="444"/>
      <point x="121" y="472"/>
      <point x="87" y="501" type="curve"/>
      <point x="62" y="468" type="line"/>
      <point x="79" y="452"/>
      <point x="108" y="418"/>
      <point x="104" y="392" type="curve" smooth="yes"/>
      <point x="68" y="136" type="line" smooth="yes"/>
      <point x="67" y="126"/>
      <point x="66" y="117"/>
      <point x="66" y="108" type="curve" smooth="yes"/>
      <point x="66" y="32"/>
      <point x="116" y="-7"/>
      <point x="214" y="-8" type="curve"/>
      <point x="148" y="-19"/>
      <point x="119" y="-110"/>
      <point x="119" y="-162" type="curve" smooth="yes"/>
      <point x="119" y="-231"/>
      <point x="159" y="-290"/>
      <point x="244" y="-290" type="curve" smooth="yes"/>
    </contour>
    <contour>
      <point x="188" y="-250"/>
      <point x="158" y="-210"/>
      <point x="158" y="-157" type="curve" smooth="yes"/>
      <point x="158" y="-151"/>
      <point x="158" y="-145"/>
      <point x="159" y="-138" type="curve" smooth="yes"/>
      <point x="168" y="-79"/>
      <point x="203" y="-44"/>
      <point x="260" y="-16" type="curve" smooth="yes"/>
      <point x="315" y="12" type="line" smooth="yes"/>
      <point x="334" y="21"/>
      <point x="352" y="32"/>
      <point x="372" y="48" type="curve" smooth="yes"/>
      <point x="397" y="70" type="line"/>
      <point x="369" y="-128" type="line" smooth="yes"/>
      <point x="359" y="-198"/>
      <point x="311" y="-250"/>
      <point x="245" y="-250" type="curve" smooth="yes"/>
    </contour>
    <contour>
      <point x="309" y="504" type="move" name="top"/>
    </contour>
  </outline>
</glyph>
<glyph name="z" format="1">
  <advance width="439"/>
  <unicode hex="007A"/>
  <outline>
    <contour>
      <point x="57" y="44" type="line"/>
      <point x="159" y="10" type="line" smooth="yes"/>
      <point x="198" y="-4"/>
      <point x="242" y="-12"/>
      <point x="281" y="-12" type="curve" smooth="yes"/>
      <point x="325" y="-12"/>
      <point x="357" y="-2"/>
      <point x="400" y="26" type="curve"/>
      <point x="383" y="60" type="line"/>
      <point x="338" y="33"/>
      <point x="313" y="27"/>
      <point x="281" y="27" type="curve" smooth="yes"/>
      <point x="247" y="27"/>
      <point x="207" y="33"/>
      <point x="169" y="47" type="curve" smooth="yes"/>
      <point x="85" y="79" type="line"/>
      <point x="425" y="491" type="line"/>
      <point x="425" y="495" type="line"/>
      <point x="82" y="495" type="line"/>
      <point x="77" y="456" type="line"/>
      <point x="345" y="456" type="line"/>
      <point x="-23" y="9" type="line"/>
      <point x="7" y="-16" type="line"/>
    </contour>
    <contour>
      <point x="273" y="501" type="move" name="top"/>
    </contour>
    <contour>
      <point x="203" y="0" type="move" name="bottom"/>
    </contour>
  </outline>
</glyph>
<glyph name="bar" format="1">
  <advance width="188"/>
  <unicode hex="007C"/>
  <outline>
    <contour>
      <point x="55" y="-70" type="line"/>
      <point x="171" y="752" type="line"/>
      <point x="123" y="752" type="line"/>
      <point x="7" y="-70" type="line"/>
    </contour>
  </outline>
</glyph>
<glyph name="braceright" format="1">
  <advance width="284"/>
  <unicode hex="007D"/>
  <outline>
    <contour>
      <point x="19" y="-165"/>
      <point x="97" y="-153"/>
      <point x="135" y="-101" type="curve" smooth="yes"/>
      <point x="148" y="-83"/>
      <point x="154" y="-64"/>
      <point x="158" y="-37" type="curve" smooth="yes"/>
      <point x="160" y="-24"/>
      <point x="167" y="166"/>
      <point x="170" y="191" type="curve" smooth="yes"/>
      <point x="174" y="228"/>
      <point x="206" y="251"/>
      <point x="242" y="261" type="curve" smooth="yes"/>
      <point x="247" y="262"/>
      <point x="251" y="264"/>
      <point x="265" y="266" type="curve"/>
      <point x="269" y="310" type="line"/>
      <point x="263" y="311"/>
      <point x="255" y="312"/>
      <point x="247" y="314" type="curve" smooth="yes"/>
      <point x="235" y="317"/>
      <point x="209" y="326"/>
      <point x="199" y="344" type="curve" smooth="yes"/>
      <point x="192" y="357"/>
      <point x="196" y="371"/>
      <point x="197" y="382" type="curve" smooth="yes"/>
      <point x="198" y="395"/>
      <point x="202" y="409"/>
      <point x="205" y="422" type="curve" smooth="yes"/>
      <point x="221" y="482" type="line" smooth="yes"/>
      <point x="225" y="496"/>
      <point x="233" y="528"/>
      <point x="237" y="546" type="curve" smooth="yes"/>
      <point x="246" y="588"/>
      <point x="255" y="637"/>
      <point x="241" y="674" type="curve" smooth="yes"/>
      <point x="234" y="693"/>
      <point x="220" y="704"/>
      <point x="207" y="712" type="curve" smooth="yes"/>
      <point x="180" y="729"/>
      <point x="134" y="745"/>
      <point x="104" y="751" type="curve"/>
      <point x="92" y="718" type="line"/>
      <point x="124" y="710"/>
      <point x="153" y="702"/>
      <point x="177" y="685" type="curve" smooth="yes"/>
      <point x="214" y="659"/>
      <point x="203" y="615"/>
      <point x="191" y="566" type="curve" smooth="yes"/>
      <point x="176" y="503" type="line" smooth="yes"/>
      <point x="173" y="492"/>
      <point x="151" y="410"/>
      <point x="148" y="381" type="curve" smooth="yes"/>
      <point x="146" y="360"/>
      <point x="149" y="336"/>
      <point x="166" y="319" type="curve" smooth="yes"/>
      <point x="182" y="303"/>
      <point x="211" y="294"/>
      <point x="229" y="286" type="curve"/>
      <point x="221" y="285"/>
      <point x="204" y="282"/>
      <point x="202" y="282" type="curve" smooth="yes"/>
      <point x="162" y="276"/>
      <point x="129" y="243"/>
      <point x="121" y="193" type="curve" smooth="yes"/>
      <point x="119" y="180"/>
      <point x="118" y="165"/>
      <point x="118" y="143" type="curve" smooth="yes"/>
      <point x="118" y="135"/>
      <point x="114" y="-5"/>
      <point x="110" y="-35" type="curve" smooth="yes"/>
      <point x="102" y="-100"/>
      <point x="37" y="-128"/>
      <point x="-31" y="-141" type="curve"/>
      <point x="-24" y="-174" type="line"/>
    </contour>
  </outline>
</glyph>
<glyph name="asciitilde" format="1">
  <advance width="520"/>
  <unicode hex="007E"/>
  <outline>
    <contour>
      <point x="336" y="256" type="line"/>
      <point x="368" y="259"/>
      <point x="401" y="270"/>
      <point x="435" y="294" type="curve"/>
      <point x="412" y="327" type="line"/>
      <point x="383" y="307"/>
      <point x="354" y="296"/>
      <point x="322" y="296" type="curve" smooth="yes"/>
      <point x="265" y="296"/>
      <point x="242" y="330"/>
      <point x="171" y="330" type="curve" smooth="yes"/>
      <point x="128" y="330"/>
      <point x="99" y="319"/>
      <point x="60" y="293" type="curve"/>
      <point x="83" y="260" type="line"/>
      <point x="114" y="281"/>
      <point x="144" y="291"/>
      <point x="171" y="291" type="curve" smooth="yes"/>
      <point x="226" y="291"/>
      <point x="261" y="256"/>
      <point x="322" y="256" type="curve" smooth="yes"/>
    </contour>
  </outline>
</glyph>
<glyph name="cent" format="1">
  <advance width="496"/>
  <unicode hex="00A2"/>
  <outline>
    <contour>
      <point x="224" y="0" type="line"/>
      <point x="234" y="66" type="line"/>
      <point x="273" y="67"/>
      <point x="307" y="76"/>
      <point x="336" y="85" type="curve"/>
      <point x="367" y="97"/>
      <point x="391" y="109"/>
      <point x="408" y="119" type="curve"/>
      <point x="391" y="152" type="line"/>
      <point x="351" y="133"/>
      <point x="308" y="109"/>
      <point x="238" y="105" type="curve"/>
      <point x="301" y="544" type="line"/>
      <point x="339" y="540"/>
      <point x="367" y="523"/>
      <point x="381" y="509" type="curve" smooth="yes"/>
      <point x="396" y="490"/>
      <point x="400" y="465"/>
      <point x="398" y="441" type="curve"/>
      <point x="442" y="439" type="line"/>
      <point x="443" y="444"/>
      <point x="443" y="449"/>
      <point x="443" y="453" type="curve" smooth="yes"/>
      <point x="443" y="484"/>
      <point x="432" y="509"/>
      <point x="410" y="530" type="curve" smooth="yes"/>
      <point x="390" y="554"/>
      <point x="353" y="575"/>
      <point x="304" y="579" type="curve"/>
      <point x="320" y="684" type="line"/>
      <point x="272" y="684" type="line"/>
      <point x="256" y="578" type="line"/>
      <point x="198" y="571"/>
      <point x="148" y="539"/>
      <point x="105" y="492" type="curve" smooth="yes"/>
      <point x="66" y="444"/>
      <point x="44" y="389"/>
      <point x="33" y="317" type="curve" smooth="yes"/>
      <point x="31" y="298"/>
      <point x="29" y="279"/>
      <point x="29" y="262" type="curve" smooth="yes"/>
      <point x="29" y="216"/>
      <point x="38" y="178"/>
      <point x="56" y="148" type="curve" smooth="yes"/>
      <point x="79" y="102"/>
      <point x="122" y="76"/>
      <point x="186" y="68" type="curve"/>
      <point x="176" y="0" type="line"/>
    </contour>
    <contour>
      <point x="148" y="116"/>
      <point x="115" y="135"/>
      <point x="92" y="170" type="curve" smooth="yes"/>
      <point x="78" y="195"/>
      <point x="71" y="223"/>
      <point x="71" y="257" type="curve" smooth="yes"/>
      <point x="71" y="271"/>
      <point x="72" y="285"/>
      <point x="74" y="301" type="curve" smooth="yes"/>
      <point x="82" y="354"/>
      <point x="100" y="407"/>
      <point x="129" y="450" type="curve" smooth="yes"/>
      <point x="154" y="490"/>
      <point x="200" y="534"/>
      <point x="253" y="542" type="curve"/>
      <point x="190" y="108" type="line"/>
    </contour>
  </outline>
</glyph>
<glyph name="sterling" format="2">
	<advance width="538"/>
	<unicode hex="00A3"/>
	<outline>
		<contour>
			<point x="109" y="-12" type="line"/>
			<point x="118" y="-2"/>
			<point x="131" y="22"/>
			<point x="139" y="35" type="curve"/>
			<point x="217" y="10" type="line" smooth="yes"/>
			<point x="236" y="3"/>
			<point x="256" y="-2"/>
			<point x="277" y="-6" type="curve" smooth="yes"/>
			<point x="296" y="-10"/>
			<point x="319" y="-12"/>
			<point x="346" y="-12" type="curve" smooth="yes"/>
			<point x="380" y="-12"/>
			<point x="418" y="0"/>
			<point x="459" y="26" type="curve"/>
			<point x="443" y="65" type="line"/>
			<point x="403" y="41"/>
			<point x="371" y="31"/>
			<point x="336" y="31" type="curve" smooth="yes"/>
			<point x="322" y="31"/>
			<point x="306" y="33"/>
			<point x="285" y="36" type="curve" smooth="yes"/>
			<point x="264" y="40"/>
			<point x="256" y="42"/>
			<point x="154" y="80" type="curve"/>
			<point x="160" y="102" type="line"/>
			<point x="164" y="121" type="line"/>
			<point x="190" y="310" type="line"/>
			<point x="347" y="310" type="line"/>
			<point x="354" y="354" type="line"/>
			<point x="197" y="354" type="line"/>
			<point x="215" y="488" type="line" smooth="yes"/>
			<point x="221" y="530"/>
			<point x="239" y="564"/>
			<point x="266" y="587" type="curve" smooth="yes"/>
			<point x="293" y="611"/>
			<point x="331" y="624"/>
			<point x="378" y="624" type="curve" smooth="yes"/>
			<point x="416" y="624"/>
			<point x="447" y="620"/>
			<point x="491" y="608" type="curve"/>
			<point x="495" y="647" type="line"/>
			<point x="460" y="659"/>
			<point x="425" y="663"/>
			<point x="387" y="663" type="curve" smooth="yes"/>
			<point x="326" y="663"/>
			<point x="272" y="651"/>
			<point x="229" y="617" type="curve"/>
			<point x="192" y="583"/>
			<point x="175" y="541"/>
			<point x="168" y="490" type="curve" smooth="yes"/>
			<point x="149" y="354" type="line"/>
			<point x="65" y="354" type="line"/>
			<point x="58" y="310" type="line"/>
			<point x="142" y="310" type="line"/>
			<point x="116" y="121" type="line" smooth="yes"/>
			<point x="112" y="92"/>
			<point x="104" y="67"/>
			<point x="95" y="50" type="curve" smooth="yes"/>
			<point x="87" y="34"/>
			<point x="80" y="21"/>
			<point x="72" y="9" type="curve"/>
		</contour>
	</outline>
</glyph>
<glyph name="currency" format="1">
  <advance width="696"/>
  <unicode hex="00A4"/>
  <outline>
    <contour>
      <point x="173" y="101" type="line"/>
      <point x="191" y="88"/>
      <point x="211" y="76"/>
      <point x="234" y="68" type="curve" smooth="yes"/>
      <point x="253" y="61"/>
      <point x="278" y="57"/>
      <point x="307" y="57" type="curve" smooth="yes"/>
      <point x="334" y="57"/>
      <point x="358" y="61"/>
      <point x="382" y="69" type="curve" smooth="yes"/>
      <point x="406" y="78"/>
      <point x="428" y="88"/>
      <point x="450" y="101" type="curve"/>
      <point x="542" y="-6" type="line"/>
      <point x="581" y="29" type="line"/>
      <point x="492" y="133" type="line"/>
      <point x="512" y="154"/>
      <point x="527" y="176"/>
      <point x="538" y="202" type="curve" smooth="yes"/>
      <point x="550" y="227"/>
      <point x="558" y="255"/>
      <point x="562" y="286" type="curve" smooth="yes"/>
      <point x="564" y="302"/>
      <point x="565" y="316"/>
      <point x="565" y="330" type="curve" smooth="yes"/>
      <point x="565" y="374"/>
      <point x="555" y="410"/>
      <point x="534" y="440" type="curve"/>
      <point x="654" y="547" type="line"/>
      <point x="625" y="582" type="line"/>
      <point x="501" y="473" type="line"/>
      <point x="483" y="487"/>
      <point x="464" y="499"/>
      <point x="440" y="507" type="curve" smooth="yes"/>
      <point x="420" y="515"/>
      <point x="397" y="518"/>
      <point x="368" y="518" type="curve" smooth="yes"/>
      <point x="341" y="518"/>
      <point x="316" y="515"/>
      <point x="293" y="507" type="curve" smooth="yes"/>
      <point x="269" y="499"/>
      <point x="247" y="489"/>
      <point x="225" y="475" type="curve"/>
      <point x="134" y="582" type="line"/>
      <point x="95" y="547" type="line"/>
      <point x="184" y="442" type="line"/>
      <point x="163" y="422"/>
      <point x="149" y="399"/>
      <point x="136" y="373" type="curve" smooth="yes"/>
      <point x="124" y="348"/>
      <point x="116" y="320"/>
      <point x="111" y="289" type="curve" smooth="yes"/>
      <point x="109" y="274"/>
      <point x="108" y="260"/>
      <point x="108" y="247" type="curve" smooth="yes"/>
      <point x="108" y="201"/>
      <point x="120" y="164"/>
      <point x="142" y="133" type="curve"/>
      <point x="22" y="29" type="line"/>
      <point x="51" y="-6" type="line"/>
    </contour>
    <contour>
      <point x="283" y="97"/>
      <point x="260" y="102"/>
      <point x="238" y="111" type="curve" smooth="yes"/>
      <point x="220" y="120"/>
      <point x="202" y="132"/>
      <point x="189" y="148" type="curve" smooth="yes"/>
      <point x="176" y="165"/>
      <point x="168" y="186"/>
      <point x="163" y="208" type="curve" smooth="yes"/>
      <point x="160" y="222"/>
      <point x="159" y="237"/>
      <point x="159" y="252" type="curve" smooth="yes"/>
      <point x="159" y="263"/>
      <point x="159" y="274"/>
      <point x="161" y="286" type="curve" smooth="yes"/>
      <point x="165" y="314"/>
      <point x="173" y="341"/>
      <point x="184" y="363" type="curve" smooth="yes"/>
      <point x="195" y="388"/>
      <point x="212" y="408"/>
      <point x="230" y="423" type="curve" smooth="yes"/>
      <point x="248" y="440"/>
      <point x="269" y="455"/>
      <point x="292" y="464" type="curve" smooth="yes"/>
      <point x="313" y="472"/>
      <point x="326" y="477"/>
      <point x="367" y="477" type="curve" smooth="yes"/>
      <point x="419" y="477"/>
      <point x="461" y="461"/>
      <point x="488" y="428" type="curve" smooth="yes"/>
      <point x="508" y="401"/>
      <point x="518" y="368"/>
      <point x="518" y="329" type="curve" smooth="yes"/>
      <point x="518" y="317"/>
      <point x="517" y="305"/>
      <point x="515" y="292" type="curve" smooth="yes"/>
      <point x="511" y="263"/>
      <point x="503" y="237"/>
      <point x="492" y="214" type="curve" smooth="yes"/>
      <point x="481" y="190"/>
      <point x="465" y="169"/>
      <point x="445" y="153" type="curve" smooth="yes"/>
      <point x="429" y="135"/>
      <point x="408" y="121"/>
      <point x="383" y="111" type="curve" smooth="yes"/>
      <point x="362" y="102"/>
      <point x="336" y="97"/>
      <point x="309" y="97" type="curve" smooth="yes"/>
    </contour>
  </outline>
</glyph>
<glyph name="yen" format="2">
	<advance width="611"/>
	<unicode hex="00A5"/>
	<outline>
		<contour>
			<point x="248" y="1" type="line"/>
			<point x="295" y="1" type="line"/>
			<point x="319" y="174" type="line"/>
			<point x="513" y="174" type="line"/>
			<point x="519" y="213" type="line"/>
			<point x="325" y="213" type="line"/>
			<point x="337" y="303" type="line"/>
			<point x="354" y="325" type="line"/>
			<point x="534" y="325" type="line"/>
			<point x="539" y="366" type="line"/>
			<point x="381" y="366" type="line"/>
			<point x="607" y="660" type="line"/>
			<point x="553" y="660" type="line"/>
			<point x="320" y="356" type="line"/>
			<point x="170" y="660" type="line"/>
			<point x="117" y="660" type="line"/>
			<point x="262" y="366" type="line"/>
			<point x="100" y="366" type="line"/>
			<point x="95" y="325" type="line"/>
			<point x="278" y="325" type="line"/>
			<point x="288" y="303" type="line"/>
			<point x="276" y="213" type="line"/>
			<point x="80" y="213" type="line"/>
			<point x="74" y="174" type="line"/>
			<point x="272" y="174" type="line"/>
		</contour>
	</outline>
</glyph>
<glyph name="brokenbar" format="1">
  <advance width="258"/>
  <unicode hex="00A6"/>
  <outline>
    <contour>
      <point x="172" y="389" type="line"/>
      <point x="223" y="752" type="line"/>
      <point x="175" y="752" type="line"/>
      <point x="124" y="389" type="line"/>
    </contour>
    <contour>
      <point x="107" y="-70" type="line"/>
      <point x="158" y="293" type="line"/>
      <point x="110" y="293" type="line"/>
      <point x="59" y="-70" type="line"/>
    </contour>
  </outline>
</glyph>
<glyph name="section" format="1">
  <advance width="399"/>
  <unicode hex="00A7"/>
  <outline>
    <contour>
      <point x="118" y="-56"/>
      <point x="169" y="-40"/>
      <point x="205" y="-19" type="curve" smooth="yes"/>
      <point x="245" y="6"/>
      <point x="268" y="39"/>
      <point x="268" y="90" type="curve" smooth="yes"/>
      <point x="268" y="118"/>
      <point x="259" y="141"/>
      <point x="242" y="161" type="curve"/>
      <point x="270" y="176"/>
      <point x="282" y="184"/>
      <point x="292" y="192" type="curve"/>
      <point x="316" y="221"/>
      <point x="329" y="267"/>
      <point x="329" y="298" type="curve" smooth="yes"/>
      <point x="328" y="330"/>
      <point x="316" y="353"/>
      <point x="291" y="376" type="curve" smooth="yes"/>
      <point x="265" y="405"/>
      <point x="237" y="420"/>
      <point x="206" y="444" type="curve" smooth="yes"/>
      <point x="186" y="464"/>
      <point x="167" y="488"/>
      <point x="167" y="520" type="curve" smooth="yes"/>
      <point x="167" y="548"/>
      <point x="185" y="579"/>
      <point x="219" y="595" type="curve" smooth="yes"/>
      <point x="238" y="606"/>
      <point x="280" y="621"/>
      <point x="336" y="632" type="curve"/>
      <point x="329" y="672" type="line"/>
      <point x="265" y="662"/>
      <point x="214" y="646"/>
      <point x="179" y="625" type="curve" smooth="yes"/>
      <point x="133" y="597"/>
      <point x="115" y="564"/>
      <point x="115" y="513" type="curve" smooth="yes"/>
      <point x="115" y="484"/>
      <point x="126" y="460"/>
      <point x="141" y="439" type="curve"/>
      <point x="131" y="441"/>
      <point x="112" y="434"/>
      <point x="92" y="414" type="curve" smooth="yes"/>
      <point x="71" y="388"/>
      <point x="56" y="355"/>
      <point x="56" y="308" type="curve" smooth="yes"/>
      <point x="56" y="276"/>
      <point x="68" y="253"/>
      <point x="93" y="230" type="curve" smooth="yes"/>
      <point x="118" y="201"/>
      <point x="147" y="186"/>
      <point x="177" y="162" type="curve" smooth="yes"/>
      <point x="198" y="142"/>
      <point x="217" y="119"/>
      <point x="217" y="87" type="curve" smooth="yes"/>
      <point x="217" y="47"/>
      <point x="193" y="24"/>
      <point x="163" y="11" type="curve" smooth="yes"/>
      <point x="138" y="-3"/>
      <point x="96" y="-16"/>
      <point x="47" y="-26" type="curve"/>
      <point x="54" y="-66" type="line"/>
    </contour>
    <contour>
      <point x="191" y="213"/>
      <point x="162" y="228"/>
      <point x="135" y="251" type="curve" smooth="yes"/>
      <point x="118" y="269"/>
      <point x="105" y="288"/>
      <point x="105" y="315" type="curve" smooth="yes"/>
      <point x="105" y="356"/>
      <point x="133" y="395"/>
      <point x="172" y="414" type="curve"/>
      <point x="193" y="393"/>
      <point x="222" y="376"/>
      <point x="248" y="354" type="curve" smooth="yes"/>
      <point x="264" y="337"/>
      <point x="279" y="318"/>
      <point x="279" y="291" type="curve" smooth="yes"/>
      <point x="279" y="266"/>
      <point x="261" y="213"/>
      <point x="211" y="193" type="curve"/>
    </contour>
  </outline>
</glyph>
<glyph name="copyright" format="1">
  <advance width="733"/>
  <unicode hex="00A9"/>
  <outline>
    <contour>
      <point x="489" y="-60"/>
      <point x="627" y="62"/>
      <point x="652" y="242" type="curve" smooth="yes"/>
      <point x="654" y="259"/>
      <point x="656" y="275"/>
      <point x="656" y="291" type="curve" smooth="yes"/>
      <point x="656" y="436"/>
      <point x="553" y="547"/>
      <point x="392" y="547" type="curve" smooth="yes"/>
      <point x="212" y="547"/>
      <point x="73" y="425"/>
      <point x="48" y="244" type="curve" smooth="yes"/>
      <point x="46" y="227"/>
      <point x="44" y="210"/>
      <point x="44" y="194" type="curve" smooth="yes"/>
      <point x="44" y="51"/>
      <point x="147" y="-60"/>
      <point x="308" y="-60" type="curve" smooth="yes"/>
    </contour>
    <contour>
      <point x="379" y="93"/>
      <point x="411" y="106"/>
      <point x="442" y="125" type="curve"/>
      <point x="429" y="153" type="line"/>
      <point x="404" y="138"/>
      <point x="379" y="126"/>
      <point x="349" y="126" type="curve" smooth="yes"/>
      <point x="300" y="126"/>
      <point x="268" y="162"/>
      <point x="268" y="219" type="curve" smooth="yes"/>
      <point x="268" y="269"/>
      <point x="298" y="366"/>
      <point x="377" y="366" type="curve" smooth="yes"/>
      <point x="399" y="366"/>
      <point x="422" y="358"/>
      <point x="436" y="352" type="curve"/>
      <point x="439" y="384" type="line"/>
      <point x="425" y="393"/>
      <point x="395" y="399"/>
      <point x="372" y="399" type="curve" smooth="yes"/>
      <point x="294" y="399"/>
      <point x="243" y="328"/>
      <point x="231" y="246" type="curve" smooth="yes"/>
      <point x="230" y="235"/>
      <point x="229" y="225"/>
      <point x="229" y="215" type="curve" smooth="yes"/>
      <point x="229" y="144"/>
      <point x="266" y="93"/>
      <point x="342" y="93" type="curve" smooth="yes"/>
    </contour>
    <contour>
      <point x="172" y="-26"/>
      <point x="85" y="54"/>
      <point x="85" y="191" type="curve" smooth="yes"/>
      <point x="85" y="208"/>
      <point x="87" y="225"/>
      <point x="89" y="242" type="curve" smooth="yes"/>
      <point x="111" y="399"/>
      <point x="235" y="512"/>
      <point x="391" y="512" type="curve" smooth="yes"/>
      <point x="531" y="512"/>
      <point x="615" y="434"/>
      <point x="615" y="295" type="curve" smooth="yes"/>
      <point x="615" y="280"/>
      <point x="614" y="264"/>
      <point x="612" y="249" type="curve" smooth="yes"/>
      <point x="590" y="98"/>
      <point x="471" y="-26"/>
      <point x="310" y="-26" type="curve" smooth="yes"/>
    </contour>
  </outline>
</glyph>
<glyph name="ordfeminine" format="1">
  <advance width="359"/>
  <unicode hex="00AA"/>
  <outline>
    <contour>
      <point x="214" y="407"/>
      <point x="242" y="421"/>
      <point x="262" y="446" type="curve"/>
      <point x="264" y="422"/>
      <point x="275" y="407"/>
      <point x="303" y="407" type="curve" smooth="yes"/>
      <point x="318" y="407"/>
      <point x="328" y="411"/>
      <point x="339" y="423" type="curve"/>
      <point x="314" y="441" type="line"/>
      <point x="312" y="439"/>
      <point x="308" y="437"/>
      <point x="304" y="437" type="curve" smooth="yes"/>
      <point x="297" y="437"/>
      <point x="291" y="444"/>
      <point x="291" y="450" type="curve" smooth="yes"/>
      <point x="291" y="452" type="line"/>
      <point x="322" y="669" type="line"/>
      <point x="288" y="669" type="line" smooth="yes"/>
      <point x="273" y="669"/>
      <point x="243" y="673"/>
      <point x="226" y="673" type="curve" smooth="yes"/>
      <point x="210" y="673"/>
      <point x="194" y="670"/>
      <point x="178" y="663" type="curve" smooth="yes"/>
      <point x="129" y="641"/>
      <point x="89" y="593"/>
      <point x="89" y="521" type="curve" smooth="yes"/>
      <point x="89" y="465"/>
      <point x="115" y="407"/>
      <point x="181" y="407" type="curve" smooth="yes"/>
    </contour>
    <contour>
      <point x="140" y="442"/>
      <point x="121" y="481"/>
      <point x="121" y="520" type="curve" smooth="yes"/>
      <point x="121" y="591"/>
      <point x="173" y="639"/>
      <point x="233" y="639" type="curve" smooth="yes"/>
      <point x="241" y="639"/>
      <point x="244" y="638"/>
      <point x="251" y="637" type="curve"/>
      <point x="285" y="634" type="line"/>
      <point x="267" y="505" type="line"/>
      <point x="257" y="491" type="line" smooth="yes"/>
      <point x="245" y="473"/>
      <point x="219" y="442"/>
      <point x="181" y="442" type="curve" smooth="yes"/>
    </contour>
  </outline>
</glyph>
<glyph name="guillemetleft" format="1">
  <advance width="606"/>
  <unicode hex="00AB"/>
  <outline>
    <contour>
      <point x="496" y="55" type="line"/>
      <point x="302" y="250" type="line"/>
      <point x="550" y="445" type="line"/>
      <point x="526" y="477" type="line"/>
      <point x="295" y="295" type="line" smooth="yes"/>
      <point x="268" y="273"/>
      <point x="259" y="258"/>
      <point x="259" y="248" type="curve" smooth="yes"/>
      <point x="259" y="236"/>
      <point x="267" y="223"/>
      <point x="284" y="207" type="curve" smooth="yes"/>
      <point x="462" y="23" type="line"/>
    </contour>
    <contour>
      <point x="281" y="55" type="line"/>
      <point x="87" y="250" type="line"/>
      <point x="335" y="445" type="line"/>
      <point x="312" y="477" type="line"/>
      <point x="80" y="295" type="line" smooth="yes"/>
      <point x="54" y="273"/>
      <point x="45" y="258"/>
      <point x="45" y="248" type="curve" smooth="yes"/>
      <point x="45" y="236"/>
      <point x="53" y="223"/>
      <point x="70" y="207" type="curve" smooth="yes"/>
      <point x="248" y="23" type="line"/>
    </contour>
  </outline>
</glyph>
<glyph name="logicalnot" format="1">
  <advance width="476"/>
  <unicode hex="00AC"/>
  <outline>
    <contour>
      <point x="380" y="151" type="line"/>
      <point x="403" y="315" type="line"/>
      <point x="50" y="315" type="line"/>
      <point x="44" y="270" type="line"/>
      <point x="348" y="270" type="line"/>
      <point x="331" y="151" type="line"/>
    </contour>
  </outline>
</glyph>
<glyph name="registered" format="1">
  <advance width="727"/>
  <unicode hex="00AE"/>
  <outline>
    <contour>
      <point x="433" y="120"/>
      <point x="510" y="147"/>
      <point x="576" y="205" type="curve" smooth="yes"/>
      <point x="633" y="259"/>
      <point x="676" y="332"/>
      <point x="688" y="422" type="curve" smooth="yes"/>
      <point x="690" y="439"/>
      <point x="692" y="456"/>
      <point x="692" y="472" type="curve" smooth="yes"/>
      <point x="692" y="538"/>
      <point x="672" y="595"/>
      <point x="633" y="640" type="curve" smooth="yes"/>
      <point x="588" y="696"/>
      <point x="517" y="727"/>
      <point x="428" y="727" type="curve" smooth="yes"/>
      <point x="345" y="727"/>
      <point x="263" y="701"/>
      <point x="197" y="644" type="curve" smooth="yes"/>
      <point x="138" y="589"/>
      <point x="97" y="512"/>
      <point x="84" y="424" type="curve" smooth="yes"/>
      <point x="82" y="408"/>
      <point x="81" y="392"/>
      <point x="81" y="377" type="curve" smooth="yes"/>
      <point x="81" y="311"/>
      <point x="100" y="252"/>
      <point x="140" y="207" type="curve" smooth="yes"/>
      <point x="189" y="148"/>
      <point x="259" y="120"/>
      <point x="346" y="120" type="curve" smooth="yes"/>
    </contour>
    <contour>
      <point x="276" y="154"/>
      <point x="210" y="179"/>
      <point x="168" y="227" type="curve" smooth="yes"/>
      <point x="137" y="266"/>
      <point x="121" y="317"/>
      <point x="121" y="373" type="curve" smooth="yes"/>
      <point x="121" y="389"/>
      <point x="123" y="405"/>
      <point x="125" y="422" type="curve" smooth="yes"/>
      <point x="136" y="500"/>
      <point x="171" y="568"/>
      <point x="226" y="616" type="curve" smooth="yes"/>
      <point x="280" y="666"/>
      <point x="353" y="693"/>
      <point x="427" y="693" type="curve" smooth="yes"/>
      <point x="498" y="693"/>
      <point x="563" y="669"/>
      <point x="605" y="622" type="curve" smooth="yes"/>
      <point x="636" y="583"/>
      <point x="651" y="531"/>
      <point x="651" y="475" type="curve" smooth="yes"/>
      <point x="651" y="460"/>
      <point x="650" y="444"/>
      <point x="648" y="429" type="curve" smooth="yes"/>
      <point x="637" y="353"/>
      <point x="601" y="281"/>
      <point x="547" y="233" type="curve" smooth="yes"/>
      <point x="499" y="188"/>
      <point x="429" y="154"/>
      <point x="347" y="154" type="curve" smooth="yes"/>
    </contour>
    <contour>
      <point x="309" y="246" type="line"/>
      <point x="331" y="398" type="line"/>
      <point x="362" y="398" type="line" smooth="yes"/>
      <point x="406" y="398"/>
      <point x="435" y="376"/>
      <point x="444" y="335" type="curve" smooth="yes"/>
      <point x="463" y="254" type="line"/>
      <point x="500" y="269" type="line"/>
      <point x="476" y="355" type="line" smooth="yes"/>
      <point x="469" y="379"/>
      <point x="454" y="398"/>
      <point x="427" y="404" type="curve"/>
      <point x="473" y="413"/>
      <point x="513" y="449"/>
      <point x="513" y="508" type="curve" smooth="yes"/>
      <point x="513" y="559"/>
      <point x="475" y="592"/>
      <point x="413" y="592" type="curve" smooth="yes"/>
      <point x="392" y="592"/>
      <point x="376" y="587"/>
      <point x="352" y="587" type="curve" smooth="yes"/>
      <point x="322" y="586" type="line"/>
      <point x="318" y="558"/>
      <point x="313" y="530"/>
      <point x="309" y="502" type="curve" smooth="yes"/>
      <point x="285" y="331" type="line"/>
      <point x="274" y="246" type="line"/>
    </contour>
    <contour>
      <point x="353" y="552" type="line"/>
      <point x="380" y="559"/>
      <point x="403" y="559"/>
      <point x="406" y="559" type="curve" smooth="yes"/>
      <point x="448" y="559"/>
      <point x="479" y="540"/>
      <point x="479" y="503" type="curve" smooth="yes"/>
      <point x="479" y="463"/>
      <point x="447" y="424"/>
      <point x="399" y="424" type="curve" smooth="yes"/>
      <point x="334" y="424" type="line"/>
    </contour>
  </outline>
</glyph>
<glyph name="macron" format="2">
	<advance width="431"/>
	<unicode hex="00AF"/>
	<anchor x="236" y="504" name="_top"/>
	<outline>
		<contour>
			<point x="96" y="581" type="line"/>
			<point x="414" y="581" type="line"/>
			<point x="420" y="625" type="line"/>
			<point x="102" y="625" type="line"/>
		</contour>
	</outline>
</glyph>
<glyph name="degree" format="1">
  <advance width="385"/>
  <unicode hex="00B0"/>
  <outline>
    <contour>
      <point x="264" y="405"/>
      <point x="332" y="442"/>
      <point x="345" y="532" type="curve" smooth="yes"/>
      <point x="346" y="540"/>
      <point x="347" y="548"/>
      <point x="347" y="556" type="curve" smooth="yes"/>
      <point x="347" y="624"/>
      <point x="304" y="664"/>
      <point x="235" y="664" type="curve" smooth="yes"/>
      <point x="169" y="664"/>
      <point x="102" y="628"/>
      <point x="89" y="538" type="curve" smooth="yes"/>
      <point x="88" y="530"/>
      <point x="87" y="521"/>
      <point x="87" y="514" type="curve" smooth="yes"/>
      <point x="87" y="445"/>
      <point x="130" y="405"/>
      <point x="199" y="405" type="curve" smooth="yes"/>
    </contour>
    <contour>
      <point x="155" y="441"/>
      <point x="129" y="471"/>
      <point x="129" y="514" type="curve" smooth="yes"/>
      <point x="129" y="574"/>
      <point x="170" y="628"/>
      <point x="233" y="628" type="curve" smooth="yes"/>
      <point x="279" y="628"/>
      <point x="305" y="598"/>
      <point x="305" y="555" type="curve" smooth="yes"/>
      <point x="305" y="491"/>
      <point x="262" y="441"/>
      <point x="202" y="441" type="curve" smooth="yes"/>
    </contour>
  </outline>
</glyph>
<glyph name="plusminus" format="1">
  <advance width="482"/>
  <unicode hex="00B1"/>
  <outline>
    <contour>
      <point x="227" y="110" type="line"/>
      <point x="250" y="274" type="line"/>
      <point x="411" y="274" type="line"/>
      <point x="417" y="312" type="line"/>
      <point x="256" y="312" type="line"/>
      <point x="279" y="475" type="line"/>
      <point x="236" y="475" type="line"/>
      <point x="213" y="312" type="line"/>
      <point x="52" y="312" type="line"/>
      <point x="46" y="274" type="line"/>
      <point x="207" y="274" type="line"/>
      <point x="184" y="110" type="line"/>
    </contour>
    <contour>
      <point x="373" y="1" type="line"/>
      <point x="378" y="40" type="line"/>
      <point x="13" y="40" type="line"/>
      <point x="8" y="1" type="line"/>
    </contour>
  </outline>
</glyph>
<glyph name="acute" format="2">
	<advance width="299"/>
	<unicode hex="00B4"/>
	<anchor x="100" y="504" name="_top"/>
	<outline>
		<contour>
			<point x="107" y="582" type="line"/>
			<point x="285" y="686" type="line"/>
			<point x="263" y="724" type="line"/>
			<point x="95" y="605" type="line"/>
		</contour>
	</outline>
</glyph>
<glyph name="micro" format="1">
  <advance width="574"/>
  <unicode hex="00B5"/>
  <outline>
    <contour>
      <point x="77" y="-254" type="line"/>
      <point x="118" y="28" type="line"/>
      <point x="132" y="14"/>
      <point x="148" y="4"/>
      <point x="171" y="-2" type="curve" smooth="yes"/>
      <point x="187" y="-7"/>
      <point x="207" y="-9"/>
      <point x="232" y="-9" type="curve" smooth="yes"/>
      <point x="304" y="-9"/>
      <point x="365" y="27"/>
      <point x="419" y="104" type="curve"/>
      <point x="417" y="78"/>
      <point x="421" y="55"/>
      <point x="429" y="34" type="curve" smooth="yes"/>
      <point x="434" y="19"/>
      <point x="443" y="7"/>
      <point x="455" y="-4" type="curve"/>
      <point x="482" y="19" type="line"/>
      <point x="467" y="40"/>
      <point x="460" y="68"/>
      <point x="460" y="101" type="curve" smooth="yes"/>
      <point x="460" y="113"/>
      <point x="461" y="126"/>
      <point x="463" y="140" type="curve" smooth="yes"/>
      <point x="512" y="495" type="line"/>
      <point x="470" y="495" type="line"/>
      <point x="420" y="141" type="line"/>
      <point x="391" y="107"/>
      <point x="362" y="80"/>
      <point x="332" y="61" type="curve" smooth="yes"/>
      <point x="306" y="41"/>
      <point x="271" y="30"/>
      <point x="233" y="30" type="curve" smooth="yes"/>
      <point x="194" y="30"/>
      <point x="164" y="39"/>
      <point x="148" y="59" type="curve" smooth="yes"/>
      <point x="138" y="74"/>
      <point x="133" y="95"/>
      <point x="133" y="120" type="curve" smooth="yes"/>
      <point x="133" y="130"/>
      <point x="134" y="140"/>
      <point x="135" y="151" type="curve"/>
      <point x="134" y="152" type="line"/>
      <point x="182" y="495" type="line"/>
      <point x="140" y="495" type="line"/>
      <point x="35" y="-254" type="line"/>
    </contour>
  </outline>
</glyph>
<glyph name="paragraph" format="2">
	<advance width="560"/>
	<unicode hex="00B6"/>
	<outline>
		<contour>
			<point x="233" y="2" type="line"/>
			<point x="279" y="2" type="line"/>
			<point x="359" y="569" type="line"/>
			<point x="457" y="569" type="line"/>
			<point x="377" y="2" type="line"/>
			<point x="421" y="2" type="line"/>
			<point x="507" y="613" type="line"/>
			<point x="432" y="616" type="line"/>
			<point x="385" y="616" type="line" smooth="yes"/>
			<point x="277" y="616"/>
			<point x="203" y="603"/>
			<point x="158" y="577" type="curve" smooth="yes"/>
			<point x="114" y="548"/>
			<point x="88" y="502"/>
			<point x="79" y="436" type="curve" smooth="yes"/>
			<point x="77" y="423"/>
			<point x="76" y="411"/>
			<point x="76" y="400" type="curve" smooth="yes"/>
			<point x="76" y="361"/>
			<point x="87" y="332"/>
			<point x="106" y="310" type="curve" smooth="yes"/>
			<point x="131" y="281"/>
			<point x="186" y="263"/>
			<point x="270" y="256" type="curve"/>
		</contour>
	</outline>
</glyph>
<glyph name="periodcentered" format="1">
  <advance width="210"/>
  <unicode hex="00B7"/>
  <outline>
    <contour>
      <point x="125" y="273"/>
      <point x="153" y="300"/>
      <point x="153" y="332" type="curve" smooth="yes"/>
      <point x="153" y="360"/>
      <point x="133" y="381"/>
      <point x="104" y="381" type="curve" smooth="yes"/>
      <point x="72" y="381"/>
      <point x="45" y="354"/>
      <point x="45" y="321" type="curve" smooth="yes"/>
      <point x="45" y="294"/>
      <point x="65" y="273"/>
      <point x="93" y="273" type="curve" smooth="yes"/>
    </contour>
  </outline>
</glyph>
<glyph name="cedilla" format="1">
  <advance width="244"/>
  <unicode hex="00B8"/>
  <outline>
    <contour>
      <point x="78" y="-232"/>
      <point x="113" y="-170"/>
      <point x="113" y="-120" type="curve" smooth="yes"/>
      <point x="113" y="-84"/>
      <point x="94" y="-55"/>
      <point x="51" y="-52" type="curve"/>
      <point x="69" y="-2" type="line"/>
      <point x="22" y="-2" type="line"/>
      <point x="1" y="-86" type="line"/>
      <point x="26" y="-86" type="line" smooth="yes"/>
      <point x="58" y="-86"/>
      <point x="75" y="-101"/>
      <point x="75" y="-125" type="curve" smooth="yes"/>
      <point x="75" y="-153"/>
      <point x="50" y="-191"/>
      <point x="15" y="-195" type="curve"/>
      <point x="12" y="-235" type="line"/>
    </contour>
    <contour>
      <point x="46" y="-6" type="move" name="_bottom"/>
    </contour>
  </outline>
</glyph>
<glyph name="ordmasculine" format="1">
  <advance width="399"/>
  <unicode hex="00BA"/>
  <outline>
    <contour>
      <point x="251" y="419"/>
      <point x="282" y="430"/>
      <point x="314" y="458" type="curve"/>
      <point x="339" y="485"/>
      <point x="364" y="523"/>
      <point x="364" y="585" type="curve" smooth="yes"/>
      <point x="364" y="616"/>
      <point x="355" y="640"/>
      <point x="338" y="659" type="curve" smooth="yes"/>
      <point x="317" y="687"/>
      <point x="287" y="700"/>
      <point x="246" y="700" type="curve" smooth="yes"/>
      <point x="205" y="700"/>
      <point x="172" y="688"/>
      <point x="142" y="662" type="curve" smooth="yes"/>
      <point x="108" y="629"/>
      <point x="91" y="581"/>
      <point x="91" y="538" type="curve" smooth="yes"/>
      <point x="91" y="508"/>
      <point x="100" y="481"/>
      <point x="118" y="461" type="curve" smooth="yes"/>
      <point x="137" y="434"/>
      <point x="169" y="419"/>
      <point x="212" y="419" type="curve" smooth="yes"/>
    </contour>
    <contour>
      <point x="185" y="451"/>
      <point x="159" y="458"/>
      <point x="141" y="480" type="curve" smooth="yes"/>
      <point x="131" y="496"/>
      <point x="128" y="515"/>
      <point x="128" y="536" type="curve" smooth="yes"/>
      <point x="128" y="546"/>
      <point x="128" y="556"/>
      <point x="130" y="567" type="curve" smooth="yes"/>
      <point x="138" y="626"/>
      <point x="186" y="668"/>
      <point x="246" y="668" type="curve" smooth="yes"/>
      <point x="269" y="668"/>
      <point x="297" y="661"/>
      <point x="314" y="641" type="curve" smooth="yes"/>
      <point x="324" y="627"/>
      <point x="331" y="608"/>
      <point x="331" y="584" type="curve" smooth="yes"/>
      <point x="331" y="544"/>
      <point x="315" y="509"/>
      <point x="290" y="485" type="curve"/>
      <point x="268" y="461"/>
      <point x="236" y="451"/>
      <point x="209" y="451" type="curve" smooth="yes"/>
    </contour>
  </outline>
</glyph>
<glyph name="guillemetright" format="1">
  <advance width="606"/>
  <unicode hex="00BB"/>
  <outline>
    <contour>
      <point x="495" y="205" type="line" smooth="yes"/>
      <point x="519" y="225"/>
      <point x="531" y="240"/>
      <point x="531" y="250" type="curve" smooth="yes"/>
      <point x="531" y="261"/>
      <point x="522" y="275"/>
      <point x="505" y="293" type="curve" smooth="yes"/>
      <point x="328" y="477" type="line"/>
      <point x="294" y="445" type="line"/>
      <point x="488" y="250" type="line"/>
      <point x="240" y="55" type="line"/>
      <point x="264" y="23" type="line"/>
    </contour>
    <contour>
      <point x="281" y="205" type="line" smooth="yes"/>
      <point x="307" y="227"/>
      <point x="316" y="242"/>
      <point x="316" y="252" type="curve" smooth="yes"/>
      <point x="316" y="264"/>
      <point x="308" y="277"/>
      <point x="291" y="293" type="curve" smooth="yes"/>
      <point x="113" y="477" type="line"/>
      <point x="80" y="445" type="line"/>
      <point x="274" y="250" type="line"/>
      <point x="26" y="55" type="line"/>
      <point x="49" y="23" type="line"/>
    </contour>
  </outline>
</glyph>
<glyph name="AE" format="1">
  <advance width="899"/>
  <unicode hex="00C6"/>
  <outline>
    <contour>
      <point x="45" y="1" type="line"/>
      <point x="198" y="233" type="line"/>
      <point x="405" y="233" type="line"/>
      <point x="372" y="1" type="line"/>
      <point x="835" y="1" type="line"/>
      <point x="841" y="45" type="line"/>
      <point x="426" y="45" type="line"/>
      <point x="468" y="341" type="line"/>
      <point x="791" y="341" type="line"/>
      <point x="797" y="385" type="line"/>
      <point x="474" y="385" type="line"/>
      <point x="510" y="641" type="line"/>
      <point x="905" y="641" type="line"/>
      <point x="911" y="685" type="line"/>
      <point x="442" y="685" type="line"/>
      <point x="-13" y="1" type="line"/>
    </contour>
    <contour>
      <point x="430" y="595" type="line"/>
      <point x="467" y="677" type="line"/>
      <point x="411" y="277" type="line"/>
      <point x="224" y="277" type="line"/>
    </contour>
    <contour>
      <point x="524" y="690" type="move" name="top"/>
    </contour>
    <contour>
      <point x="439" y="0" type="move" name="bottom"/>
    </contour>
  </outline>
</glyph>
<glyph name="multiply" format="1">
  <advance width="505"/>
  <unicode hex="00D7"/>
  <outline>
    <contour>
      <point x="235" y="234" type="line"/>
      <point x="365" y="82" type="line"/>
      <point x="404" y="115" type="line"/>
      <point x="273" y="267" type="line"/>
      <point x="438" y="412" type="line"/>
      <point x="411" y="444" type="line"/>
      <point x="246" y="298" type="line"/>
      <point x="121" y="444" type="line"/>
      <point x="82" y="410" type="line"/>
      <point x="207" y="264" type="line"/>
      <point x="34" y="112" type="line"/>
      <point x="61" y="81" type="line"/>
    </contour>
  </outline>
</glyph>
<glyph name="Thorn" format="2">
	<advance width="525"/>
	<unicode hex="00DE"/>
	<anchor x="358" y="684" name="top"/>
	<anchor x="262" y="0" name="bottom"/>
	<outline>
		<contour>
			<point x="50" y="1" type="line"/>
			<point x="98" y="1" type="line"/>
			<point x="171" y="520" type="line"/>
			<point x="319" y="520" type="line" smooth="yes"/>
			<point x="406" y="520"/>
			<point x="459" y="475"/>
			<point x="459" y="391" type="curve" smooth="yes"/>
			<point x="459" y="381"/>
			<point x="459" y="370"/>
			<point x="457" y="359" type="curve" smooth="yes"/>
			<point x="440" y="237"/>
			<point x="347" y="182"/>
			<point x="240" y="182" type="curve" smooth="yes"/>
			<point x="223" y="182"/>
			<point x="207" y="183"/>
			<point x="189" y="186" type="curve"/>
			<point x="185" y="144" type="line"/>
			<point x="198" y="142"/>
			<point x="215" y="141"/>
			<point x="236" y="141" type="curve" smooth="yes"/>
			<point x="371" y="141"/>
			<point x="481" y="202"/>
			<point x="502" y="351" type="curve" smooth="yes"/>
			<point x="504" y="366"/>
			<point x="505" y="380"/>
			<point x="505" y="393" type="curve" smooth="yes"/>
			<point x="505" y="494"/>
			<point x="445" y="555"/>
			<point x="342" y="561" type="curve"/>
			<point x="177" y="561" type="line"/>
			<point x="194" y="685" type="line"/>
			<point x="146" y="685" type="line"/>
		</contour>
	</outline>
</glyph>
<glyph name="germandbls" format="1">
  <advance width="477"/>
  <unicode hex="00DF"/>
  <outline>
    <contour>
      <point x="43" y="-254" type="line"/>
      <point x="79" y="-1" type="line"/>
      <point x="92" y="-1" type="line"/>
      <point x="177" y="-8"/>
      <point x="202" y="-9"/>
      <point x="220" y="-9" type="curve" smooth="yes"/>
      <point x="332" y="-9"/>
      <point x="427" y="30"/>
      <point x="444" y="153" type="curve" smooth="yes"/>
      <point x="446" y="164"/>
      <point x="447" y="175"/>
      <point x="447" y="186" type="curve" smooth="yes"/>
      <point x="447" y="224"/>
      <point x="435" y="257"/>
      <point x="413" y="281" type="curve" smooth="yes"/>
      <point x="375" y="329"/>
      <point x="292" y="343"/>
      <point x="292" y="414" type="curve" smooth="yes"/>
      <point x="292" y="476"/>
      <point x="402" y="497"/>
      <point x="418" y="612" type="curve" smooth="yes"/>
      <point x="419" y="619"/>
      <point x="419" y="626"/>
      <point x="419" y="632" type="curve" smooth="yes"/>
      <point x="419" y="695"/>
      <point x="377" y="736"/>
      <point x="296" y="736" type="curve" smooth="yes"/>
      <point x="170" y="736"/>
      <point x="125" y="629"/>
      <point x="107" y="499" type="curve" smooth="yes"/>
      <point x="1" y="-254" type="line"/>
    </contour>
    <contour>
      <point x="153" y="30"/>
      <point x="106" y="36"/>
      <point x="83" y="39" type="curve"/>
      <point x="149" y="500" type="line" smooth="yes"/>
      <point x="162" y="595"/>
      <point x="193" y="697"/>
      <point x="293" y="697" type="curve" smooth="yes"/>
      <point x="339" y="697"/>
      <point x="375" y="673"/>
      <point x="375" y="626" type="curve" smooth="yes"/>
      <point x="375" y="622"/>
      <point x="375" y="617"/>
      <point x="374" y="612" type="curve" smooth="yes"/>
      <point x="360" y="511"/>
      <point x="252" y="500"/>
      <point x="252" y="408" type="curve" smooth="yes"/>
      <point x="252" y="333"/>
      <point x="321" y="323"/>
      <point x="371" y="273" type="curve" smooth="yes"/>
      <point x="395" y="246"/>
      <point x="406" y="216"/>
      <point x="406" y="182" type="curve" smooth="yes"/>
      <point x="406" y="173"/>
      <point x="405" y="165"/>
      <point x="404" y="156" type="curve" smooth="yes"/>
      <point x="391" y="65"/>
      <point x="329" y="30"/>
      <point x="205" y="30" type="curve" smooth="yes"/>
    </contour>
    <contour>
      <point x="310" y="500" type="move" name="top"/>
    </contour>
    <contour>
      <point x="240" y="0" type="move" name="bottom"/>
    </contour>
  </outline>
</glyph>
<glyph name="ae" format="1">
  <advance width="759"/>
  <unicode hex="00E6"/>
  <outline>
    <contour>
      <point x="192" y="-9"/>
      <point x="234" y="3"/>
      <point x="267" y="22" type="curve" smooth="yes"/>
      <point x="330" y="64"/>
      <point x="329" y="118"/>
      <point x="340" y="132" type="curve"/>
      <point x="353" y="71"/>
      <point x="373" y="45"/>
      <point x="405" y="24" type="curve" smooth="yes"/>
      <point x="434" y="3"/>
      <point x="466" y="-9"/>
      <point x="523" y="-9" type="curve" smooth="yes"/>
      <point x="561" y="-9"/>
      <point x="590" y="-4"/>
      <point x="627" y="8" type="curve" smooth="yes"/>
      <point x="659" y="19"/>
      <point x="682" y="29"/>
      <point x="707" y="44" type="curve"/>
      <point x="691" y="76" type="line"/>
      <point x="667" y="65"/>
      <point x="638" y="53"/>
      <point x="612" y="44" type="curve" smooth="yes"/>
      <point x="583" y="34"/>
      <point x="557" y="30"/>
      <point x="525" y="30" type="curve" smooth="yes"/>
      <point x="468" y="30"/>
      <point x="432" y="45"/>
      <point x="407" y="70" type="curve"/>
      <point x="379" y="104"/>
      <point x="372" y="149"/>
      <point x="374" y="204" type="curve"/>
      <point x="503" y="205" type="line" smooth="yes"/>
      <point x="531" y="205"/>
      <point x="562" y="208"/>
      <point x="588" y="213" type="curve" smooth="yes"/>
      <point x="641" y="224"/>
      <point x="686" y="247"/>
      <point x="714" y="283" type="curve" smooth="yes"/>
      <point x="732" y="310"/>
      <point x="742" y="338"/>
      <point x="742" y="376" type="curve" smooth="yes"/>
      <point x="742" y="412"/>
      <point x="727" y="441"/>
      <point x="702" y="463" type="curve" smooth="yes"/>
      <point x="674" y="491"/>
      <point x="630" y="505"/>
      <point x="581" y="505" type="curve" smooth="yes"/>
      <point x="539" y="505"/>
      <point x="510" y="496"/>
      <point x="478" y="478" type="curve" smooth="yes"/>
      <point x="446" y="456"/>
      <point x="418" y="429"/>
      <point x="389" y="380" type="curve"/>
      <point x="388" y="421"/>
      <point x="377" y="452"/>
      <point x="350" y="474" type="curve"/>
      <point x="332" y="494"/>
      <point x="308" y="505"/>
      <point x="257" y="505" type="curve" smooth="yes"/>
      <point x="216" y="505"/>
      <point x="188" y="497"/>
      <point x="157" y="486" type="curve" smooth="yes"/>
      <point x="125" y="474"/>
      <point x="102" y="462"/>
      <point x="81" y="446" type="curve"/>
      <point x="98" y="413" type="line"/>
      <point x="120" y="428"/>
      <point x="147" y="442"/>
      <point x="169" y="449" type="curve"/>
      <point x="187" y="457"/>
      <point x="223" y="466"/>
      <point x="258" y="466" type="curve" smooth="yes"/>
      <point x="287" y="466"/>
      <point x="317" y="459"/>
      <point x="336" y="437" type="curve" smooth="yes"/>
      <point x="346" y="422"/>
      <point x="351" y="403"/>
      <point x="351" y="378" type="curve" smooth="yes"/>
      <point x="351" y="366"/>
      <point x="350" y="353"/>
      <point x="348" y="338" type="curve" smooth="yes"/>
      <point x="339" y="272" type="line"/>
      <point x="232" y="272" type="line" smooth="yes"/>
      <point x="169" y="272"/>
      <point x="76" y="259"/>
      <point x="30" y="199" type="curve"/>
      <point x="16" y="179"/>
      <point x="3" y="150"/>
      <point x="3" y="105" type="curve" smooth="yes"/>
      <point x="3" y="70"/>
      <point x="16" y="45"/>
      <point x="36" y="28" type="curve" smooth="yes"/>
      <point x="60" y="3"/>
      <point x="100" y="-9"/>
      <point x="146" y="-9" type="curve" smooth="yes"/>
    </contour>
    <contour>
      <point x="97" y="30"/>
      <point x="47" y="43"/>
      <point x="47" y="105" type="curve" smooth="yes"/>
      <point x="47" y="154"/>
      <point x="70" y="196"/>
      <point x="117" y="217" type="curve" smooth="yes"/>
      <point x="148" y="230"/>
      <point x="191" y="235"/>
      <point x="229" y="235" type="curve" smooth="yes"/>
      <point x="334" y="235" type="line"/>
      <point x="326" y="176" type="line" smooth="yes"/>
      <point x="320" y="134"/>
      <point x="297" y="94"/>
      <point x="263" y="69" type="curve" smooth="yes"/>
      <point x="229" y="42"/>
      <point x="184" y="30"/>
      <point x="141" y="30" type="curve" smooth="yes"/>
    </contour>
    <contour>
      <point x="382" y="296"/>
      <point x="408" y="355"/>
      <point x="447" y="399" type="curve" smooth="yes"/>
      <point x="477" y="437"/>
      <point x="524" y="469"/>
      <point x="586" y="469" type="curve" smooth="yes"/>
      <point x="643" y="469"/>
      <point x="698" y="442"/>
      <point x="698" y="376" type="curve" smooth="yes"/>
      <point x="698" y="345"/>
      <point x="687" y="307"/>
      <point x="652" y="282" type="curve" smooth="yes"/>
      <point x="616" y="253"/>
      <point x="557" y="244"/>
      <point x="506" y="244" type="curve" smooth="yes"/>
      <point x="377" y="243" type="line"/>
    </contour>
    <contour>
      <point x="416" y="506" type="move" name="top"/>
    </contour>
    <contour>
      <point x="361" y="0" type="move" name="bottom"/>
    </contour>
  </outline>
</glyph>
<glyph name="eth" format="1">
  <advance width="527"/>
  <unicode hex="00F0"/>
  <outline>
    <contour>
      <point x="376" y="-9"/>
      <point x="469" y="85"/>
      <point x="492" y="253" type="curve" smooth="yes"/>
      <point x="494" y="270"/>
      <point x="496" y="285"/>
      <point x="496" y="301" type="curve" smooth="yes"/>
      <point x="496" y="352"/>
      <point x="483" y="418"/>
      <point x="447" y="598" type="curve"/>
      <point x="548" y="630" type="line"/>
      <point x="542" y="672" type="line"/>
      <point x="439" y="642" type="line"/>
      <point x="415" y="748" type="line"/>
      <point x="368" y="734" type="line"/>
      <point x="393" y="628" type="line"/>
      <point x="296" y="597" type="line"/>
      <point x="301" y="555" type="line"/>
      <point x="402" y="585" type="line"/>
      <point x="420" y="492" type="line"/>
      <point x="384" y="499"/>
      <point x="337" y="505"/>
      <point x="301" y="505" type="curve" smooth="yes"/>
      <point x="154" y="505"/>
      <point x="51" y="395"/>
      <point x="31" y="247" type="curve" smooth="yes"/>
      <point x="29" y="230"/>
      <point x="27" y="213"/>
      <point x="27" y="197" type="curve" smooth="yes"/>
      <point x="27" y="75"/>
      <point x="98" y="-9"/>
      <point x="234" y="-9" type="curve" smooth="yes"/>
    </contour>
    <contour>
      <point x="128" y="30"/>
      <point x="72" y="99"/>
      <point x="72" y="203" type="curve" smooth="yes"/>
      <point x="72" y="218"/>
      <point x="73" y="233"/>
      <point x="75" y="249" type="curve" smooth="yes"/>
      <point x="93" y="380"/>
      <point x="176" y="465"/>
      <point x="320" y="465" type="curve" smooth="yes"/>
      <point x="364" y="465"/>
      <point x="382" y="457"/>
      <point x="430" y="451" type="curve"/>
      <point x="443" y="387"/>
      <point x="450" y="339"/>
      <point x="450" y="297" type="curve" smooth="yes"/>
      <point x="450" y="279"/>
      <point x="448" y="261"/>
      <point x="446" y="244" type="curve" smooth="yes"/>
      <point x="429" y="119"/>
      <point x="356" y="30"/>
      <point x="234" y="30" type="curve" smooth="yes"/>
    </contour>
  </outline>
</glyph>
<glyph name="divide" format="2">
	<advance width="463"/>
	<unicode hex="00F7"/>
	<outline>
		<contour>
			<point x="50" y="274" type="line"/>
			<point x="415" y="274" type="line"/>
			<point x="421" y="312" type="line"/>
			<point x="56" y="312" type="line"/>
		</contour>
		<component base="period" xOffset="117" yOffset="101"/>
		<component base="period" xOffset="160" yOffset="406"/>
	</outline>
</glyph>
<glyph name="oslash" format="1">
  <advance width="601"/>
  <unicode hex="00F8"/>
  <outline>
    <contour>
      <point x="131" y="22" type="line"/>
      <point x="165" y="1"/>
      <point x="204" y="-10"/>
      <point x="249" y="-10" type="curve" smooth="yes"/>
      <point x="372" y="-10"/>
      <point x="507" y="75"/>
      <point x="532" y="248" type="curve" smooth="yes"/>
      <point x="534" y="264"/>
      <point x="535" y="279"/>
      <point x="535" y="294" type="curve" smooth="yes"/>
      <point x="535" y="358"/>
      <point x="514" y="412"/>
      <point x="468" y="452" type="curve"/>
      <point x="502" y="491" type="line"/>
      <point x="468" y="514" type="line"/>
      <point x="438" y="474" type="line"/>
      <point x="406" y="494"/>
      <point x="363" y="505"/>
      <point x="319" y="505" type="curve" smooth="yes"/>
      <point x="171" y="505"/>
      <point x="59" y="394"/>
      <point x="39" y="247" type="curve" smooth="yes"/>
      <point x="37" y="232"/>
      <point x="36" y="216"/>
      <point x="36" y="201" type="curve" smooth="yes"/>
      <point x="36" y="138"/>
      <point x="56" y="81"/>
      <point x="100" y="43" type="curve"/>
      <point x="68" y="5" type="line"/>
      <point x="101" y="-18" type="line"/>
    </contour>
    <contour>
      <point x="92" y="105"/>
      <point x="79" y="148"/>
      <point x="79" y="198" type="curve" smooth="yes"/>
      <point x="79" y="212"/>
      <point x="80" y="227"/>
      <point x="82" y="242" type="curve" smooth="yes"/>
      <point x="101" y="378"/>
      <point x="197" y="466"/>
      <point x="326" y="466" type="curve" smooth="yes"/>
      <point x="371" y="466"/>
      <point x="397" y="455"/>
      <point x="413" y="439" type="curve"/>
      <point x="121" y="75" type="line"/>
    </contour>
    <contour>
      <point x="220" y="29"/>
      <point x="186" y="36"/>
      <point x="155" y="51" type="curve"/>
      <point x="448" y="421" type="line"/>
      <point x="478" y="392"/>
      <point x="492" y="350"/>
      <point x="492" y="300" type="curve" smooth="yes"/>
      <point x="492" y="287"/>
      <point x="491" y="273"/>
      <point x="489" y="258" type="curve" smooth="yes"/>
      <point x="468" y="110"/>
      <point x="359" y="29"/>
      <point x="252" y="29" type="curve" smooth="yes"/>
    </contour>
    <contour>
      <point x="315" y="504" type="move" name="top"/>
    </contour>
  </outline>
</glyph>
<glyph name="thorn" format="1">
  <advance width="513"/>
  <unicode hex="00FE"/>
  <outline>
    <contour>
      <point x="43" y="-253" type="line"/>
      <point x="80" y="2" type="line"/>
      <point x="115" y="-3"/>
      <point x="175" y="-8"/>
      <point x="209" y="-8" type="curve" smooth="yes"/>
      <point x="363" y="-8"/>
      <point x="463" y="100"/>
      <point x="484" y="249" type="curve" smooth="yes"/>
      <point x="486" y="267"/>
      <point x="488" y="284"/>
      <point x="488" y="301" type="curve" smooth="yes"/>
      <point x="488" y="416"/>
      <point x="431" y="506"/>
      <point x="308" y="506" type="curve" smooth="yes"/>
      <point x="245" y="506"/>
      <point x="177" y="483"/>
      <point x="131" y="403" type="curve"/>
      <point x="143" y="476"/>
      <point x="165" y="615"/>
      <point x="181" y="726" type="curve"/>
      <point x="139" y="727" type="line"/>
      <point x="1" y="-253" type="line"/>
    </contour>
    <contour>
      <point x="190" y="31"/>
      <point x="171" y="32"/>
      <point x="84" y="41" type="curve"/>
      <point x="125" y="329" type="line"/>
      <point x="147" y="414"/>
      <point x="231" y="467"/>
      <point x="306" y="467" type="curve" smooth="yes"/>
      <point x="401" y="467"/>
      <point x="443" y="386"/>
      <point x="443" y="292" type="curve" smooth="yes"/>
      <point x="443" y="277"/>
      <point x="442" y="262"/>
      <point x="440" y="247" type="curve" smooth="yes"/>
      <point x="422" y="123"/>
      <point x="344" y="31"/>
      <point x="204" y="31" type="curve" smooth="yes"/>
    </contour>
    <contour>
      <point x="323" y="500" type="move" name="top"/>
    </contour>
    <contour>
      <point x="253" y="0" type="move" name="bottom"/>
    </contour>
  </outline>
</glyph>
<glyph name="Eogonek" format="1">
  <advance width="608"/>
  <unicode hex="0118"/>
  <outline>
    <component base="E"/>
    <component base="ogonekcomb" xOffset="536" yOffset="19"/>
    <contour>
      <point x="382" y="684" type="move" name="top"/>
    </contour>
  </outline>
</glyph>
<glyph name="Hbar" format="2">
	<advance width="707"/>
	<unicode hex="0126"/>
	<outline>
		<contour>
			<point x="184" y="512" type="line"/>
			<point x="708" y="512" type="line"/>
			<point x="713" y="551" type="line"/>
			<point x="189" y="551" type="line"/>
		</contour>
		<component base="H" yOffset="-6"/>
	</outline>
</glyph>
<glyph name="imacron" format="1">
  <advance width="222"/>
  <unicode hex="012B"/>
  <outline>
    <contour>
      <point x="226" y="641" type="line"/>
      <point x="232" y="685" type="line"/>
      <point x="14" y="685" type="line"/>
      <point x="8" y="641" type="line"/>
    </contour>
    <component base="idotless" xOffset="-35"/>
  </outline>
</glyph>
<glyph name="idotless" format="1">
  <advance width="222"/>
  <unicode hex="0131"/>
  <outline>
    <contour>
      <point x="118" y="-9"/>
      <point x="141" y="1"/>
      <point x="160" y="22" type="curve"/>
      <point x="126" y="47" type="line"/>
      <point x="116" y="37"/>
      <point x="103" y="33"/>
      <point x="94" y="33" type="curve" smooth="yes"/>
      <point x="75" y="33"/>
      <point x="55" y="50"/>
      <point x="58" y="75" type="curve" smooth="yes"/>
      <point x="118" y="497" type="line"/>
      <point x="76" y="497" type="line"/>
      <point x="17" y="77" type="line" smooth="yes"/>
      <point x="16" y="73"/>
      <point x="16" y="68"/>
      <point x="16" y="64" type="curve" smooth="yes"/>
      <point x="16" y="22"/>
      <point x="47" y="-9"/>
      <point x="92" y="-9" type="curve" smooth="yes"/>
    </contour>
    <contour>
      <point x="134" y="-6" type="move" name="ogonek"/>
    </contour>
    <contour>
      <point x="98" y="504" type="move" name="top"/>
    </contour>
  </outline>
</glyph>
<glyph name="kgreenlandic" format="1">
  <advance width="551"/>
  <unicode hex="0138"/>
  <outline>
    <contour>
      <point x="73" y="2" type="line"/>
      <point x="102" y="206" type="line"/>
      <point x="287" y="206" type="line"/>
      <point x="365" y="43" type="line" smooth="yes"/>
      <point x="376" y="17"/>
      <point x="399" y="2"/>
      <point x="430" y="2" type="curve" smooth="yes"/>
      <point x="472" y="2"/>
      <point x="510" y="31"/>
      <point x="522" y="75" type="curve"/>
      <point x="480" y="79" type="line"/>
      <point x="474" y="63"/>
      <point x="456" y="46"/>
      <point x="432" y="46" type="curve" smooth="yes"/>
      <point x="421" y="46"/>
      <point x="411" y="51"/>
      <point x="404" y="59" type="curve"/>
      <point x="330" y="216" type="line"/>
      <point x="344" y="223"/>
      <point x="364" y="234"/>
      <point x="378" y="242" type="curve"/>
      <point x="434" y="284"/>
      <point x="450" y="343"/>
      <point x="450" y="387" type="curve" smooth="yes"/>
      <point x="450" y="459"/>
      <point x="400" y="506"/>
      <point x="312" y="506" type="curve" smooth="yes"/>
      <point x="229" y="506"/>
      <point x="170" y="464"/>
      <point x="126" y="379" type="curve"/>
      <point x="144" y="508" type="line"/>
      <point x="102" y="508" type="line"/>
      <point x="31" y="2" type="line"/>
    </contour>
    <contour>
      <point x="113" y="274"/>
      <point x="120" y="301"/>
      <point x="133" y="331" type="curve" smooth="yes"/>
      <point x="169" y="412"/>
      <point x="233" y="470"/>
      <point x="309" y="470" type="curve" smooth="yes"/>
      <point x="363" y="470"/>
      <point x="411" y="440"/>
      <point x="411" y="382" type="curve" smooth="yes"/>
      <point x="411" y="301"/>
      <point x="343" y="245"/>
      <point x="234" y="245" type="curve" smooth="yes"/>
      <point x="109" y="244" type="line"/>
    </contour>
    <contour>
      <point x="310" y="500" type="move" name="top"/>
    </contour>
    <contour>
      <point x="240" y="0" type="move" name="bottom"/>
    </contour>
  </outline>
</glyph>
<glyph name="Lslash" format="1">
  <advance width="531"/>
  <unicode hex="0141"/>
  <outline>
    <contour>
      <point x="259" y="433" type="line"/>
      <point x="265" y="481" type="line"/>
      <point x="34" y="329" type="line"/>
      <point x="27" y="282" type="line"/>
    </contour>
    <component base="L" xOffset="44"/>
  </outline>
</glyph>
<glyph name="lslash" format="2">
	<advance width="237"/>
	<unicode hex="0142"/>
	<outline>
		<contour>
			<point x="43" y="330" type="line"/>
			<point x="238" y="442" type="line"/>
			<point x="245" y="490" type="line"/>
			<point x="50" y="378" type="line"/>
		</contour>
		<component base="l" xOffset="34"/>
	</outline>
</glyph>
<glyph name="Eng" format="1">
  <advance width="778"/>
  <unicode hex="014A"/>
  <outline>
    <contour>
      <point x="596" y="-204"/>
      <point x="635" y="-168"/>
      <point x="642" y="-120" type="curve" smooth="yes"/>
      <point x="701" y="278" type="line"/>
      <point x="659" y="278" type="line"/>
      <point x="600" y="-118" type="line" smooth="yes"/>
      <point x="596" y="-142"/>
      <point x="575" y="-162"/>
      <point x="549" y="-162" type="curve" smooth="yes"/>
      <point x="539" y="-162"/>
      <point x="528" y="-159"/>
      <point x="521" y="-150" type="curve"/>
      <point x="485" y="-171" type="line"/>
      <point x="499" y="-193"/>
      <point x="520" y="-204"/>
      <point x="547" y="-204" type="curve" smooth="yes"/>
    </contour>
    <component base="N"/>
  </outline>
</glyph>
<glyph name="eng" format="1">
  <advance width="492"/>
  <unicode hex="014B"/>
  <outline>
    <contour>
      <point x="346" y="-204"/>
      <point x="385" y="-168"/>
      <point x="392" y="-120" type="curve" smooth="yes"/>
      <point x="451" y="278" type="line"/>
      <point x="409" y="278" type="line"/>
      <point x="350" y="-118" type="line" smooth="yes"/>
      <point x="346" y="-142"/>
      <point x="325" y="-162"/>
      <point x="299" y="-162" type="curve" smooth="yes"/>
      <point x="289" y="-162"/>
      <point x="278" y="-159"/>
      <point x="271" y="-150" type="curve"/>
      <point x="235" y="-171" type="line"/>
      <point x="249" y="-193"/>
      <point x="270" y="-204"/>
      <point x="297" y="-204" type="curve" smooth="yes"/>
    </contour>
    <component base="n.ss02" xOffset="-15"/>
    <contour>
      <point x="665" y="504" type="move" name="top"/>
    </contour>
  </outline>
</glyph>
<glyph name="oe" format="1">
  <advance width="953"/>
  <unicode hex="0153"/>
  <outline>
    <contour>
      <point x="348" y="-9"/>
      <point x="433" y="34"/>
      <point x="487" y="138" type="curve"/>
      <point x="500" y="46"/>
      <point x="557" y="-9"/>
      <point x="671" y="-9" type="curve" smooth="yes"/>
      <point x="734" y="-9"/>
      <point x="795" y="7"/>
      <point x="855" y="44" type="curve"/>
      <point x="839" y="77" type="line"/>
      <point x="785" y="51"/>
      <point x="734" y="30"/>
      <point x="670" y="30" type="curve" smooth="yes"/>
      <point x="567" y="30"/>
      <point x="516" y="87"/>
      <point x="523" y="204" type="curve"/>
      <point x="651" y="205" type="line" smooth="yes"/>
      <point x="772" y="205"/>
      <point x="889" y="249"/>
      <point x="889" y="377" type="curve" smooth="yes"/>
      <point x="889" y="460"/>
      <point x="823" y="505"/>
      <point x="734" y="505" type="curve" smooth="yes"/>
      <point x="632" y="505"/>
      <point x="561" y="442"/>
      <point x="521" y="349" type="curve"/>
      <point x="500" y="449"/>
      <point x="428" y="505"/>
      <point x="321" y="505" type="curve" smooth="yes"/>
      <point x="172" y="505"/>
      <point x="60" y="397"/>
      <point x="39" y="248" type="curve" smooth="yes"/>
      <point x="37" y="232"/>
      <point x="36" y="217"/>
      <point x="36" y="202" type="curve" smooth="yes"/>
      <point x="36" y="76"/>
      <point x="118" y="-9"/>
      <point x="252" y="-9" type="curve" smooth="yes"/>
    </contour>
    <contour>
      <point x="143" y="30"/>
      <point x="80" y="103"/>
      <point x="80" y="207" type="curve" smooth="yes"/>
      <point x="80" y="220"/>
      <point x="81" y="233"/>
      <point x="83" y="247" type="curve" smooth="yes"/>
      <point x="100" y="373"/>
      <point x="192" y="466"/>
      <point x="318" y="466" type="curve" smooth="yes"/>
      <point x="425" y="466"/>
      <point x="491" y="397"/>
      <point x="491" y="292" type="curve" smooth="yes"/>
      <point x="491" y="280"/>
      <point x="490" y="267"/>
      <point x="488" y="253" type="curve" smooth="yes"/>
      <point x="471" y="128"/>
      <point x="380" y="30"/>
      <point x="252" y="30" type="curve" smooth="yes"/>
    </contour>
    <contour>
      <point x="537" y="346"/>
      <point x="617" y="469"/>
      <point x="736" y="469" type="curve" smooth="yes"/>
      <point x="789" y="469"/>
      <point x="845" y="443"/>
      <point x="845" y="377" type="curve" smooth="yes"/>
      <point x="845" y="280"/>
      <point x="761" y="244"/>
      <point x="654" y="244" type="curve" smooth="yes"/>
      <point x="526" y="243" type="line"/>
    </contour>
    <contour>
      <point x="442" y="-6" type="move" name="top"/>
    </contour>
  </outline>
</glyph>
<glyph name="longs" format="1">
  <advance width="387"/>
  <unicode hex="017F"/>
  <outline>
    <contour>
      <point x="22" y="-264" type="line"/>
      <point x="129" y="502" type="line" smooth="yes"/>
      <point x="142" y="592"/>
      <point x="173" y="664"/>
      <point x="264" y="664" type="curve" smooth="yes"/>
      <point x="292" y="664"/>
      <point x="320" y="657"/>
      <point x="337" y="632" type="curve"/>
      <point x="370" y="661" type="line"/>
      <point x="348" y="690"/>
      <point x="314" y="703"/>
      <point x="264" y="703" type="curve" smooth="yes"/>
      <point x="140" y="703"/>
      <point x="104" y="621"/>
      <point x="82" y="466" type="curve" smooth="yes"/>
      <point x="-20" y="-264" type="line"/>
    </contour>
  </outline>
</glyph>
<glyph name="florin" format="2">
	<advance width="495"/>
	<unicode hex="0192"/>
	<outline>
		<contour>
			<point x="43" y="-249" type="curve" smooth="yes"/>
			<point x="64" y="-249"/>
			<point x="83" y="-246"/>
			<point x="102" y="-240" type="curve" smooth="yes"/>
			<point x="120" y="-234"/>
			<point x="134" y="-226"/>
			<point x="149" y="-214" type="curve"/>
			<point x="161" y="-200"/>
			<point x="171" y="-183"/>
			<point x="180" y="-161" type="curve"/>
			<point x="191" y="-137"/>
			<point x="198" y="-109"/>
			<point x="202" y="-74" type="curve" smooth="yes"/>
			<point x="264" y="366" type="line"/>
			<point x="439" y="366" type="line"/>
			<point x="445" y="408" type="line"/>
			<point x="270" y="408" type="line"/>
			<point x="284" y="504" type="line" smooth="yes"/>
			<point x="290" y="550"/>
			<point x="303" y="584"/>
			<point x="322" y="605" type="curve" smooth="yes"/>
			<point x="340" y="628"/>
			<point x="365" y="641"/>
			<point x="393" y="641" type="curve" smooth="yes"/>
			<point x="444" y="640" type="line"/>
			<point x="462" y="639"/>
			<point x="479" y="639"/>
			<point x="497" y="639" type="curve"/>
			<point x="500" y="677" type="line"/>
			<point x="498" y="677"/>
			<point x="495" y="677"/>
			<point x="491" y="678" type="curve"/>
			<point x="461" y="680" type="line"/>
			<point x="424" y="682" type="line"/>
			<point x="388" y="682" type="line" smooth="yes"/>
			<point x="365" y="682"/>
			<point x="345" y="679"/>
			<point x="327" y="673" type="curve"/>
			<point x="311" y="666"/>
			<point x="298" y="657"/>
			<point x="284" y="643" type="curve"/>
			<point x="273" y="626"/>
			<point x="264" y="606"/>
			<point x="255" y="580" type="curve" smooth="yes"/>
			<point x="246" y="552"/>
			<point x="240" y="519"/>
			<point x="234" y="478" type="curve" smooth="yes"/>
			<point x="224" y="408" type="line"/>
			<point x="109" y="408" type="line"/>
			<point x="103" y="366" type="line"/>
			<point x="218" y="366" type="line"/>
			<point x="157" y="-72" type="line" smooth="yes"/>
			<point x="150" y="-121"/>
			<point x="136" y="-157"/>
			<point x="115" y="-177" type="curve" smooth="yes"/>
			<point x="97" y="-198"/>
			<point x="72" y="-209"/>
			<point x="45" y="-209" type="curve" smooth="yes"/>
			<point x="2" y="-208" type="line"/>
			<point x="-14" y="-207" type="line"/>
			<point x="-19" y="-243" type="line"/>
			<point x="-4" y="-246" type="line" smooth="yes"/>
			<point x="7" y="-248"/>
			<point x="23" y="-249"/>
		</contour>
	</outline>
</glyph>
<glyph name="Uhorn" format="1">
  <advance width="732"/>
  <unicode hex="01AF"/>
  <outline>
    <component base="U"/>
    <component base="horncomb" xOffset="794" yOffset="148"/>
    <contour>
      <point x="432" y="684" type="move" name="top"/>
    </contour>
    <contour>
      <point x="336" y="0" type="move" name="bottom"/>
    </contour>
  </outline>
</glyph>
<glyph name="jdotless" format="1">
  <advance width="183"/>
  <unicode hex="0237"/>
  <outline>
    <contour>
      <point x="7" y="-264"/>
      <point x="46" y="-228"/>
      <point x="53" y="-180" type="curve" smooth="yes"/>
      <point x="148" y="498" type="line"/>
      <point x="106" y="498" type="line"/>
      <point x="11" y="-178" type="line" smooth="yes"/>
      <point x="7" y="-202"/>
      <point x="-14" y="-222"/>
      <point x="-40" y="-222" type="curve" smooth="yes"/>
      <point x="-50" y="-222"/>
      <point x="-61" y="-219"/>
      <point x="-68" y="-210" type="curve"/>
      <point x="-104" y="-231" type="line"/>
      <point x="-90" y="-253"/>
      <point x="-69" y="-264"/>
      <point x="-42" y="-264" type="curve" smooth="yes"/>
    </contour>
    <contour>
      <point x="128" y="504" type="move" name="top"/>
    </contour>
    <contour>
      <point x="41" y="0" type="move" name="bottom"/>
    </contour>
  </outline>
</glyph>
<glyph name="apostrophemod" format="2">
	<advance width="194"/>
	<unicode hex="02BC"/>
	<outline>
		<contour>
			<point x="93" y="461" type="line"/>
			<point x="117" y="478"/>
			<point x="135" y="499"/>
			<point x="148" y="523" type="curve"/>
			<point x="162" y="552"/>
			<point x="172" y="579"/>
			<point x="176" y="607" type="curve" smooth="yes"/>
			<point x="185" y="668" type="line" smooth="yes"/>
			<point x="187" y="682"/>
			<point x="175" y="696"/>
			<point x="161" y="696" type="curve" smooth="yes"/>
			<point x="143" y="696"/>
			<point x="136" y="687"/>
			<point x="134" y="670" type="curve" smooth="yes"/>
			<point x="125" y="609" type="line" smooth="yes"/>
			<point x="118" y="557"/>
			<point x="98" y="516"/>
			<point x="69" y="488" type="curve"/>
		</contour>
	</outline>
</glyph>
<glyph name="circumflex" format="1">
  <advance width="408"/>
  <unicode hex="02C6"/>
  <outline>
    <contour>
      <point x="154" y="568" type="line"/>
      <point x="253" y="663" type="line"/>
      <point x="325" y="568" type="line"/>
      <point x="375" y="568" type="line"/>
      <point x="279" y="699" type="line"/>
      <point x="236" y="699" type="line"/>
      <point x="105" y="568" type="line"/>
    </contour>
    <contour>
      <point x="224" y="504" type="move" name="_top"/>
    </contour>
  </outline>
</glyph>
<glyph name="caron" format="2">
	<advance width="388"/>
	<unicode hex="02C7"/>
	<anchor x="215" y="504" name="_top"/>
	<outline>
		<contour>
			<point x="206" y="608" type="line"/>
			<point x="250" y="608" type="line"/>
			<point x="383" y="739" type="line"/>
			<point x="332" y="739" type="line"/>
			<point x="234" y="644" type="line"/>
			<point x="162" y="739" type="line"/>
			<point x="112" y="739" type="line"/>
		</contour>
	</outline>
</glyph>
